<?xml version="1.0" encoding="utf-8"?>
<!-- Generator: Adobe Illustrator 22.1.0, SVG Export Plug-In . SVG Version: 6.00 Build 0)  -->
<svg version="1.1" id="图层_1" xmlns="http://www.w3.org/2000/svg" xmlns:xlink="http://www.w3.org/1999/xlink" x="0px" y="0px"
	 viewBox="0 0 1024 1024" style="enable-background:new 0 0 1024 1024;" xml:space="preserve">
<style type="text/css">
	.st0{opacity:0.46;fill:url(#SVGID_1_);}
	.st1{opacity:0.46;fill:url(#SVGID_2_);}
	.st2{fill:#00B4FF;}
	.st3{fill:url(#SVGID_3_);}
	.st4{fill:url(#SVGID_4_);}
	.st5{fill:url(#SVGID_5_);}
	.st6{fill:url(#SVGID_6_);}
	.st7{fill:url(#SVGID_7_);}
	.st8{fill:url(#SVGID_8_);}
</style>
<g>
	
		<radialGradient id="SVGID_1_" cx="1188.6149" cy="-249.9222" r="20.1328" gradientTransform="matrix(-16.6439 19.602 -19.8375 -16.4463 15555.4697 -26888.7734)" gradientUnits="userSpaceOnUse">
		<stop  offset="0" style="stop-color:#00B4FF"/>
		<stop  offset="1" style="stop-color:#00B4FF;stop-opacity:0.5"/>
	</radialGradient>
	<path class="st0" d="M551.5,18.8c-0.7,0.3-1.5,0.6-2.2,0.8c-78.9,31.5-151.4,82.1-210,151c-190.8,224.7-161.1,559.6,66.3,748.1
		c41.7,34.6,87.2,61.7,134.8,81.8L751,511.9L551.5,18.8z"/>
	
		<radialGradient id="SVGID_2_" cx="1188.8042" cy="-249.2755" r="7.7736" fx="1187.453" fy="-250.8494" gradientTransform="matrix(-16.6439 19.602 -19.8375 -16.4463 15555.4697 -26888.7734)" gradientUnits="userSpaceOnUse">
		<stop  offset="0" style="stop-color:#00B4FF"/>
		<stop  offset="1" style="stop-color:#00B4FF;stop-opacity:0.5"/>
	</radialGradient>
	<path class="st1" d="M653.4,270.7c-39,15.4-74.9,40.2-103.8,74.3c-93.3,109.9-78.8,273.7,32.4,365.9c20.4,16.9,42.6,30.2,65.9,40
		l103-239L653.4,270.7z"/>
	<g>
		<path class="st2" d="M751,531.1c-7.6,0-14.9-4.5-18-11.9L532.7,36.7c-4.1-9.8,0.7-21,10.6-25c9.9-4,21.3,0.7,25.3,10.5
			l200.3,482.5c4.1,9.8-0.7,21-10.6,25C755.9,530.6,753.4,531.1,751,531.1z"/>
		<path class="st2" d="M550.4,1013.7c-2.5,0-5.1-0.5-7.5-1.5c-9.9-4.1-14.6-15.3-10.4-25.1L736.1,506c4.2-9.8,15.5-14.4,25.4-10.3
			c9.9,4.1,14.6,15.3,10.4,25.1L568.3,1002C565.1,1009.3,557.9,1013.7,550.4,1013.7z"/>
	</g>
	<ellipse class="st2" cx="734.5" cy="513.3" rx="75.9" ry="75"/>
</g>
</svg>
