<?xml version="1.0" encoding="utf-8"?>
<!-- Generator: Adobe Illustrator 22.1.0, SVG Export Plug-In . SVG Version: 6.00 Build 0)  -->
<svg version="1.1" id="图层_1" xmlns="http://www.w3.org/2000/svg" xmlns:xlink="http://www.w3.org/1999/xlink" x="0px" y="0px"
	 viewBox="0 0 1241.9 1241.9" style="enable-background:new 0 0 1241.9 1241.9;" xml:space="preserve">
<style type="text/css">
	.st0{fill:url(#SVGID_1_);}
	.st1{fill:url(#SVGID_2_);}
	.st2{fill:url(#SVGID_3_);}
	.st3{fill:url(#SVGID_4_);}
	.st4{fill:#00FEFE;}
	.st5{opacity:0.46;fill:url(#SVGID_5_);enable-background:new    ;}
	.st6{opacity:0.46;fill:url(#SVGID_6_);enable-background:new    ;}
	.st7{fill:#00B4FF;}
</style>
<g>
	
		<linearGradient id="SVGID_1_" gradientUnits="userSpaceOnUse" x1="635.6689" y1="347.8777" x2="737.9689" y2="347.8777" gradientTransform="matrix(1 0 0 -1 0 1243.9379)">
		<stop  offset="0" style="stop-color:#00FEFE"/>
		<stop  offset="0.462" style="stop-color:#00F6F6;stop-opacity:0.8614"/>
		<stop  offset="1" style="stop-color:#00E6E6;stop-opacity:0.7"/>
	</linearGradient>
	<rect x="635.7" y="842.3" class="st0" width="102.3" height="107.6"/>
	
		<linearGradient id="SVGID_2_" gradientUnits="userSpaceOnUse" x1="567.2689" y1="277.4776" x2="806.2689" y2="277.4776" gradientTransform="matrix(1 0 0 -1 0 1243.9379)">
		<stop  offset="0" style="stop-color:#00FEFE"/>
		<stop  offset="0.2902" style="stop-color:#08FAFA"/>
		<stop  offset="0.7439" style="stop-color:#1EEEEE"/>
		<stop  offset="1" style="stop-color:#2EE6E6"/>
	</linearGradient>
	<path class="st1" d="M806.3,996.1v43.2h-239v-43.2l6-34.1c13.5-39.6,49.3-68.3,93.6-68.3h2.8l34.1,0.1
		C759.6,894.6,806.3,940.2,806.3,996.1L806.3,996.1z"/>
	
		<linearGradient id="SVGID_3_" gradientUnits="userSpaceOnUse" x1="434.4314" y1="348.4902" x2="815.7064" y2="729.7651" gradientTransform="matrix(1 0 0 -1 0 1243.9379)">
		<stop  offset="0" style="stop-color:#00FEFE"/>
		<stop  offset="0.462" style="stop-color:#00F6F6;stop-opacity:0.8614"/>
		<stop  offset="1" style="stop-color:#00E6E6;stop-opacity:0.7"/>
	</linearGradient>
	<path class="st2" d="M844.2,866.2H406c-1.1,0-2-0.9-2-2V545.5c0-1.1,0.9-2,2-2h438.2c1.1,0,2,0.9,2,2v318.7
		C846.2,865.3,845.3,866.2,844.2,866.2z"/>
	
		<linearGradient id="SVGID_4_" gradientUnits="userSpaceOnUse" x1="444.5191" y1="428.3087" x2="835.9347" y2="409.489" gradientTransform="matrix(1 0 0 -1 0 1243.9379)">
		<stop  offset="0" style="stop-color:#00FEFE"/>
		<stop  offset="0.462" style="stop-color:#00F6F6"/>
		<stop  offset="1" style="stop-color:#00E6E6"/>
	</linearGradient>
	<path class="st3" d="M844.6,866.2h-439c-0.9,0-1.6-0.7-1.6-1.6v-80.5c0-0.9,0.7-1.6,1.6-1.6h439c0.9,0,1.6,0.7,1.6,1.6v80.5
		C846.2,865.4,845.5,866.2,844.6,866.2z"/>
	<path class="st4" d="M783.4,1120.9H582.7c-10.9,0-19.7-8.8-19.7-19.7s8.8-19.7,19.7-19.7h200.7c10.9,0,19.7,8.8,19.7,19.7
		C803.1,1112.1,794.2,1120.9,783.4,1120.9z"/>
</g>
<g>
	
		<radialGradient id="SVGID_5_" cx="209.1614" cy="2337.98" r="526.415" gradientTransform="matrix(-0.7545 -0.6613 -0.662 0.754 2328.1155 -1060.0566)" gradientUnits="userSpaceOnUse">
		<stop  offset="0" style="stop-color:#00B4FF"/>
		<stop  offset="1" style="stop-color:#00B4FF;stop-opacity:0.5"/>
	</radialGradient>
	<path class="st5" d="M1141.5,395c-0.3-0.8-0.5-1.6-0.8-2.2c-30.6-80.7-80.8-155.2-150.2-216C764.3-21.5,420.2,1,221.9,227
		c-36.3,41.5-65.2,86.9-86.9,134.6l496.3,224.2L1141.5,395z"/>
	
		<radialGradient id="SVGID_6_" cx="214.111" cy="2321.0691" r="203.2572" fx="178.7811" fy="2279.9146" gradientTransform="matrix(-0.7545 -0.6613 -0.662 0.754 2328.1155 -1060.0566)" gradientUnits="userSpaceOnUse">
		<stop  offset="0" style="stop-color:#00B4FF"/>
		<stop  offset="1" style="stop-color:#00B4FF;stop-opacity:0.5"/>
	</radialGradient>
	<path class="st6" d="M880.8,492.5c-14.9-39.8-39.6-76.7-73.8-106.7c-110.6-96.9-278.9-85.9-375.9,24.6
		c-17.8,20.3-31.9,42.5-42.5,65.9l242.7,109.7L880.8,492.5z"/>
	<g>
		<path class="st7" d="M611.7,587.4c-0.7-8.5,4.2-16.8,12.5-20l499.2-191.9c10.1-3.8,21.6,1.1,25.4,11.4
			c3.9,10.1-1.1,21.6-11.3,25.4L638.3,604.2c-10.1,3.8-21.6-1.1-25.4-11.4C612.3,591.1,611.8,589.3,611.7,587.4z"/>
		<path class="st7" d="M121.2,373.5c-0.3-3.2,0.3-6.4,1.6-9.6c4.4-9.9,16.1-14.4,26-9.9l488.8,217c9.9,4.4,14.4,16,10,26
			c-4.4,9.9-16.1,14.4-26,9.9l-488.8-217C126,386.8,121.8,380.4,121.2,373.5z"/>
	</g>
	
		<ellipse transform="matrix(0.9967 -8.138806e-02 8.138806e-02 0.9967 -44.2287 53.1822)" class="st7" cx="630.2" cy="569.1" rx="77" ry="76.9"/>
</g>
</svg>
