<?xml version="1.0" encoding="utf-8"?>
<!-- Generator: Adobe Illustrator 21.0.0, SVG Export Plug-In . SVG Version: 6.00 Build 0)  -->
<svg version="1.1" id="_x31_10_x5F_复制" xmlns="http://www.w3.org/2000/svg" xmlns:xlink="http://www.w3.org/1999/xlink" x="0px"
	 y="0px" viewBox="0 0 1920 1080" style="enable-background:new 0 0 1920 1080;" xml:space="preserve">
<style type="text/css">
	.st0{fill:#FF4D2E;}
	.st1{font-family:'LaoSangamMN';}
	.st2{font-size:7.5px;}
	.st3{font-family:'SourceHanSansCN-Normal-GBpc-EUC-H';}
	.st4{font-size:11px;}
	.st5{font-family:'STHeitiSC-Light';}
	.st6{font-size:12px;}
	.st7{font-family:'AdobeSongStd-Light-GBpc-EUC-H';}
</style>
<image style="display:none;overflow:visible;opacity:0.5;enable-background:new    ;" width="1280" height="881" xlink:href="A2B5804446A43764.jpeg"  transform="matrix(0.7494 0 0 0.7491 -274.9861 -2058.2092)">
</image>
<g>
	<g>
		<rect x="1922.1" y="22.5" class="st0" width="2" height="173"/>
		<rect x="1569.6" y="138.1" class="st0" width="254" height="2"/>
		<path id="XMLID_2058_" class="st0" d="M1920.5,22.2l2.3-2.3c0.2-0.2,0.5-0.2,0.7,0l2.3,2.3c0.2,0.2,0.2,0.5,0,0.7l-2.3,2.3
			c-0.2,0.2-0.5,0.2-0.7,0l-2.3-2.3C1920.3,22.7,1920.3,22.4,1920.5,22.2z"/>
		<path id="XMLID_2057_" class="st0" d="M1922.7-16.4l-1.7-1.7c-0.2-0.2-0.2-0.4,0-0.6l1.7-1.7c0.2-0.2,0.4-0.2,0.6,0l1.7,1.7
			c0.2,0.2,0.2,0.4,0,0.6l-1.7,1.7C1923.1-16.2,1922.8-16.2,1922.7-16.4z"/>
		<path id="XMLID_2056_" class="st0" d="M1922.7,12.4l-1.7-1.7c-0.2-0.2-0.2-0.4,0-0.6l1.7-1.7c0.2-0.2,0.4-0.2,0.6,0l1.7,1.7
			c0.2,0.2,0.2,0.4,0,0.6l-1.7,1.7C1923.1,12.6,1922.8,12.6,1922.7,12.4z"/>
		<path id="XMLID_2055_" class="st0" d="M1922.7-36.9l-1.7-1.7c-0.2-0.2-0.2-0.4,0-0.6l1.7-1.7c0.2-0.2,0.4-0.2,0.6,0l1.7,1.7
			c0.2,0.2,0.2,0.4,0,0.6l-1.7,1.7C1923.1-36.7,1922.8-36.7,1922.7-36.9z"/>
		<path id="XMLID_2054_" class="st0" d="M1920.5,79.9l2.3-2.3c0.2-0.2,0.5-0.2,0.7,0l2.3,2.3c0.2,0.2,0.2,0.5,0,0.7l-2.3,2.3
			c-0.2,0.2-0.5,0.2-0.7,0l-2.3-2.3C1920.3,80.5,1920.3,80.1,1920.5,79.9z"/>
		<polygon class="st0" points="1923.3,20.4 1922.8,20.4 1922.8,-1.8 1924.7,-1.8 1924.7,-1.3 1923.3,-1.3 		"/>
		<polygon class="st0" points="1926.8,-4.4 1922.7,-12.6 1922.7,-38.2 1923.2,-38.2 1923.2,-12.7 1927.3,-4.6 		"/>
		<polygon class="st0" points="1890.3,139.3 1869.7,139.3 1869.7,138.8 1890.2,138.8 1898.2,134.8 1898.4,135.2 		"/>
		<polygon class="st0" points="1774.7,203.2 1774.2,203.2 1774.3,179.5 1778.3,171.4 1778.8,171.6 1774.7,179.6 		"/>
		<path class="st0" d="M1868,143.6h-10.4l-2-1.9v-4.9l2-2.2h10.4l1.9,2.2v4.9L1868,143.6z M1857.8,143.1h10l1.6-1.6V137l-1.6-1.9
			h-9.9l-1.7,1.9v4.5L1857.8,143.1z"/>
		<path class="st0" d="M1777.7,217.2h-4.9l-2.2-2v-10.4l2.2-1.9h4.9l1.9,1.9v10.4L1777.7,217.2z M1773,216.7h4.5l1.6-1.7v-10
			l-1.6-1.6h-4.5l-1.9,1.6v9.9L1773,216.7z"/>
		<rect x="1890.3" y="-39.1" class="st0" width="32.7" height="0.5"/>
		<path class="st0" d="M1850.3,143.3l-1.7-7.4l-2,6.7c0,0.1-0.1,0.2-0.2,0.2l0,0c-0.1,0-0.2-0.1-0.2-0.2l-1.6-6.6l-1.7,7.3l-0.5-0.1
			l1.9-8.3c0-0.1,0.1-0.2,0.2-0.2l0,0c0.1,0,0.2,0.1,0.2,0.2l1.6,6.8l2-6.8c0-0.1,0.1-0.2,0.2-0.2l0,0c0.1,0,0.2,0.1,0.2,0.2
			l1.9,8.3L1850.3,143.3z"/>
		<path class="st0" d="M1779.2,234.8l-8.3-1.9c-0.1,0-0.2-0.1-0.2-0.2s0.1-0.2,0.2-0.2l6.8-1.6l-6.8-2c-0.1,0-0.2-0.1-0.2-0.2
			c0-0.1,0.1-0.2,0.2-0.2l8.3-1.9l0.1,0.5l-7.4,1.7l6.7,2c0.1,0,0.2,0.1,0.2,0.2s-0.1,0.2-0.2,0.2l-6.6,1.6l7.3,1.7L1779.2,234.8z"
			/>
		<text id="XMLID_2052_" transform="matrix(1 0 0 1 1943.9517 -15.0435)" class="st0 st1 st2">110047</text>
		<text id="XMLID_2050_" transform="matrix(1 0 0 1 1899.115 164.8774)" class="st0 st1 st2">11047</text>
		<text id="XMLID_2048_" transform="matrix(1 0 0 1 1885.1254 130.4718)" class="st0 st1 st2">11071</text>
		<text id="XMLID_2046_" transform="matrix(1 0 0 1 1868.6349 164.8778)" class="st0 st1 st2">110717</text>
		<text id="XMLID_2044_" transform="matrix(1 0 0 1 1869.2681 726.4668)" class="st0 st1 st2">110417</text>
		<text id="XMLID_2042_" transform="matrix(1 0 0 1 1898.4982 726.4664)" class="st0 st1 st2">11027</text>
		<text id="XMLID_2040_" transform="matrix(1 0 0 1 1937.6962 643.0904)" class="st0 st1 st2">110027</text>
		<text id="XMLID_2038_" transform="matrix(1 0 0 1 1897.0728 664.7671)" class="st0 st1 st2">11002</text>
		<text id="XMLID_2036_" transform="matrix(1 0 0 1 1881.6743 759.7081)" class="st0 st1 st2">11041</text>
		<text id="XMLID_2034_" transform="matrix(1 0 0 1 1781.0065 722.3479)" class="st0 st1 st2">11411</text>
		<text id="XMLID_2032_" transform="matrix(1 0 0 1 1794.4132 189.0837)" class="st0 st1 st2">1171177</text>
		<text id="XMLID_2030_" transform="matrix(1 0 0 1 1779.8711 169.0926)" class="st0 st1 st2">11711</text>
		<text id="XMLID_2028_" transform="matrix(1 0 0 1 1793.4127 274.8784)" class="st0 st1 st2">117127</text>
		<text id="XMLID_2026_" transform="matrix(1 0 0 1 1793.4128 617.9105)" class="st0 st1 st2">114127</text>
		<text id="XMLID_2024_" transform="matrix(1 0 0 1 1795.4127 702.5383)" class="st0 st1 st2">114117</text>
		<text id="XMLID_2022_" transform="matrix(1 0 0 1 1899.8961 -1.7145)" class="st0 st1 st2">11004</text>
		<path id="XMLID_2021_" class="st0" d="M1920.5,138.7l2.3-2.3c0.2-0.2,0.5-0.2,0.7,0l2.3,2.3c0.2,0.2,0.2,0.5,0,0.7l-2.3,2.3
			c-0.2,0.2-0.5,0.2-0.7,0l-2.3-2.3C1920.3,139.2,1920.3,138.9,1920.5,138.7z"/>
		<path id="XMLID_2020_" class="st0" d="M1771.9,138.7l2.3-2.3c0.2-0.2,0.5-0.2,0.7,0l2.3,2.3c0.2,0.2,0.2,0.5,0,0.7l-2.3,2.3
			c-0.2,0.2-0.5,0.2-0.7,0l-2.3-2.3C1771.7,139.2,1771.7,138.9,1771.9,138.7z"/>
		<path id="XMLID_2019_" class="st0" d="M1689.5,138.7l2.3-2.3c0.2-0.2,0.5-0.2,0.7,0l2.3,2.3c0.2,0.2,0.2,0.5,0,0.7l-2.3,2.3
			c-0.2,0.2-0.5,0.2-0.7,0l-2.3-2.3C1689.3,139.2,1689.3,138.9,1689.5,138.7z"/>
		<path id="XMLID_2018_" class="st0" d="M1605.5,138.7l2.3-2.3c0.2-0.2,0.5-0.2,0.7,0l2.3,2.3c0.2,0.2,0.2,0.5,0,0.7l-2.3,2.3
			c-0.2,0.2-0.5,0.2-0.7,0l-2.3-2.3C1605.3,139.2,1605.3,138.9,1605.5,138.7z"/>
		<g>
			<rect x="1900.4" y="10.1" class="st0" width="22.5" height="0.5"/>
			<path class="st0" d="M1909.4,12.8h-13.7V8.1h13.7V12.8z M1896.2,12.3h12.7V8.6h-12.7V12.3z"/>
			<rect id="XMLID_2017_" x="1904.3" y="11.4" class="st0" width="1.9" height="1.2"/>
			<rect id="XMLID_2016_" x="1904.3" y="8.6" class="st0" width="1.9" height="1.2"/>
			<rect id="XMLID_2015_" x="1902.1" y="9.5" class="st0" width="2.2" height="1.9"/>
			<rect x="1893.1" y="10.1" class="st0" width="2.8" height="0.8"/>
			<rect x="1892.4" y="7.9" class="st0" width="0.8" height="5.2"/>
			<rect x="1891.2" y="8.9" class="st0" width="0.8" height="3.2"/>
			<rect x="1889.9" y="9.3" class="st0" width="0.8" height="2.2"/>
		</g>
		<g id="XMLID_2014_">
			<rect x="1791.2" y="185" class="st0" width="0.8" height="1.8"/>
			<rect x="1789.8" y="184.2" class="st0" width="0.8" height="3.3"/>
			<rect x="1788.5" y="183.5" class="st0" width="0.8" height="4.7"/>
			<polygon class="st0" points="1788.5,186.4 1785.4,186.4 1781.8,182.8 1782.3,182.3 1785.7,185.6 1788.5,185.6 			"/>
		</g>
		<g id="XMLID_2013_">
			<rect x="1791.2" y="271.5" class="st0" width="0.8" height="1.8"/>
			<rect x="1789.8" y="270.7" class="st0" width="0.8" height="3.3"/>
			<rect x="1788.5" y="270" class="st0" width="0.8" height="4.7"/>
			<polygon class="st0" points="1788.5,272.9 1785.4,272.9 1781.8,269.4 1782.3,268.8 1785.7,272.1 1788.5,272.1 			"/>
		</g>
		<g id="XMLID_2012_">
			<rect x="1673.7" y="155.1" class="st0" width="0.8" height="1.8"/>
			<rect x="1675" y="154.3" class="st0" width="0.8" height="3.3"/>
			<rect x="1676.4" y="153.6" class="st0" width="0.8" height="4.7"/>
			<polygon class="st0" points="1680.3,156.5 1677.1,156.5 1677.1,155.7 1680,155.7 1683.3,152.4 1683.8,153 			"/>
		</g>
		<g id="XMLID_2011_">
			<rect x="1774" y="416.4" class="st0" width="1.8" height="0.8"/>
			<rect x="1773.2" y="415.1" class="st0" width="3.3" height="0.8"/>
			<rect x="1772.5" y="413.7" class="st0" width="4.7" height="0.8"/>
			<polygon class="st0" points="1775.1,413.7 1774.3,413.7 1774.3,410.6 1777.8,407 1778.4,407.5 1775.1,410.9 			"/>
		</g>
		<g id="XMLID_2010_">
			<rect x="1881.3" y="155.6" class="st0" width="1.8" height="0.8"/>
			<rect x="1880.5" y="154.3" class="st0" width="3.3" height="0.8"/>
			<rect x="1879.8" y="152.9" class="st0" width="4.7" height="0.8"/>
			<polygon class="st0" points="1882.4,152.9 1881.7,152.9 1881.7,149.8 1885.2,146.2 1885.7,146.7 1882.4,150.1 			"/>
		</g>
		<g id="XMLID_2009_">
			<rect x="1910.2" y="155.6" class="st0" width="1.8" height="0.8"/>
			<rect x="1909.4" y="154.3" class="st0" width="3.3" height="0.8"/>
			<rect x="1908.7" y="152.9" class="st0" width="4.7" height="0.8"/>
			<polygon class="st0" points="1911.3,152.9 1910.6,152.9 1910.6,149.8 1914.1,146.2 1914.6,146.7 1911.3,150.1 			"/>
		</g>
		<g id="XMLID_2008_">
			<rect x="1940.4" y="-18.2" class="st0" width="0.8" height="1.8"/>
			<rect x="1939" y="-18.9" class="st0" width="0.8" height="3.3"/>
			<rect x="1937.7" y="-19.7" class="st0" width="0.8" height="4.7"/>
			<polygon class="st0" points="1931.5,-13.8 1931,-14.3 1934.5,-17.8 1937.7,-17.8 1937.7,-17.1 1934.8,-17.1 			"/>
		</g>
		<polygon class="st0" points="1927.8,-16.9 1927.3,-16.9 1927.3,-18.2 1924.6,-18.2 1924.6,-18.7 1927.8,-18.7 		"/>
		<g>
			<path id="XMLID_2007_" class="st0" d="M1908.7,138.8l1.7-1.7c0.2-0.2,0.4-0.2,0.6,0l1.7,1.7c0.2,0.2,0.2,0.4,0,0.6l-1.7,1.7
				c-0.2,0.2-0.4,0.2-0.6,0l-1.7-1.7C1908.6,139.2,1908.6,138.9,1908.7,138.8z"/>
			<polygon class="st0" points="1912.3,144.2 1910.4,144.2 1910.4,141.1 1910.9,141.1 1910.9,143.7 1912.3,143.7 			"/>
		</g>
		<g>
			<polygon class="st0" points="1776.1,169.6 1774.2,169.6 1774.2,133.5 1774.7,133.5 1774.7,169.1 1776.1,169.1 			"/>
		</g>
		<g>
			<path id="XMLID_2006_" class="st0" d="M1880.3,138.8l1.7-1.7c0.2-0.2,0.4-0.2,0.6,0l1.7,1.7c0.2,0.2,0.2,0.4,0,0.6l-1.7,1.7
				c-0.2,0.2-0.4,0.2-0.6,0l-1.7-1.7C1880.1,139.2,1880.1,138.9,1880.3,138.8z"/>
			<polygon class="st0" points="1883.9,144.2 1882,144.2 1882,141.1 1882.5,141.1 1882.5,143.7 1883.9,143.7 			"/>
		</g>
		<g>
			<path id="XMLID_2005_" class="st0" d="M1774.8,187.8l-1.7-1.7c-0.2-0.2-0.2-0.4,0-0.6l1.7-1.7c0.2-0.2,0.4-0.2,0.6,0l1.7,1.7
				c0.2,0.2,0.2,0.4,0,0.6l-1.7,1.7C1775.3,188,1775,188,1774.8,187.8z"/>
			<polygon class="st0" points="1780.3,186.1 1777.1,186.1 1777.1,185.6 1779.8,185.6 1779.8,184.2 1780.3,184.2 			"/>
		</g>
		<g>
			<path id="XMLID_2004_" class="st0" d="M1774.8,273.9l-1.7-1.7c-0.2-0.2-0.2-0.4,0-0.6l1.7-1.7c0.2-0.2,0.4-0.2,0.6,0l1.7,1.7
				c0.2,0.2,0.2,0.4,0,0.6l-1.7,1.7C1775.3,274,1775,274,1774.8,273.9z"/>
			<polygon class="st0" points="1780.3,272.1 1777.1,272.1 1777.1,271.6 1779.8,271.6 1779.8,270.3 1780.3,270.3 			"/>
		</g>
		<g>
			<path id="XMLID_2003_" class="st0" d="M1774.8,291.2l-1.7-1.7c-0.2-0.2-0.2-0.4,0-0.6l1.7-1.7c0.2-0.2,0.4-0.2,0.6,0l1.7,1.7
				c0.2,0.2,0.2,0.4,0,0.6l-1.7,1.7C1775.3,291.4,1775,291.4,1774.8,291.2z"/>
		</g>
		<polygon class="st0" points="1921.9,139.3 1898.7,139.3 1898.7,137.4 1899.2,137.4 1899.2,138.8 1921.9,138.8 		"/>
		<rect x="1906.6" y="-41.9" class="st0" width="0.5" height="6.5"/>
		<rect x="1904" y="-41.9" class="st0" width="0.5" height="6.5"/>
		<rect x="1895.6" y="-42.1" class="st0" width="0.5" height="6.5"/>
		<rect x="1893" y="-42.1" class="st0" width="0.5" height="6.5"/>
		<rect x="1890" y="-41.9" class="st0" width="0.5" height="6.5"/>
		<rect x="1888.8" y="-40.9" class="st0" width="0.5" height="4.5"/>
		<rect x="1887.4" y="-39.9" class="st0" width="0.5" height="2.5"/>
		<g>
			<path class="st0" d="M1900.4-24.3c-2.2,0-3.9-1.8-3.9-3.9s1.8-3.9,3.9-3.9s3.9,1.8,3.9,3.9S1902.5-24.3,1900.4-24.3z
				 M1900.4-31.6c-1.9,0-3.4,1.5-3.4,3.4s1.5,3.4,3.4,3.4s3.4-1.5,3.4-3.4S1902.2-31.6,1900.4-31.6z"/>
			<polygon class="st0" points="1898.8,-25.9 1898.5,-26.3 1900.2,-27.9 1901.8,-26.5 1901.5,-26.1 1900.2,-27.2 			"/>
			<rect x="1900" y="-38.8" class="st0" width="0.5" height="11.2"/>
		</g>
		<g>
			<path class="st0" d="M1906.2-24.3c-2.2,0-3.9-1.8-3.9-3.9s1.8-3.9,3.9-3.9s3.9,1.8,3.9,3.9S1908.3-24.3,1906.2-24.3z
				 M1906.2-31.6c-1.9,0-3.4,1.5-3.4,3.4s1.5,3.4,3.4,3.4s3.4-1.5,3.4-3.4S1908.1-31.6,1906.2-31.6z"/>
			<polygon class="st0" points="1904.9,-27.5 1904.6,-27.9 1906.3,-29.5 1907.9,-28.1 1907.6,-27.7 1906.3,-28.8 			"/>
			<rect x="1906.1" y="-30.3" class="st0" width="0.5" height="1.2"/>
		</g>
		<g>
			<path class="st0" d="M1904-20.6c-2.2,0-3.9-1.8-3.9-3.9s1.8-3.9,3.9-3.9s3.9,1.8,3.9,3.9S1906.2-20.6,1904-20.6z M1904-27.9
				c-1.9,0-3.4,1.5-3.4,3.4s1.5,3.4,3.4,3.4s3.4-1.5,3.4-3.4S1905.9-27.9,1904-27.9z"/>
			<polygon class="st0" points="1902.8,-23.9 1902.4,-24.2 1904.1,-25.8 1905.7,-24.4 1905.4,-24 1904.2,-25.1 			"/>
			<rect x="1903.9" y="-26.7" class="st0" width="0.5" height="1.2"/>
		</g>
		<g>
			<path class="st0" d="M1898.2-20.1c-2.2,0-3.9-1.8-3.9-3.9s1.8-3.9,3.9-3.9s3.9,1.8,3.9,3.9S1900.4-20.1,1898.2-20.1z
				 M1898.2-27.5c-1.9,0-3.4,1.5-3.4,3.4s1.5,3.4,3.4,3.4s3.4-1.5,3.4-3.4C1901.6-25.9,1900.1-27.5,1898.2-27.5z"/>
			<polygon class="st0" points="1896.9,-23.4 1896.6,-23.7 1898.3,-25.3 1899.9,-23.9 1899.6,-23.6 1898.3,-24.7 			"/>
			<rect x="1898.1" y="-26.2" class="st0" width="0.5" height="1.2"/>
		</g>
		<g>
			<path class="st0" d="M1894.5-24.3c-2.2,0-3.9-1.8-3.9-3.9s1.8-3.9,3.9-3.9s3.9,1.8,3.9,3.9S1896.7-24.3,1894.5-24.3z
				 M1894.5-31.6c-1.9,0-3.4,1.5-3.4,3.4s1.5,3.4,3.4,3.4s3.4-1.5,3.4-3.4S1896.4-31.6,1894.5-31.6z"/>
			<polygon class="st0" points="1893.3,-27.5 1892.9,-27.9 1894.7,-29.5 1896.3,-28.1 1895.9,-27.7 1894.7,-28.8 			"/>
			<rect x="1894.4" y="-30.3" class="st0" width="0.5" height="1.2"/>
		</g>
		<rect x="1822.9" y="138.8" class="st0" width="33" height="0.5"/>
		<text transform="matrix(1 0 0 1 1551.3575 153.1361)" class="st0 st3 st4">4号主变</text>
		<text transform="matrix(1 0 0 1 1541.1576 166.3361)" class="st0 st3 st4">110千伏七母</text>
		<text transform="matrix(1 0 0 1 1904.8949 213.4248)" class="st0 st3 st4">4号主变</text>
		<text transform="matrix(1 0 0 1 1899.6949 226.6248)" class="st0 st3 st4">110千伏侧</text>
		<text transform="matrix(1 0 0 1 1906.5804 834.4429)" class="st0 st3 st4">2号主变</text>
		<text transform="matrix(1 0 0 1 1901.3805 847.6429)" class="st0 st3 st4">110千伏侧</text>
		<g id="XMLID_1995_">
			<text transform="matrix(1 0 0 1 1801.1465 338.8414)" class="st0 st3 st4">4号主变71</text>
			<text transform="matrix(1 0 0 1 1803.8464 352.4236)" class="st0 st3 st4">号电容器</text>
			<text transform="matrix(1 0 0 1 1810.7465 365.2414)" class="st0 st3 st4">1171C</text>
		</g>
		<g id="XMLID_1993_">
			<text transform="matrix(1 0 0 1 1796.4346 537.1343)" class="st0 st3 st4">2号主变41</text>
			<text transform="matrix(1 0 0 1 1799.1345 550.7165)" class="st0 st3 st4">号电容器</text>
			<text transform="matrix(1 0 0 1 1806.0345 563.5343)" class="st0 st3 st4">1141C</text>
		</g>
		<text transform="matrix(1 0 0 1 1710.3245 537.1343)" class="st0 st3 st4">2号主变42</text>
		<text transform="matrix(1 0 0 1 1713.0244 550.7165)" class="st0 st3 st4">号电容器</text>
		<text transform="matrix(1 0 0 1 1719.9244 563.5343)" class="st0 st3 st4">1142C</text>
		<text transform="matrix(1 0 0 1 1618.9751 537.1345)" class="st0 st3 st4">2号主变43</text>
		<text transform="matrix(1 0 0 1 1621.675 550.7167)" class="st0 st3 st4">号电容器</text>
		<text transform="matrix(1 0 0 1 1629.0751 563.5345)" class="st0 st3 st4">1142L</text>
		<text transform="matrix(1 0 0 1 1530.0015 747.4106)" class="st0 st3 st4">2号主变</text>
		<text transform="matrix(1 0 0 1 1519.8015 760.6106)" class="st0 st3 st4">110千伏四母</text>
		<text id="XMLID_1985_" transform="matrix(1 0 0 1 1851.4786 130.4243)" class="st0 st5 st6">1107</text>
		<text id="XMLID_1983_" transform="matrix(1 0 0 1 1849.9513 738.5844)" class="st0 st5 st6">1104</text>
		<text id="XMLID_1981_" transform="matrix(1 0 0 1 1784.1219 215.0866)" class="st0 st5 st6">1171</text>
		<text id="XMLID_1979_" transform="matrix(1 0 0 1 1783.1219 681.8905)" class="st0 st5 st6">1141</text>
		<text id="XMLID_1977_" transform="matrix(1 0 0 1 1699.6891 681.8912)" class="st0 st5 st6">1142</text>
		<text id="XMLID_1975_" transform="matrix(1 0 0 1 1615.3428 681.8906)" class="st0 st5 st6">1143</text>
		<polygon class="st0" points="1774.7,304.7 1774.2,304.7 1774.2,249.2 1767.3,249.2 1767.3,248.7 1774.7,248.7 		"/>
		<path class="st0" d="M1774.5,256.3c-4.1,0-7.4-3.3-7.4-7.4h0.5c0,3.8,3.1,6.9,6.9,6.9s6.9-3.1,6.9-6.9s-3.1-6.9-6.9-6.9h-0.3v-25
			h0.5v24.6c4,0.1,7.1,3.4,7.1,7.4C1781.8,253,1778.5,256.3,1774.5,256.3z"/>
		<g>
			<rect x="1758" y="288.9" class="st0" width="18.5" height="0.5"/>
			<path class="st0" d="M1767,291.6h-13.7v-4.7h13.7V291.6z M1753.8,291.1h12.7v-3.7h-12.7V291.1z"/>
			<rect id="XMLID_1974_" x="1761.8" y="290.2" class="st0" width="1.9" height="1.2"/>
			<rect id="XMLID_1973_" x="1761.8" y="287.4" class="st0" width="1.9" height="1.2"/>
			<rect id="XMLID_1972_" x="1759.7" y="288.3" class="st0" width="2.2" height="1.9"/>
			<rect x="1750.7" y="288.9" class="st0" width="2.8" height="0.8"/>
			<rect x="1750" y="286.7" class="st0" width="0.8" height="5.2"/>
			<rect x="1748.7" y="287.7" class="st0" width="0.8" height="3.2"/>
			<rect x="1747.5" y="288.1" class="st0" width="0.8" height="2.2"/>
		</g>
		<g>
			<path class="st0" d="M1772.8,326.8L1772.8,326.8c-0.1,0-0.2-0.1-0.2-0.2l-1.9-8.9l0.5-0.1l1.7,7.9l1.9-7.3c0-0.1,0.1-0.2,0.2-0.2
				l0,0c0.1,0,0.2,0.1,0.2,0.2l1.8,7.3l2-7.9l0.5,0.1l-2.3,8.9c0,0.1-0.1,0.2-0.2,0.2l0,0c-0.1,0-0.2-0.1-0.2-0.2l-1.8-7.4l-1.9,7.4
				C1773,326.7,1772.9,326.8,1772.8,326.8z"/>
			<path class="st0" d="M1789.7,340.1h-29.4c-0.1,0-0.3-0.1-0.3-0.3v-7.1h0.5v6.8h28.9v-6.8h0.5v7.1
				C1789.9,340,1789.8,340.1,1789.7,340.1z"/>
			<rect x="1789.4" y="316.3" class="st0" width="0.5" height="9.4"/>
			<path class="st0" d="M1789.9,309.2h-0.5V305h-28.9v4.2h-0.5v-4.5c0-0.1,0.1-0.3,0.3-0.3h29.4c0.1,0,0.3,0.1,0.3,0.3v4.5H1789.9z"
				/>
			<rect x="1760.1" y="316.3" class="st0" width="0.5" height="9.4"/>
			<rect id="XMLID_1971_" x="1784.7" y="331.7" class="st0" width="9.2" height="2.1"/>
			<rect id="XMLID_1970_" x="1784.7" y="325.4" class="st0" width="9.2" height="2.1"/>
			<rect id="XMLID_1969_" x="1784.7" y="316.2" class="st0" width="9.2" height="2.1"/>
			<rect id="XMLID_1968_" x="1784.7" y="309" class="st0" width="9.2" height="2.1"/>
			<rect id="XMLID_1967_" x="1756" y="331.7" class="st0" width="8.6" height="2.1"/>
			<rect id="XMLID_1966_" x="1756" y="325.4" class="st0" width="8.6" height="2.1"/>
			<rect id="XMLID_1965_" x="1756" y="316.2" class="st0" width="8.6" height="2.1"/>
			<rect id="XMLID_1964_" x="1756" y="309" class="st0" width="8.6" height="2.1"/>
			<rect x="1760.3" y="321.9" class="st0" width="29.2" height="0.5"/>
		</g>
		<g>
			<path class="st0" d="M1772.8,373.1L1772.8,373.1c-0.1,0-0.2-0.1-0.2-0.2l-1.9-8.9l0.5-0.1l1.7,7.9l1.9-7.3c0-0.1,0.1-0.2,0.2-0.2
				l0,0c0.1,0,0.2,0.1,0.2,0.2l1.8,7.3l2-7.9l0.5,0.1l-2.3,8.9c0,0.1-0.1,0.2-0.2,0.2l0,0c-0.1,0-0.2-0.1-0.2-0.2l-1.8-7.4l-1.9,7.4
				C1773,373,1772.9,373.1,1772.8,373.1z"/>
			<path class="st0" d="M1789.7,386.4h-29.4c-0.1,0-0.3-0.1-0.3-0.3V379h0.5v6.8h28.9V379h0.5v7.1
				C1789.9,386.3,1789.8,386.4,1789.7,386.4z"/>
			<rect x="1789.4" y="362.6" class="st0" width="0.5" height="9.4"/>
			<path class="st0" d="M1789.9,355.5h-0.5v-4.2h-28.9v4.2h-0.5V351c0-0.1,0.1-0.3,0.3-0.3h29.4c0.1,0,0.3,0.1,0.3,0.3v4.5H1789.9z"
				/>
			<rect x="1760.1" y="362.6" class="st0" width="0.5" height="9.4"/>
			<rect id="XMLID_1963_" x="1784.7" y="378" class="st0" width="9.2" height="2.1"/>
			<rect id="XMLID_1962_" x="1784.7" y="371.7" class="st0" width="9.2" height="2.1"/>
			<rect id="XMLID_1961_" x="1784.7" y="362.5" class="st0" width="9.2" height="2.1"/>
			<rect id="XMLID_1960_" x="1784.7" y="355.3" class="st0" width="9.2" height="2.1"/>
			<rect id="XMLID_1959_" x="1756" y="378" class="st0" width="8.6" height="2.1"/>
			<rect id="XMLID_1958_" x="1756" y="371.7" class="st0" width="8.6" height="2.1"/>
			<rect id="XMLID_1957_" x="1756" y="362.5" class="st0" width="8.6" height="2.1"/>
			<rect id="XMLID_1956_" x="1756" y="355.3" class="st0" width="8.6" height="2.1"/>
			<rect x="1760.3" y="368.2" class="st0" width="29.2" height="0.5"/>
		</g>
		<rect x="1774.7" y="339.8" class="st0" width="0.5" height="11.2"/>
		<path class="st0" d="M1776.5,404.7h-1.4c-0.1,0-0.3-0.1-0.3-0.3v-18.3h0.5v18.1h1.2L1776.5,404.7L1776.5,404.7z"/>
		<path class="st0" d="M1779.2,396.6h-9.1c-0.1,0-0.3-0.1-0.3-0.3v-3.2h0.5v2.9h8.6v-2.9h0.5v3.2
			C1779.5,396.4,1779.3,396.6,1779.2,396.6z"/>
		<g>
			<text transform="matrix(1 0 0 1 1783.0284 407.3459)" class="st0 st1 st2">117127</text>
			<text transform="matrix(1 0 0 1 1783.0284 417.1481)" class="st0 st7 st2">（</text>
			<text transform="matrix(1 0 0 1 1790.4285 416.3459)" class="st0 st1 st2">N</text>
			<text transform="matrix(1 0 0 1 1794.9285 417.1481)" class="st0 st7 st2">相）</text>
		</g>
		<polygon class="st0" points="1691.7,203.6 1691.2,203.6 1691.2,179.9 1695.3,171.9 1695.8,172.1 1691.7,180.1 		"/>
		<path class="st0" d="M1694.7,217.7h-4.9l-2.2-2v-10.4l2.2-1.9h4.9l1.9,1.9v10.4L1694.7,217.7z M1690,217.2h4.5l1.6-1.7v-10
			l-1.6-1.6h-4.5l-1.9,1.6v9.9L1690,217.2z"/>
		<path class="st0" d="M1696.1,235.2l-8.3-1.9c-0.1,0-0.2-0.1-0.2-0.2s0.1-0.2,0.2-0.2l6.8-1.6l-6.8-2c-0.1,0-0.2-0.1-0.2-0.2
			c0-0.1,0.1-0.2,0.2-0.2l8.3-1.9l0.1,0.5l-7.4,1.7l6.7,2c0.1,0,0.2,0.1,0.2,0.2s-0.1,0.2-0.2,0.2l-6.6,1.6l7.3,1.7L1696.1,235.2z"
			/>
		<text id="XMLID_1954_" transform="matrix(1 0 0 1 1695.3853 169.0931)" class="st0 st1 st2">11721</text>
		<text id="XMLID_1952_" transform="matrix(1 0 0 1 1655.2749 158.3068)" class="st0 st1 st2">1177</text>
		<text id="XMLID_1950_" transform="matrix(1 0 0 1 1712.3853 189.0855)" class="st0 st1 st2">117217</text>
		<text id="XMLID_1948_" transform="matrix(1 0 0 1 1612.1879 169.093)" class="st0 st1 st2">11731</text>
		<text id="XMLID_1946_" transform="matrix(1 0 0 1 1629.5629 189.0854)" class="st0 st1 st2">117317</text>
		<text id="XMLID_1944_" transform="matrix(1 0 0 1 1710.3853 275.3431)" class="st0 st1 st2">117227</text>
		<g id="XMLID_1943_">
			<rect x="1708.2" y="185.4" class="st0" width="0.8" height="1.8"/>
			<rect x="1706.8" y="184.7" class="st0" width="0.8" height="3.3"/>
			<rect x="1705.4" y="183.9" class="st0" width="0.8" height="4.7"/>
			<polygon class="st0" points="1705.5,186.8 1702.3,186.8 1698.8,183.3 1699.3,182.8 1702.6,186.1 1705.5,186.1 			"/>
		</g>
		<g id="XMLID_1942_">
			<rect x="1625.6" y="185.4" class="st0" width="0.8" height="1.8"/>
			<rect x="1624.2" y="184.7" class="st0" width="0.8" height="3.3"/>
			<rect x="1622.8" y="183.9" class="st0" width="0.8" height="4.7"/>
			<polygon class="st0" points="1622.9,186.8 1619.7,186.8 1616.2,183.3 1616.7,182.8 1620,186.1 1622.9,186.1 			"/>
		</g>
		<g id="XMLID_1941_">
			<rect x="1708.2" y="271.9" class="st0" width="0.8" height="1.8"/>
			<rect x="1706.8" y="271.2" class="st0" width="0.8" height="3.3"/>
			<rect x="1705.4" y="270.5" class="st0" width="0.8" height="4.7"/>
			<polygon class="st0" points="1705.5,273.3 1702.3,273.3 1698.8,269.8 1699.3,269.3 1702.6,272.6 1705.5,272.6 			"/>
		</g>
		<g id="XMLID_1940_">
			<rect x="1690.9" y="416.9" class="st0" width="1.8" height="0.8"/>
			<rect x="1690.2" y="415.5" class="st0" width="3.3" height="0.8"/>
			<rect x="1689.5" y="414.2" class="st0" width="4.7" height="0.8"/>
			<polygon class="st0" points="1692.1,414.2 1691.3,414.2 1691.3,411.1 1694.8,407.5 1695.3,408 1692.1,411.4 			"/>
		</g>
		<g>
			<polygon class="st0" points="1693.1,170.1 1691.2,170.1 1691.2,141.9 1691.7,141.9 1691.7,169.6 1693.1,169.6 			"/>
		</g>
		<g>
			<polygon class="st0" points="1609.7,170.1 1607.8,170.1 1607.8,141.9 1608.3,141.9 1608.3,169.6 1609.7,169.6 			"/>
		</g>
		<g>
			<path id="XMLID_1939_" class="st0" d="M1691.8,188.3l-1.7-1.7c-0.2-0.2-0.2-0.4,0-0.6l1.7-1.7c0.2-0.2,0.4-0.2,0.6,0l1.7,1.7
				c0.2,0.2,0.2,0.4,0,0.6l-1.7,1.7C1692.2,188.4,1692,188.4,1691.8,188.3z"/>
			<polygon class="st0" points="1697.2,186.6 1694.1,186.6 1694.1,186.1 1696.7,186.1 1696.7,184.7 1697.2,184.7 			"/>
		</g>
		<g>
			<path id="XMLID_1938_" class="st0" d="M1691.9,157.5l1.7-1.7c0.2-0.2,0.2-0.4,0-0.6l-1.7-1.7c-0.2-0.2-0.4-0.2-0.6,0l-1.7,1.7
				c-0.2,0.2-0.2,0.4,0,0.6l1.7,1.7C1691.5,157.7,1691.7,157.7,1691.9,157.5z"/>
			<polygon class="st0" points="1689.6,155.8 1686.4,155.8 1686.4,153.9 1686.9,153.9 1686.9,155.3 1689.6,155.3 			"/>
		</g>
		<g>
			<path id="XMLID_1937_" class="st0" d="M1691.8,274.3l-1.7-1.7c-0.2-0.2-0.2-0.4,0-0.6l1.7-1.7c0.2-0.2,0.4-0.2,0.6,0l1.7,1.7
				c0.2,0.2,0.2,0.4,0,0.6l-1.7,1.7C1692.2,274.5,1692,274.5,1691.8,274.3z"/>
			<polygon class="st0" points="1697.2,272.6 1694.1,272.6 1694.1,272.1 1696.7,272.1 1696.7,270.7 1697.2,270.7 			"/>
		</g>
		<g>
			<path id="XMLID_1936_" class="st0" d="M1691.8,291.7l-1.7-1.7c-0.2-0.2-0.2-0.4,0-0.6l1.7-1.7c0.2-0.2,0.4-0.2,0.6,0l1.7,1.7
				c0.2,0.2,0.2,0.4,0,0.6l-1.7,1.7C1692.2,291.9,1692,291.9,1691.8,291.7z"/>
		</g>
		<text transform="matrix(1 0 0 1 1709.8799 338.8413)" class="st0 st3 st4">4号主变72</text>
		<text transform="matrix(1 0 0 1 1712.5798 352.4235)" class="st0 st3 st4">号电容器</text>
		<text transform="matrix(1 0 0 1 1719.4799 365.2413)" class="st0 st3 st4">1172C</text>
		<g id="XMLID_1932_">
			<text transform="matrix(1 0 0 1 1615.8197 338.8412)" class="st0 st3 st4">4号主变73</text>
			<text transform="matrix(1 0 0 1 1618.5197 352.4234)" class="st0 st3 st4">号电容器</text>
			<text transform="matrix(1 0 0 1 1625.4197 365.2412)" class="st0 st3 st4">1173C</text>
		</g>
		<text id="XMLID_1930_" transform="matrix(1 0 0 1 1702.0945 215.0864)" class="st0 st5 st6">1172</text>
		<polygon class="st0" points="1691.7,305.2 1691.2,305.2 1691.2,249.7 1684.3,249.7 1684.3,249.2 1691.7,249.2 		"/>
		<polygon class="st0" points="1608.3,396.8 1607.8,396.8 1607.8,345.7 1600.9,345.7 1600.9,345.2 1608.3,345.2 		"/>
		<path class="st0" d="M1691.4,256.8c-4.1,0-7.4-3.3-7.4-7.4h0.5c0,3.8,3.1,6.9,6.9,6.9s6.9-3.1,6.9-6.9s-3.1-6.9-6.9-6.9h-0.3
			v-25.1h0.5V242c4,0.1,7.1,3.4,7.1,7.4C1698.8,253.5,1695.5,256.8,1691.4,256.8z"/>
		<polygon class="st0" points="1608.3,203.6 1607.8,203.6 1607.9,179.9 1611.9,171.9 1612.4,172.1 1608.3,180.1 		"/>
		<path class="st0" d="M1611.3,217.7h-4.9l-2.2-2v-10.4l2.2-1.9h4.9l1.9,1.9v10.4L1611.3,217.7z M1606.6,217.2h4.5l1.6-1.7v-10
			l-1.6-1.6h-4.5l-1.9,1.6v9.9L1606.6,217.2z"/>
		<path class="st0" d="M1612.8,233.1l-8.3-1.9c-0.1,0-0.2-0.1-0.2-0.2s0.1-0.2,0.2-0.2l6.8-1.6l-6.8-2c-0.1,0-0.2-0.1-0.2-0.2
			c0-0.1,0.1-0.2,0.2-0.2l8.3-1.9l0.1,0.5l-7.4,1.7l6.8,2c0.1,0,0.2,0.1,0.2,0.2s-0.1,0.2-0.2,0.2l-6.6,1.6l7.3,1.7L1612.8,233.1z"
			/>
		<g>
			<path id="XMLID_1929_" class="st0" d="M1608.3,188.3l-1.7-1.7c-0.2-0.2-0.2-0.4,0-0.6l1.7-1.7c0.2-0.2,0.4-0.2,0.6,0l1.7,1.7
				c0.2,0.2,0.2,0.4,0,0.6l-1.7,1.7C1608.8,188.4,1608.5,188.4,1608.3,188.3z"/>
			<polygon class="st0" points="1613.8,186.6 1610.6,186.6 1610.6,186.1 1613.3,186.1 1613.3,184.7 1613.8,184.7 			"/>
		</g>
		<path class="st0" d="M1608,352.7c-4.1,0-7.4-3.3-7.4-7.4h0.5c0,3.8,3.1,6.9,6.9,6.9s6.9-3.1,6.9-6.9s-3.1-6.9-6.9-6.9h-0.3v-121
			h0.5v120.5c4,0.1,7.1,3.4,7.1,7.4C1615.4,349.4,1612.1,352.7,1608,352.7z"/>
		<g>
			<rect x="1675" y="289.4" class="st0" width="18.5" height="0.5"/>
			<path class="st0" d="M1683.9,292.1h-13.7v-4.7h13.7V292.1z M1670.7,291.6h12.7v-3.7h-12.7V291.6z"/>
			<rect id="XMLID_1928_" x="1678.8" y="290.6" class="st0" width="1.9" height="1.2"/>
			<rect id="XMLID_1927_" x="1678.8" y="287.9" class="st0" width="1.9" height="1.2"/>
			<rect id="XMLID_1926_" x="1676.6" y="288.8" class="st0" width="2.2" height="1.9"/>
			<rect x="1667.7" y="289.4" class="st0" width="2.8" height="0.8"/>
			<rect x="1667" y="287.1" class="st0" width="0.8" height="5.2"/>
			<rect x="1665.7" y="288.1" class="st0" width="0.8" height="3.2"/>
			<rect x="1664.4" y="288.6" class="st0" width="0.8" height="2.2"/>
		</g>
		<g>
			<rect x="1589.6" y="288.2" class="st0" width="18.5" height="0.5"/>
			<path class="st0" d="M1598.5,291h-13.7v-4.7h13.7V291z M1585.3,290.5h12.7v-3.7h-12.7V290.5z"/>
			<rect id="XMLID_1925_" x="1593.4" y="289.5" class="st0" width="1.9" height="1.2"/>
			<rect id="XMLID_1924_" x="1593.4" y="286.7" class="st0" width="1.9" height="1.2"/>
			<rect id="XMLID_1923_" x="1591.2" y="287.6" class="st0" width="2.2" height="1.9"/>
			<rect x="1582.3" y="288.2" class="st0" width="2.8" height="0.8"/>
			<rect x="1581.6" y="286" class="st0" width="0.8" height="5.2"/>
			<rect x="1580.3" y="287" class="st0" width="0.8" height="3.2"/>
			<rect x="1579" y="287.5" class="st0" width="0.8" height="2.2"/>
		</g>
		<g>
			<path class="st0" d="M1689.8,327.3L1689.8,327.3c-0.1,0-0.2-0.1-0.2-0.2l-1.9-8.9l0.5-0.1l1.7,7.9l1.9-7.3c0-0.1,0.1-0.2,0.2-0.2
				l0,0c0.1,0,0.2,0.1,0.2,0.2l1.8,7.3l2-7.9l0.5,0.1l-2.3,8.9c0,0.1-0.1,0.2-0.2,0.2l0,0c-0.1,0-0.2-0.1-0.2-0.2l-1.8-7.4l-1.9,7.4
				C1690,327.2,1689.9,327.3,1689.8,327.3z"/>
			<path class="st0" d="M1706.7,340.5h-29.4c-0.1,0-0.3-0.1-0.3-0.3v-7.1h0.5v6.8h28.9v-6.8h0.5v7.1
				C1706.9,340.4,1706.8,340.5,1706.7,340.5z"/>
			<rect x="1706.4" y="316.7" class="st0" width="0.5" height="9.4"/>
			<path class="st0" d="M1706.9,309.7h-0.5v-4.2h-28.9v4.2h-0.5v-4.5c0-0.1,0.1-0.3,0.3-0.3h29.4c0.1,0,0.3,0.1,0.3,0.3v4.5H1706.9z
				"/>
			<rect x="1677" y="316.7" class="st0" width="0.5" height="9.4"/>
			<rect id="XMLID_1922_" x="1701.7" y="332.1" class="st0" width="9.2" height="2.1"/>
			<rect id="XMLID_1921_" x="1701.7" y="325.9" class="st0" width="9.2" height="2.1"/>
			<rect id="XMLID_1920_" x="1701.7" y="316.6" class="st0" width="9.2" height="2.1"/>
			<rect id="XMLID_1919_" x="1701.7" y="309.5" class="st0" width="9.2" height="2.1"/>
			<rect id="XMLID_1918_" x="1673" y="332.1" class="st0" width="8.6" height="2.1"/>
			<rect id="XMLID_1917_" x="1673" y="325.9" class="st0" width="8.6" height="2.1"/>
			<rect id="XMLID_1916_" x="1673" y="316.6" class="st0" width="8.6" height="2.1"/>
			<rect id="XMLID_1915_" x="1673" y="309.5" class="st0" width="8.6" height="2.1"/>
			<rect x="1677.3" y="322.3" class="st0" width="29.2" height="0.5"/>
		</g>
		<g>
			<path class="st0" d="M1689.8,373.6L1689.8,373.6c-0.1,0-0.2-0.1-0.2-0.2l-1.9-8.9l0.5-0.1l1.7,7.9l1.9-7.3c0-0.1,0.1-0.2,0.2-0.2
				l0,0c0.1,0,0.2,0.1,0.2,0.2l1.8,7.3l2-7.9l0.5,0.1l-2.3,8.9c0,0.1-0.1,0.2-0.2,0.2l0,0c-0.1,0-0.2-0.1-0.2-0.2l-1.8-7.4l-1.9,7.4
				C1690,373.5,1689.9,373.6,1689.8,373.6z"/>
			<path class="st0" d="M1706.7,386.9h-29.4c-0.1,0-0.3-0.1-0.3-0.3v-7.1h0.5v6.8h28.9v-6.8h0.5v7.1
				C1706.9,386.7,1706.8,386.9,1706.7,386.9z"/>
			<rect x="1706.4" y="363.1" class="st0" width="0.5" height="9.4"/>
			<path class="st0" d="M1706.9,356h-0.5v-4.2h-28.9v4.2h-0.5v-4.5c0-0.1,0.1-0.3,0.3-0.3h29.4c0.1,0,0.3,0.1,0.3,0.3v4.5H1706.9z"
				/>
			<rect x="1677" y="363.1" class="st0" width="0.5" height="9.4"/>
			<rect id="XMLID_1914_" x="1701.7" y="378.4" class="st0" width="9.2" height="2.1"/>
			<rect id="XMLID_1913_" x="1701.7" y="372.2" class="st0" width="9.2" height="2.1"/>
			<rect id="XMLID_1912_" x="1701.7" y="362.9" class="st0" width="9.2" height="2.1"/>
			<rect id="XMLID_1911_" x="1701.7" y="355.8" class="st0" width="9.2" height="2.1"/>
			<rect id="XMLID_1910_" x="1673" y="378.4" class="st0" width="8.6" height="2.1"/>
			<rect id="XMLID_1909_" x="1673" y="372.2" class="st0" width="8.6" height="2.1"/>
			<rect id="XMLID_1908_" x="1673" y="362.9" class="st0" width="8.6" height="2.1"/>
			<rect id="XMLID_1907_" x="1673" y="355.8" class="st0" width="8.6" height="2.1"/>
			<rect x="1677.3" y="368.6" class="st0" width="29.2" height="0.5"/>
		</g>
		<rect x="1691.6" y="340.3" class="st0" width="0.5" height="11.2"/>
		<path class="st0" d="M1693.5,405.2h-1.4c-0.1,0-0.3-0.1-0.3-0.3v-18.3h0.5v18.1h1.2L1693.5,405.2L1693.5,405.2z"/>
		<path class="st0" d="M1696.2,397h-9.1c-0.1,0-0.3-0.1-0.3-0.3v-3.2h0.5v2.9h8.6v-2.9h0.5v3.2C1696.4,396.9,1696.3,397,1696.2,397z
			"/>
		<g>
			<text transform="matrix(1 0 0 1 1699.001 407.3457)" class="st0 st1 st2">117227</text>
			<text transform="matrix(1 0 0 1 1699.001 417.1479)" class="st0 st7 st2">（</text>
			<text transform="matrix(1 0 0 1 1706.401 416.3457)" class="st0 st1 st2">N</text>
			<text transform="matrix(1 0 0 1 1710.901 417.1479)" class="st0 st7 st2">相）</text>
		</g>
		<g>
			<text transform="matrix(1 0 0 1 1698.001 481.3999)" class="st0 st1 st2">114227</text>
			<text transform="matrix(1 0 0 1 1698.001 491.2021)" class="st0 st7 st2">（</text>
			<text transform="matrix(1 0 0 1 1705.401 490.3999)" class="st0 st1 st2">N</text>
			<text transform="matrix(1 0 0 1 1709.901 491.2021)" class="st0 st7 st2">相）</text>
		</g>
		<g>
			<text transform="matrix(1 0 0 1 1781.0284 481.4001)" class="st0 st1 st2">114127</text>
			<text transform="matrix(1 0 0 1 1781.0284 491.2023)" class="st0 st7 st2">（</text>
			<text transform="matrix(1 0 0 1 1788.4285 490.4001)" class="st0 st1 st2">N</text>
			<text transform="matrix(1 0 0 1 1792.9285 491.2023)" class="st0 st7 st2">相）</text>
		</g>
		<g>
			<path id="XMLID_1906_" class="st0" d="M1608.3,290.6l-1.7-1.7c-0.2-0.2-0.2-0.4,0-0.6l1.7-1.7c0.2-0.2,0.4-0.2,0.6,0l1.7,1.7
				c0.2,0.2,0.2,0.4,0,0.6l-1.7,1.7C1608.8,290.7,1608.5,290.7,1608.3,290.6z"/>
		</g>
		<polygon class="st0" points="1617.7,397 1598,397 1598,393.6 1598.5,393.6 1598.5,396.5 1617.2,396.5 1617.2,393.6 1617.7,393.6 
					"/>
		<rect x="1922.5" y="691.2" class="st0" width="2" height="130"/>
		<rect x="1568.9" y="747.7" class="st0" width="254" height="2"/>
		<g>
			<rect x="1923.5" y="748.4" class="st0" width="41.8" height="0.5"/>
		</g>
		<path id="XMLID_1905_" class="st0" d="M1920.5,807.8l2.3,2.3c0.2,0.2,0.5,0.2,0.7,0l2.3-2.3c0.2-0.2,0.2-0.5,0-0.7l-2.3-2.3
			c-0.2-0.2-0.5-0.2-0.7,0l-2.3,2.3C1920.3,807.3,1920.3,807.6,1920.5,807.8z"/>
		<polygon class="st0" points="1889.7,748.6 1869,748.6 1869,748.1 1889.6,748.1 1897.6,744 1897.8,744.5 		"/>
		<polygon class="st0" points="1777.7,716.4 1773.6,708.2 1773.6,684.6 1774.1,684.6 1774.1,708.1 1778.2,716.1 		"/>
		<path class="st0" d="M1867.4,753.2H1857l-2-2.2v-4.9l2-1.9h10.4l1.9,1.9v4.9L1867.4,753.2z M1857.2,752.7h9.9l1.6-1.9v-4.5
			l-1.6-1.6h-10l-1.7,1.6v4.5L1857.2,752.7z"/>
		<path class="st0" d="M1777.1,684.8h-4.9l-2.2-1.9v-10.4l2.2-2h4.9l1.9,2v10.4L1777.1,684.8z M1772.4,684.3h4.5l1.6-1.6v-10
			l-1.6-1.7h-4.5l-1.9,1.7v9.9L1772.4,684.3z"/>
		<path class="st0" d="M1844,753.1L1844,753.1c-0.1,0-0.2-0.1-0.2-0.2l-1.9-8.3l0.5-0.1l1.7,7.3l1.6-6.6c0-0.1,0.1-0.2,0.2-0.2l0,0
			c0.1,0,0.2,0.1,0.2,0.2l2,6.7l1.7-7.4l0.5,0.1l-1.9,8.3c0,0.1-0.1,0.2-0.2,0.2l0,0c-0.1,0-0.2-0.1-0.2-0.2l-2-6.8l-1.6,6.8
			C1844.2,753,1844.1,753.1,1844,753.1z"/>
		<path class="st0" d="M1778.5,661.4l-8.3-1.9c-0.1,0-0.2-0.1-0.2-0.2c0-0.1,0.1-0.2,0.2-0.2l6.8-2l-6.8-1.6c-0.1,0-0.2-0.1-0.2-0.2
			s0.1-0.2,0.2-0.2l8.3-1.9l0.1,0.5l-7.3,1.7l6.6,1.6c0.1,0,0.2,0.1,0.2,0.2s-0.1,0.2-0.2,0.2l-6.8,2l7.4,1.7L1778.5,661.4z"/>
		<path id="XMLID_1904_" class="st0" d="M1920.5,749l2.3,2.3c0.2,0.2,0.5,0.2,0.7,0l2.3-2.3c0.2-0.2,0.2-0.5,0-0.7l-2.3-2.3
			c-0.2-0.2-0.5-0.2-0.7,0l-2.3,2.3C1920.3,748.5,1920.3,748.8,1920.5,749z"/>
		<path id="XMLID_1903_" class="st0" d="M1920.5,690l2.3,2.3c0.2,0.2,0.5,0.2,0.7,0l2.3-2.3c0.2-0.2,0.2-0.5,0-0.7l-2.3-2.3
			c-0.2-0.2-0.5-0.2-0.7,0l-2.3,2.3C1920.3,689.4,1920.3,689.8,1920.5,690z"/>
		<path id="XMLID_1902_" class="st0" d="M1771.2,749l2.3,2.3c0.2,0.2,0.5,0.2,0.7,0l2.3-2.3c0.2-0.2,0.2-0.5,0-0.7l-2.3-2.3
			c-0.2-0.2-0.5-0.2-0.7,0l-2.3,2.3C1771,748.5,1771,748.8,1771.2,749z"/>
		<path id="XMLID_1901_" class="st0" d="M1688.9,749l2.3,2.3c0.2,0.2,0.5,0.2,0.7,0l2.3-2.3c0.2-0.2,0.2-0.5,0-0.7l-2.3-2.3
			c-0.2-0.2-0.5-0.2-0.7,0l-2.3,2.3C1688.7,748.5,1688.7,748.8,1688.9,749z"/>
		<path id="XMLID_1900_" class="st0" d="M1604.8,749l2.3,2.3c0.2,0.2,0.5,0.2,0.7,0l2.3-2.3c0.2-0.2,0.2-0.5,0-0.7l-2.3-2.3
			c-0.2-0.2-0.5-0.2-0.7,0l-2.3,2.3C1604.6,748.5,1604.6,748.8,1604.8,749z"/>
		<g id="XMLID_1899_">
			<rect x="1790.6" y="614.5" class="st0" width="0.8" height="1.8"/>
			<rect x="1789.2" y="613.8" class="st0" width="0.8" height="3.3"/>
			<rect x="1787.8" y="613" class="st0" width="0.8" height="4.7"/>
			<polygon class="st0" points="1781.7,618.9 1781.2,618.4 1784.7,614.9 1787.9,614.9 1787.9,615.6 1785,615.6 			"/>
		</g>
		<g id="XMLID_1898_">
			<rect x="1673" y="730.9" class="st0" width="0.8" height="1.8"/>
			<rect x="1674.4" y="730.1" class="st0" width="0.8" height="3.3"/>
			<rect x="1675.8" y="729.4" class="st0" width="0.8" height="4.7"/>
			<polygon class="st0" points="1682.7,735.3 1679.3,732 1676.5,732 1676.5,731.3 1679.7,731.3 1683.2,734.8 			"/>
		</g>
		<g id="XMLID_1897_">
			<rect x="1773.4" y="470.5" class="st0" width="1.8" height="0.8"/>
			<rect x="1772.6" y="471.9" class="st0" width="3.3" height="0.8"/>
			<rect x="1771.9" y="473.3" class="st0" width="4.7" height="0.8"/>
			<polygon class="st0" points="1777.2,480.7 1773.7,477.2 1773.7,474 1774.5,474 1774.5,476.9 1777.8,480.2 			"/>
		</g>
		<g id="XMLID_1896_">
			<rect x="1880.7" y="731.1" class="st0" width="1.8" height="0.8"/>
			<rect x="1879.9" y="732.5" class="st0" width="3.3" height="0.8"/>
			<rect x="1879.2" y="733.9" class="st0" width="4.7" height="0.8"/>
			<polygon class="st0" points="1884.5,741.3 1881,737.7 1881,734.6 1881.8,734.6 1881.8,737.4 1885.1,740.8 			"/>
		</g>
		<g id="XMLID_1895_">
			<rect x="1909.5" y="730.2" class="st0" width="1.8" height="0.8"/>
			<rect x="1908.7" y="731.6" class="st0" width="3.3" height="0.8"/>
			<rect x="1908" y="733" class="st0" width="4.7" height="0.8"/>
			<polygon class="st0" points="1913.3,740.4 1909.8,736.8 1909.8,733.7 1910.6,733.7 1910.6,736.5 1913.9,739.9 			"/>
		</g>
		<g id="XMLID_1894_">
			<rect x="1940.4" y="648.1" class="st0" width="0.8" height="1.8"/>
			<rect x="1939" y="647.4" class="st0" width="0.8" height="3.3"/>
			<rect x="1937.7" y="646.6" class="st0" width="0.8" height="4.7"/>
			<polygon class="st0" points="1931.5,652.5 1931,652 1934.5,648.5 1937.7,648.5 1937.7,649.2 1934.8,649.2 			"/>
		</g>
		<g>
			<path id="XMLID_1893_" class="st0" d="M1908.1,749l1.7,1.7c0.2,0.2,0.4,0.2,0.6,0l1.7-1.7c0.2-0.2,0.2-0.4,0-0.6l-1.7-1.7
				c-0.2-0.2-0.4-0.2-0.6,0l-1.7,1.7C1907.9,748.5,1907.9,748.8,1908.1,749z"/>
			<polygon class="st0" points="1910.3,746.7 1909.8,746.7 1909.8,743.5 1911.7,743.5 1911.7,744 1910.3,744 			"/>
		</g>
		<g>
			<polygon class="st0" points="1774.1,748.3 1773.6,748.3 1773.6,718.1 1775.5,718.1 1775.5,718.6 1774.1,718.6 			"/>
		</g>
		<g>
			<path id="XMLID_1892_" class="st0" d="M1879.7,749l1.7,1.7c0.2,0.2,0.4,0.2,0.6,0l1.7-1.7c0.2-0.2,0.2-0.4,0-0.6l-1.7-1.7
				c-0.2-0.2-0.4-0.2-0.6,0l-1.7,1.7C1879.5,748.5,1879.5,748.8,1879.7,749z"/>
			<polygon class="st0" points="1881.9,746.7 1881.4,746.7 1881.4,743.5 1883.3,743.5 1883.3,744 1881.9,744 			"/>
		</g>
		<g>
			<path id="XMLID_1891_" class="st0" d="M1774.2,699.9l-1.7,1.7c-0.2,0.2-0.2,0.4,0,0.6l1.7,1.7c0.2,0.2,0.4,0.2,0.6,0l1.7-1.7
				c0.2-0.2,0.2-0.4,0-0.6l-1.7-1.7C1774.6,699.8,1774.4,699.8,1774.2,699.9z"/>
			<polygon class="st0" points="1779.7,703.6 1779.2,703.6 1779.2,702.2 1776.5,702.2 1776.5,701.7 1779.7,701.7 			"/>
		</g>
		<g>
			<path id="XMLID_1890_" class="st0" d="M1774.2,613.9l-1.7,1.7c-0.2,0.2-0.2,0.4,0,0.6l1.7,1.7c0.2,0.2,0.4,0.2,0.6,0l1.7-1.7
				c0.2-0.2,0.2-0.4,0-0.6l-1.7-1.7C1774.6,613.7,1774.4,613.7,1774.2,613.9z"/>
			<polygon class="st0" points="1779.7,617.5 1779.2,617.5 1779.2,616.1 1776.5,616.1 1776.5,615.6 1779.7,615.6 			"/>
		</g>
		<g>
			<path id="XMLID_1889_" class="st0" d="M1774.2,596.5l-1.7,1.7c-0.2,0.2-0.2,0.4,0,0.6l1.7,1.7c0.2,0.2,0.4,0.2,0.6,0l1.7-1.7
				c0.2-0.2,0.2-0.4,0-0.6l-1.7-1.7C1774.6,596.4,1774.4,596.4,1774.2,596.5z"/>
		</g>
		<polygon class="st0" points="1921.3,748.6 1898.1,748.6 1898.1,746.7 1898.6,746.7 1898.6,748.1 1921.3,748.1 		"/>
		<g>
			<path id="XMLID_1888_" class="st0" d="M1922.8,649.9l-1.7-1.7c-0.2-0.2-0.2-0.4,0-0.6l1.7-1.7c0.2-0.2,0.4-0.2,0.6,0l1.7,1.7
				c0.2,0.2,0.2,0.4,0,0.6l-1.7,1.7C1923.3,650.1,1923,650.1,1922.8,649.9z"/>
			<path id="XMLID_1887_" class="st0" d="M1922.8,678.7l-1.7-1.7c-0.2-0.2-0.2-0.4,0-0.6l1.7-1.7c0.2-0.2,0.4-0.2,0.6,0l1.7,1.7
				c0.2,0.2,0.2,0.4,0,0.6l-1.7,1.7C1923.3,678.9,1923,678.9,1922.8,678.7z"/>
			<path id="XMLID_1886_" class="st0" d="M1922.8,629.4l-1.7-1.7c-0.2-0.2-0.2-0.4,0-0.6l1.7-1.7c0.2-0.2,0.4-0.2,0.6,0l1.7,1.7
				c0.2,0.2,0.2,0.4,0,0.6l-1.7,1.7C1923.3,629.6,1923,629.6,1922.8,629.4z"/>
			<polygon class="st0" points="1923.5,686.7 1923,686.7 1923,664.5 1924.9,664.5 1924.9,665 1923.5,665 			"/>
			<polygon class="st0" points="1927,661.9 1922.9,653.7 1922.9,628.1 1923.4,628.1 1923.4,653.6 1927.4,661.7 			"/>
			<rect x="1890.5" y="627.2" class="st0" width="32.7" height="0.5"/>
			<g>
				<rect x="1900.6" y="676.4" class="st0" width="22.5" height="0.5"/>
				<path class="st0" d="M1909.5,679.1h-13.7v-4.7h13.7V679.1z M1896.3,678.6h12.7v-3.7h-12.7V678.6z"/>
				<rect id="XMLID_1885_" x="1904.4" y="677.7" class="st0" width="1.9" height="1.2"/>
				<rect id="XMLID_1884_" x="1904.4" y="674.9" class="st0" width="1.9" height="1.2"/>
				<rect id="XMLID_1883_" x="1902.2" y="675.8" class="st0" width="2.2" height="1.9"/>
				<rect x="1893.3" y="676.4" class="st0" width="2.8" height="0.8"/>
				<rect x="1892.6" y="674.2" class="st0" width="0.8" height="5.2"/>
				<rect x="1891.3" y="675.2" class="st0" width="0.8" height="3.2"/>
				<rect x="1890" y="675.6" class="st0" width="0.8" height="2.2"/>
			</g>
			<polygon class="st0" points="1927.9,649.5 1927.4,649.5 1927.4,648.1 1924.8,648.1 1924.8,647.6 1927.9,647.6 			"/>
			<rect x="1906.7" y="624.4" class="st0" width="0.5" height="6.5"/>
			<rect x="1904.2" y="624.4" class="st0" width="0.5" height="6.5"/>
			<rect x="1895.7" y="624.2" class="st0" width="0.5" height="6.5"/>
			<rect x="1893.1" y="624.2" class="st0" width="0.5" height="6.5"/>
			<rect x="1890.2" y="624.4" class="st0" width="0.5" height="6.5"/>
			<rect x="1888.9" y="625.4" class="st0" width="0.5" height="4.5"/>
			<rect x="1887.6" y="626.4" class="st0" width="0.5" height="2.5"/>
			<g>
				<path class="st0" d="M1900.5,642c-2.2,0-3.9-1.8-3.9-3.9s1.8-3.9,3.9-3.9s3.9,1.8,3.9,3.9S1902.7,642,1900.5,642z M1900.5,634.7
					c-1.9,0-3.4,1.5-3.4,3.4s1.5,3.4,3.4,3.4s3.4-1.5,3.4-3.4S1902.4,634.7,1900.5,634.7z"/>
				<polygon class="st0" points="1899,640.4 1898.7,640 1900.4,638.4 1902,639.8 1901.6,640.2 1900.4,639.1 				"/>
				<rect x="1900.1" y="627.6" class="st0" width="0.5" height="11.2"/>
			</g>
			<g>
				<path class="st0" d="M1906.3,642c-2.2,0-3.9-1.8-3.9-3.9s1.8-3.9,3.9-3.9s3.9,1.8,3.9,3.9S1908.5,642,1906.3,642z M1906.3,634.7
					c-1.9,0-3.4,1.5-3.4,3.4s1.5,3.4,3.4,3.4s3.4-1.5,3.4-3.4S1908.2,634.7,1906.3,634.7z"/>
				<polygon class="st0" points="1905.1,638.8 1904.7,638.4 1906.4,636.8 1908,638.2 1907.7,638.6 1906.5,637.5 				"/>
				<rect x="1906.2" y="636" class="st0" width="0.5" height="1.2"/>
			</g>
			<g>
				<path class="st0" d="M1904.2,645.7c-2.2,0-3.9-1.8-3.9-3.9s1.8-3.9,3.9-3.9s3.9,1.8,3.9,3.9S1906.3,645.7,1904.2,645.7z
					 M1904.2,638.4c-1.9,0-3.4,1.5-3.4,3.4s1.5,3.4,3.4,3.4s3.4-1.5,3.4-3.4S1906.1,638.4,1904.2,638.4z"/>
				<polygon class="st0" points="1902.9,642.4 1902.6,642.1 1904.3,640.5 1905.9,641.9 1905.6,642.3 1904.3,641.2 				"/>
				<rect x="1904" y="639.6" class="st0" width="0.5" height="1.2"/>
			</g>
			<g>
				<path class="st0" d="M1898.3,646.2c-2.2,0-3.9-1.8-3.9-3.9s1.8-3.9,3.9-3.9s3.9,1.8,3.9,3.9S1900.5,646.2,1898.3,646.2z
					 M1898.3,638.8c-1.9,0-3.4,1.5-3.4,3.4s1.5,3.4,3.4,3.4s3.4-1.5,3.4-3.4C1901.8,640.4,1900.2,638.8,1898.3,638.8z"/>
				<polygon class="st0" points="1897.1,642.9 1896.7,642.6 1898.5,641 1900.1,642.4 1899.7,642.7 1898.5,641.6 				"/>
				<rect x="1898.2" y="640.1" class="st0" width="0.5" height="1.2"/>
			</g>
			<g>
				<path class="st0" d="M1894.7,642c-2.2,0-3.9-1.8-3.9-3.9s1.8-3.9,3.9-3.9s3.9,1.8,3.9,3.9S1896.8,642,1894.7,642z M1894.7,634.7
					c-1.9,0-3.4,1.5-3.4,3.4s1.5,3.4,3.4,3.4s3.4-1.5,3.4-3.4S1896.6,634.7,1894.7,634.7z"/>
				<polygon class="st0" points="1893.4,638.8 1893.1,638.4 1894.8,636.8 1896.4,638.2 1896.1,638.6 1894.8,637.5 				"/>
				<rect x="1894.6" y="636" class="st0" width="0.5" height="1.2"/>
			</g>
		</g>
		<rect x="1822.3" y="748.4" class="st0" width="33" height="0.5"/>
		<polygon class="st0" points="1774.1,639 1766.7,639 1766.7,638.5 1773.6,638.5 1773.6,583 1774.1,583 		"/>
		<path class="st0" d="M1774.1,670.8h-0.5v-25.1h0.3c3.8,0,6.9-3.1,6.9-6.9s-3.1-6.9-6.9-6.9s-6.9,3.1-6.9,6.9h-0.5
			c0-4.1,3.3-7.4,7.4-7.4s7.4,3.3,7.4,7.4c0,4-3.2,7.2-7.1,7.4v24.6H1774.1z"/>
		<g>
			<rect x="1757.4" y="598.3" class="st0" width="18.5" height="0.5"/>
			<path class="st0" d="M1766.3,600.8h-13.7v-4.7h13.7V600.8z M1753.1,600.3h12.7v-3.7h-12.7V600.3z"/>
			<rect id="XMLID_1882_" x="1761.2" y="596.4" class="st0" width="1.9" height="1.2"/>
			<rect id="XMLID_1881_" x="1761.2" y="599.1" class="st0" width="1.9" height="1.2"/>
			<rect id="XMLID_1880_" x="1759.1" y="597.6" class="st0" width="2.2" height="1.9"/>
			<rect x="1750.1" y="598.1" class="st0" width="2.8" height="0.8"/>
			<rect x="1749.4" y="595.9" class="st0" width="0.8" height="5.2"/>
			<rect x="1748.1" y="596.9" class="st0" width="0.8" height="3.2"/>
			<rect x="1746.8" y="597.4" class="st0" width="0.8" height="2.2"/>
		</g>
		<g>
			<path class="st0" d="M1778.4,570.2l-2-7.9l-1.8,7.3c0,0.1-0.1,0.2-0.2,0.2l0,0c-0.1,0-0.2-0.1-0.2-0.2l-1.9-7.3l-1.7,7.9
				l-0.5-0.1l1.9-8.9c0-0.1,0.1-0.2,0.2-0.2l0,0c0.1,0,0.2,0.1,0.2,0.2l1.9,7.4l1.8-7.4c0-0.1,0.1-0.2,0.2-0.2l0,0
				c0.1,0,0.2,0.1,0.2,0.2l2.3,8.9L1778.4,570.2z"/>
			<path class="st0" d="M1789.3,555h-0.5v-6.8H1760v6.8h-0.5v-7.1c0-0.1,0.1-0.3,0.3-0.3h29.4c0.1,0,0.3,0.1,0.3,0.3v7.1H1789.3z"/>
			<rect x="1788.8" y="562.1" class="st0" width="0.5" height="9.4"/>
			<path class="st0" d="M1789.1,583.3h-29.4c-0.1,0-0.3-0.1-0.3-0.3v-4.5h0.5v4.2h28.9v-4.2h0.5v4.5
				C1789.3,583.1,1789.2,583.3,1789.1,583.3z"/>
			<rect x="1759.5" y="562.1" class="st0" width="0.5" height="9.4"/>
			<rect id="XMLID_1879_" x="1784.1" y="554" class="st0" width="9.2" height="2.1"/>
			<rect id="XMLID_1878_" x="1784.1" y="560.2" class="st0" width="9.2" height="2.1"/>
			<rect id="XMLID_1877_" x="1784.1" y="569.5" class="st0" width="9.2" height="2.1"/>
			<rect id="XMLID_1876_" x="1784.1" y="576.6" class="st0" width="9.2" height="2.1"/>
			<rect id="XMLID_1875_" x="1755.4" y="554" class="st0" width="8.6" height="2.1"/>
			<rect id="XMLID_1874_" x="1755.4" y="560.2" class="st0" width="8.6" height="2.1"/>
			<rect id="XMLID_1873_" x="1755.4" y="569.5" class="st0" width="8.6" height="2.1"/>
			<rect id="XMLID_1872_" x="1755.4" y="576.6" class="st0" width="8.6" height="2.1"/>
			<rect x="1759.7" y="565.4" class="st0" width="29.2" height="0.5"/>
		</g>
		<g>
			<path class="st0" d="M1778.4,523.8l-2-7.9l-1.8,7.3c0,0.1-0.1,0.2-0.2,0.2l0,0c-0.1,0-0.2-0.1-0.2-0.2l-1.9-7.3l-1.7,7.9
				l-0.5-0.1l1.9-8.9c0-0.1,0.1-0.2,0.2-0.2l0,0c0.1,0,0.2,0.1,0.2,0.2l1.9,7.4l1.8-7.4c0-0.1,0.1-0.2,0.2-0.2l0,0
				c0.1,0,0.2,0.1,0.2,0.2l2.3,8.9L1778.4,523.8z"/>
			<path class="st0" d="M1789.3,508.7h-0.5v-6.8H1760v6.8h-0.5v-7.1c0-0.1,0.1-0.3,0.3-0.3h29.4c0.1,0,0.3,0.1,0.3,0.3v7.1H1789.3z"
				/>
			<rect x="1788.8" y="515.7" class="st0" width="0.5" height="9.4"/>
			<path class="st0" d="M1789.1,536.9h-29.4c-0.1,0-0.3-0.1-0.3-0.3v-4.5h0.5v4.2h28.9v-4.2h0.5v4.5
				C1789.3,536.8,1789.2,536.9,1789.1,536.9z"/>
			<rect x="1759.5" y="515.7" class="st0" width="0.5" height="9.4"/>
			<rect id="XMLID_1871_" x="1784.1" y="507.7" class="st0" width="9.2" height="2.1"/>
			<rect id="XMLID_1870_" x="1784.1" y="513.9" class="st0" width="9.2" height="2.1"/>
			<rect id="XMLID_1869_" x="1784.1" y="523.2" class="st0" width="9.2" height="2.1"/>
			<rect id="XMLID_1868_" x="1784.1" y="530.3" class="st0" width="9.2" height="2.1"/>
			<rect id="XMLID_1867_" x="1755.4" y="507.7" class="st0" width="8.6" height="2.1"/>
			<rect id="XMLID_1866_" x="1755.4" y="513.9" class="st0" width="8.6" height="2.1"/>
			<rect id="XMLID_1865_" x="1755.4" y="523.2" class="st0" width="8.6" height="2.1"/>
			<rect id="XMLID_1864_" x="1755.4" y="530.3" class="st0" width="8.6" height="2.1"/>
			<rect x="1759.7" y="519.1" class="st0" width="29.2" height="0.5"/>
		</g>
		<rect x="1774" y="536.7" class="st0" width="0.5" height="11.2"/>
		<path class="st0" d="M1774.7,501.6h-0.5v-18.3c0-0.1,0.1-0.3,0.3-0.3h1.4v0.5h-1.2L1774.7,501.6L1774.7,501.6z"/>
		<path class="st0" d="M1778.8,494.6h-0.5v-2.9h-8.6v2.9h-0.5v-3.2c0-0.1,0.1-0.3,0.3-0.3h9.1c0.1,0,0.3,0.1,0.3,0.3v3.2H1778.8z"/>
		<polygon class="st0" points="1694.7,715.9 1690.6,707.7 1690.6,684.1 1691.1,684.1 1691.1,707.6 1695.1,715.7 		"/>
		<path class="st0" d="M1694.1,684.3h-4.9l-2.2-1.9V672l2.2-2h4.9l1.9,2v10.4L1694.1,684.3z M1689.4,683.8h4.5l1.6-1.6v-10l-1.6-1.7
			h-4.5l-1.9,1.7v9.9L1689.4,683.8z"/>
		<path class="st0" d="M1695.5,660.9l-8.3-1.9c-0.1,0-0.2-0.1-0.2-0.2c0-0.1,0.1-0.2,0.2-0.2l6.8-2l-6.8-1.6c-0.1,0-0.2-0.1-0.2-0.2
			s0.1-0.2,0.2-0.2l8.3-1.9l0.1,0.5l-7.3,1.7l6.6,1.6c0.1,0,0.2,0.1,0.2,0.2s-0.1,0.2-0.2,0.2l-6.8,2l7.4,1.7L1695.5,660.9z"/>
		<g id="XMLID_1863_">
			<rect x="1707.6" y="699.7" class="st0" width="0.8" height="1.8"/>
			<rect x="1706.2" y="698.9" class="st0" width="0.8" height="3.3"/>
			<rect x="1704.8" y="698.2" class="st0" width="0.8" height="4.7"/>
			<polygon class="st0" points="1698.7,704.1 1698.1,703.5 1701.7,700 1704.9,700 1704.9,700.8 1702,700.8 			"/>
		</g>
		<g id="XMLID_1862_">
			<rect x="1792.3" y="699.7" class="st0" width="0.8" height="1.8"/>
			<rect x="1790.9" y="698.9" class="st0" width="0.8" height="3.3"/>
			<rect x="1789.5" y="698.2" class="st0" width="0.8" height="4.7"/>
			<polygon class="st0" points="1783.4,704.1 1782.9,703.5 1786.4,700 1789.6,700 1789.6,700.8 1786.7,700.8 			"/>
		</g>
		<g id="XMLID_1861_">
			<rect x="1626" y="699.7" class="st0" width="0.8" height="1.8"/>
			<rect x="1624.6" y="698.9" class="st0" width="0.8" height="3.3"/>
			<rect x="1623.2" y="698.2" class="st0" width="0.8" height="4.7"/>
			<polygon class="st0" points="1617.1,704.1 1616.5,703.5 1620.1,700 1623.3,700 1623.3,700.8 1620.4,700.8 			"/>
		</g>
		<g id="XMLID_1860_">
			<rect x="1707.6" y="614.1" class="st0" width="0.8" height="1.8"/>
			<rect x="1706.2" y="613.3" class="st0" width="0.8" height="3.3"/>
			<rect x="1704.8" y="612.6" class="st0" width="0.8" height="4.7"/>
			<polygon class="st0" points="1698.7,618.5 1698.1,617.9 1701.7,614.4 1704.9,614.4 1704.9,615.2 1702,615.2 			"/>
		</g>
		<g id="XMLID_1859_">
			<rect x="1690.3" y="470.1" class="st0" width="1.8" height="0.8"/>
			<rect x="1689.6" y="471.5" class="st0" width="3.3" height="0.8"/>
			<rect x="1688.8" y="472.8" class="st0" width="4.7" height="0.8"/>
			<polygon class="st0" points="1694.2,480.3 1690.7,476.7 1690.7,473.5 1691.4,473.5 1691.4,476.4 1694.7,479.7 			"/>
		</g>
		<g>
			<polygon class="st0" points="1691.1,745.8 1690.6,745.8 1690.6,717.6 1692.5,717.6 1692.5,718.1 1691.1,718.1 			"/>
		</g>
		<g>
			<polygon class="st0" points="1607.7,745.8 1607.2,745.8 1607.2,717.6 1609.1,717.6 1609.1,718.1 1607.7,718.1 			"/>
		</g>
		<g>
			<path id="XMLID_1858_" class="st0" d="M1691.2,699.5l-1.7,1.7c-0.2,0.2-0.2,0.4,0,0.6l1.7,1.7c0.2,0.2,0.4,0.2,0.6,0l1.7-1.7
				c0.2-0.2,0.2-0.4,0-0.6l-1.7-1.7C1691.6,699.3,1691.3,699.3,1691.2,699.5z"/>
			<polygon class="st0" points="1696.6,703.1 1696.1,703.1 1696.1,701.7 1693.5,701.7 1693.5,701.2 1696.6,701.2 			"/>
		</g>
		<g>
			<path id="XMLID_1857_" class="st0" d="M1691.3,730.2l1.7,1.7c0.2,0.2,0.2,0.4,0,0.6l-1.7,1.7c-0.2,0.2-0.4,0.2-0.6,0l-1.7-1.7
				c-0.2-0.2-0.2-0.4,0-0.6l1.7-1.7C1690.8,730.1,1691.1,730.1,1691.3,730.2z"/>
			<polygon class="st0" points="1686.3,733.9 1685.8,733.9 1685.8,732 1689,732 1689,732.5 1686.3,732.5 			"/>
		</g>
		<g>
			<path id="XMLID_1856_" class="st0" d="M1691.2,613.4l-1.7,1.7c-0.2,0.2-0.2,0.4,0,0.6l1.7,1.7c0.2,0.2,0.4,0.2,0.6,0l1.7-1.7
				c0.2-0.2,0.2-0.4,0-0.6l-1.7-1.7C1691.6,613.2,1691.3,613.2,1691.2,613.4z"/>
			<polygon class="st0" points="1696.6,617 1696.1,617 1696.1,615.6 1693.5,615.6 1693.5,615.1 1696.6,615.1 			"/>
		</g>
		<g>
			<path id="XMLID_1855_" class="st0" d="M1691.2,596.1l-1.7,1.7c-0.2,0.2-0.2,0.4,0,0.6l1.7,1.7c0.2,0.2,0.4,0.2,0.6,0l1.7-1.7
				c0.2-0.2,0.2-0.4,0-0.6l-1.7-1.7C1691.6,595.9,1691.3,595.9,1691.2,596.1z"/>
		</g>
		<polygon class="st0" points="1691.1,638.5 1683.7,638.5 1683.7,638 1690.6,638 1690.6,582.5 1691.1,582.5 		"/>
		<polygon class="st0" points="1607.7,542.5 1600.3,542.5 1600.3,542 1607.2,542 1607.2,491 1607.7,491 		"/>
		<path class="st0" d="M1691.1,670.3h-0.5v-25.1h0.3c3.8,0,6.9-3.1,6.9-6.9s-3.1-6.9-6.9-6.9s-6.9,3.1-6.9,6.9h-0.5
			c0-4.1,3.3-7.4,7.4-7.4s7.4,3.3,7.4,7.4c0,4-3.2,7.2-7.1,7.4v24.6H1691.1z"/>
		<polygon class="st0" points="1611.3,715.9 1607.2,707.7 1607.2,684.1 1607.7,684.1 1607.7,707.6 1611.8,715.7 		"/>
		<path class="st0" d="M1610.7,684.3h-4.9l-2.2-1.9V672l2.2-2h4.9l1.9,2v10.4L1610.7,684.3z M1606,683.8h4.5l1.6-1.6v-10l-1.6-1.7
			h-4.5l-1.9,1.7v9.9L1606,683.8z"/>
		<path class="st0" d="M1612.1,663l-8.3-1.9c-0.1,0-0.2-0.1-0.2-0.2c0-0.1,0.1-0.2,0.2-0.2l6.8-2l-6.8-1.6c-0.1,0-0.2-0.1-0.2-0.2
			s0.1-0.2,0.2-0.2l8.3-1.9l0.1,0.5l-7.3,1.7l6.6,1.6c0.1,0,0.2,0.1,0.2,0.2c0,0.1-0.1,0.2-0.2,0.2l-6.8,2l7.4,1.7L1612.1,663z"/>
		<g>
			<path id="XMLID_1854_" class="st0" d="M1607.7,699.5l-1.7,1.7c-0.2,0.2-0.2,0.4,0,0.6l1.7,1.7c0.2,0.2,0.4,0.2,0.6,0l1.7-1.7
				c0.2-0.2,0.2-0.4,0-0.6l-1.7-1.7C1608.2,699.3,1607.9,699.3,1607.7,699.5z"/>
			<polygon class="st0" points="1613.2,703.1 1612.7,703.1 1612.7,701.7 1610,701.7 1610,701.2 1613.2,701.2 			"/>
		</g>
		<path class="st0" d="M1607.7,670.3h-0.5v-121h0.3c3.8,0,6.9-3.1,6.9-6.9s-3.1-6.9-6.9-6.9s-6.9,3.1-6.9,6.9h-0.5
			c0-4.1,3.3-7.4,7.4-7.4s7.4,3.3,7.4,7.4c0,4-3.2,7.2-7.1,7.4v120.5H1607.7z"/>
		<g>
			<rect x="1674.4" y="597.8" class="st0" width="18.5" height="0.5"/>
			<path class="st0" d="M1683.3,600.3h-13.7v-4.7h13.7V600.3z M1670.1,599.8h12.7v-3.7h-12.7V599.8z"/>
			<rect id="XMLID_1853_" x="1678.2" y="595.9" class="st0" width="1.9" height="1.2"/>
			<rect id="XMLID_1852_" x="1678.2" y="598.7" class="st0" width="1.9" height="1.2"/>
			<rect id="XMLID_1851_" x="1676" y="597.1" class="st0" width="2.2" height="1.9"/>
			<rect x="1667.1" y="597.6" class="st0" width="2.8" height="0.8"/>
			<rect x="1666.4" y="595.4" class="st0" width="0.8" height="5.2"/>
			<rect x="1665.1" y="596.4" class="st0" width="0.8" height="3.2"/>
			<rect x="1663.8" y="596.9" class="st0" width="0.8" height="2.2"/>
		</g>
		<g>
			<rect x="1589" y="599" class="st0" width="18.5" height="0.5"/>
			<path class="st0" d="M1597.9,601.5h-13.7v-4.7h13.7V601.5z M1584.7,601h12.7v-3.7h-12.7V601z"/>
			<rect id="XMLID_1850_" x="1592.8" y="597" class="st0" width="1.9" height="1.2"/>
			<rect id="XMLID_1849_" x="1592.8" y="599.8" class="st0" width="1.9" height="1.2"/>
			<rect id="XMLID_1848_" x="1590.6" y="598.3" class="st0" width="2.2" height="1.9"/>
			<rect x="1581.6" y="598.8" class="st0" width="2.8" height="0.8"/>
			<rect x="1580.9" y="596.5" class="st0" width="0.8" height="5.2"/>
			<rect x="1579.7" y="597.5" class="st0" width="0.8" height="3.2"/>
			<rect x="1578.4" y="598.1" class="st0" width="0.8" height="2.2"/>
		</g>
		<g>
			<path class="st0" d="M1695.3,569.7l-2-7.9l-1.8,7.3c0,0.1-0.1,0.2-0.2,0.2l0,0c-0.1,0-0.2-0.1-0.2-0.2l-1.9-7.3l-1.7,7.9
				l-0.5-0.1l1.9-8.9c0-0.1,0.1-0.2,0.2-0.2l0,0c0.1,0,0.2,0.1,0.2,0.2l1.9,7.4l1.8-7.4c0-0.1,0.1-0.2,0.2-0.2l0,0
				c0.1,0,0.2,0.1,0.2,0.2l2.3,8.9L1695.3,569.7z"/>
			<path class="st0" d="M1706.3,554.5h-0.5v-6.8h-28.9v6.8h-0.5v-7.1c0-0.1,0.1-0.3,0.3-0.3h29.4c0.1,0,0.3,0.1,0.3,0.3v7.1H1706.3z
				"/>
			<rect x="1705.8" y="561.6" class="st0" width="0.5" height="9.4"/>
			<path class="st0" d="M1706,582.8h-29.4c-0.1,0-0.3-0.1-0.3-0.3V578h0.5v4.2h28.9V578h0.5v4.5
				C1706.3,582.7,1706.2,582.8,1706,582.8z"/>
			<rect x="1676.4" y="561.6" class="st0" width="0.5" height="9.4"/>
			<rect id="XMLID_1847_" x="1701" y="553.5" class="st0" width="9.2" height="2.1"/>
			<rect id="XMLID_1846_" x="1701" y="559.8" class="st0" width="9.2" height="2.1"/>
			<rect id="XMLID_1845_" x="1701" y="569" class="st0" width="9.2" height="2.1"/>
			<rect id="XMLID_1844_" x="1701" y="576.1" class="st0" width="9.2" height="2.1"/>
			<rect id="XMLID_1843_" x="1672.4" y="553.5" class="st0" width="8.6" height="2.1"/>
			<rect id="XMLID_1842_" x="1672.4" y="559.8" class="st0" width="8.6" height="2.1"/>
			<rect id="XMLID_1841_" x="1672.4" y="569" class="st0" width="8.6" height="2.1"/>
			<rect id="XMLID_1840_" x="1672.4" y="576.1" class="st0" width="8.6" height="2.1"/>
			<rect x="1676.7" y="564.9" class="st0" width="29.2" height="0.5"/>
		</g>
		<g>
			<path class="st0" d="M1695.3,523.4l-2-7.9l-1.8,7.3c0,0.1-0.1,0.2-0.2,0.2l0,0c-0.1,0-0.2-0.1-0.2-0.2l-1.9-7.3l-1.7,7.9
				l-0.5-0.1l1.9-8.9c0-0.1,0.1-0.2,0.2-0.2l0,0c0.1,0,0.2,0.1,0.2,0.2l1.9,7.4l1.8-7.4c0-0.1,0.1-0.2,0.2-0.2l0,0
				c0.1,0,0.2,0.1,0.2,0.2l2.3,8.9L1695.3,523.4z"/>
			<path class="st0" d="M1706.3,508.2h-0.5v-6.8h-28.9v6.8h-0.5v-7.1c0-0.1,0.1-0.3,0.3-0.3h29.4c0.1,0,0.3,0.1,0.3,0.3v7.1H1706.3z
				"/>
			<rect x="1705.8" y="515.3" class="st0" width="0.5" height="9.4"/>
			<path class="st0" d="M1706,536.5h-29.4c-0.1,0-0.3-0.1-0.3-0.3v-4.5h0.5v4.2h28.9v-4.2h0.5v4.5
				C1706.3,536.4,1706.2,536.5,1706,536.5z"/>
			<rect x="1676.4" y="515.3" class="st0" width="0.5" height="9.4"/>
			<rect id="XMLID_1839_" x="1701" y="507.2" class="st0" width="9.2" height="2.1"/>
			<rect id="XMLID_1838_" x="1701" y="513.4" class="st0" width="9.2" height="2.1"/>
			<rect id="XMLID_1837_" x="1701" y="522.7" class="st0" width="9.2" height="2.1"/>
			<rect id="XMLID_1836_" x="1701" y="529.8" class="st0" width="9.2" height="2.1"/>
			<rect id="XMLID_1835_" x="1672.4" y="507.2" class="st0" width="8.6" height="2.1"/>
			<rect id="XMLID_1834_" x="1672.4" y="513.4" class="st0" width="8.6" height="2.1"/>
			<rect id="XMLID_1833_" x="1672.4" y="522.7" class="st0" width="8.6" height="2.1"/>
			<rect id="XMLID_1832_" x="1672.4" y="529.8" class="st0" width="8.6" height="2.1"/>
			<rect x="1676.7" y="518.6" class="st0" width="29.2" height="0.5"/>
		</g>
		<rect x="1691" y="536.2" class="st0" width="0.5" height="11.2"/>
		<path class="st0" d="M1691.7,501.1h-0.5v-18.3c0-0.1,0.1-0.3,0.3-0.3h1.4v0.5h-1.2L1691.7,501.1L1691.7,501.1z"/>
		<path class="st0" d="M1695.8,494.1h-0.5v-2.9h-8.6v2.9h-0.5V491c0-0.1,0.1-0.3,0.3-0.3h9.1c0.1,0,0.3,0.1,0.3,0.3v3.1H1695.8z"/>
		<g>
			<path id="XMLID_1831_" class="st0" d="M1607.7,597.2l-1.7,1.7c-0.2,0.2-0.2,0.4,0,0.6l1.7,1.7c0.2,0.2,0.4,0.2,0.6,0l1.7-1.7
				c0.2-0.2,0.2-0.4,0-0.6l-1.7-1.7C1608.2,597,1607.9,597,1607.7,597.2z"/>
		</g>
		<polygon class="st0" points="1617.1,494.1 1616.6,494.1 1616.6,491.2 1597.9,491.2 1597.9,494.1 1597.4,494.1 1597.4,490.7 
			1617.1,490.7 		"/>
	</g>
</g>
</svg>
