<?xml version="1.0" encoding="utf-8"?>
<!-- Generator: Adobe Illustrator 22.1.0, SVG Export Plug-In . SVG Version: 6.00 Build 0)  -->
<svg version="1.1" id="站用电_x5F_复制" xmlns="http://www.w3.org/2000/svg" xmlns:xlink="http://www.w3.org/1999/xlink"
	 x="0px" y="0px" viewBox="0 0 1920 1080" style="enable-background:new 0 0 1920 1080;" xml:space="preserve">
<style type="text/css">
	.st0{fill:#38CF3B;}
	.st1{font-family:'STHeitiSC-Light';}
	.st2{font-size:9px;}
	.st3{font-size:8px;}
	.st4{font-size:10px;}
</style>
<rect x="927.2" y="411.2" class="st0" width="0.5" height="13.1"/>
<path class="st0" d="M929.9,429.1h-4.7v-13.7h4.7V429.1z M925.7,428.6h3.7v-12.7h-3.7V428.6z"/>
<rect id="XMLID_368_" x="928.4" y="418.6" class="st0" width="1.2" height="1.9"/>
<rect id="XMLID_367_" x="925.6" y="418.6" class="st0" width="1.2" height="1.9"/>
<rect id="XMLID_366_" x="926.5" y="420.5" class="st0" width="1.9" height="2.2"/>
<rect x="927.1" y="428.8" class="st0" width="0.8" height="2.8"/>
<rect x="924.9" y="431.6" class="st0" width="5.2" height="0.8"/>
<rect x="925.9" y="432.8" class="st0" width="3.2" height="0.8"/>
<rect x="926.4" y="434.1" class="st0" width="2.2" height="0.8"/>
<g id="XMLID_365_">
	<rect x="811.9" y="457.7" class="st0" width="19.6" height="0.5"/>
	<rect x="811.4" y="455.6" class="st0" width="0.8" height="4.7"/>
	<rect x="809.9" y="456.2" class="st0" width="0.8" height="3.4"/>
	<rect x="808.6" y="456.9" class="st0" width="0.8" height="2.1"/>
</g>
<path class="st0" d="M825.5,467.6c-5.4,0-9.7-4.4-9.7-9.7s4.4-9.7,9.7-9.7c5.4,0,9.7,4.4,9.7,9.7S830.9,467.6,825.5,467.6z
	 M825.5,449c-4.9,0-9,4-9,9s4,9,9,9s9-4,9-9S830.5,449,825.5,449z"/>
<path class="st0" d="M826,454.3c-5.7,0-10.3-4.6-10.3-10.3c0-5.7,4.6-10.3,10.3-10.3s10.3,4.6,10.3,10.3
	C836.3,449.7,831.7,454.3,826,454.3z M826,434.6c-5.2,0-9.5,4.3-9.5,9.5s4.3,9.5,9.5,9.5s9.5-4.3,9.5-9.5
	C835.5,438.8,831.3,434.6,826,434.6z"/>
<polygon class="st0" points="821.3,464 820.7,463.6 825.5,457.8 822.2,451.1 822.9,450.8 826.4,458 "/>
<path class="st0" d="M832.5,447.3h-14.3l7.9-11.3L832.5,447.3z M819.6,446.6h11.6l-5.2-9.1L819.6,446.6z"/>
<rect x="826.1" y="364.6" transform="matrix(0.5692 -0.8222 0.8222 0.5692 54.5608 837.314)" class="st0" width="0.5" height="4"/>
<path class="st0" d="M955.3,368l-0.3-0.4l3.1-2.2v-6.9H824.8v7c0,0.1,0,0.1-0.1,0.2l-2.9,2.3l-0.3-0.4l2.8-2.2v-7.1
	c0-0.1,0.1-0.3,0.3-0.3h133.8c0.1,0,0.3,0.1,0.3,0.3v7.3c0,0.1,0,0.2-0.1,0.2L955.3,368z"/>
<rect x="959.3" y="365.1" transform="matrix(0.7071 -0.7071 0.7071 0.7071 21.7286 785.8988)" class="st0" width="0.5" height="3.2"/>
<path class="st0" d="M955.8,370.8l-0.3-0.4l2.8-2c0.1-0.1,0.2-0.1,0.3,0l2.3,2l-0.3,0.4l-2.1-1.9L955.8,370.8z"/>
<path class="st0" d="M827.8,370.8l-3.1-1.9l-2.1,1.9l-0.3-0.4l2.3-2c0.1-0.1,0.2-0.1,0.3,0l3.3,2L827.8,370.8z"/>
<rect x="869.7" y="354.6" class="st0" width="0.5" height="8.5"/>
<rect x="936.4" y="354.6" class="st0" width="0.5" height="7.8"/>
<rect x="904.5" y="358.4" class="st0" width="0.5" height="21.9"/>
<rect x="957.9" y="368.6" class="st0" width="0.5" height="21.9"/>
<rect x="883.6" y="382.3" transform="matrix(0.6218 -0.7832 0.7832 0.6218 33.4606 837.4786)" class="st0" width="0.5" height="3.6"/>
<path class="st0" d="M924.8,386l-0.3-0.4l2.9-2.7v-2.4h-44.7v2.5c0,0.1,0,0.1-0.1,0.2l-2.8,2.3l-0.3-0.4l2.7-2.2v-2.6
	c0-0.1,0.1-0.3,0.3-0.3h45.2c0.1,0,0.3,0.1,0.3,0.3v2.8c0,0.1,0,0.1-0.1,0.2L924.8,386z"/>
<rect x="928.7" y="382.7" transform="matrix(0.7125 -0.7016 0.7016 0.7125 -2.8056 762.3701)" class="st0" width="0.5" height="3.9"/>
<path class="st0" d="M930.2,389.3l-2.7-2.7l-2.6,2.6l-0.4-0.4l2.8-2.8c0.1-0.1,0.3-0.1,0.4,0l2.9,2.9L930.2,389.3z"/>
<path class="st0" d="M885.1,388.8l-2.7-2.7l-2.6,2.6l-0.4-0.4l2.8-2.8c0.1-0.1,0.3-0.1,0.4,0l2.9,2.9L885.1,388.8z"/>
<rect x="824.9" y="369.4" class="st0" width="0.5" height="6.1"/>
<rect x="822.1" y="376.1" transform="matrix(0.7071 -0.7071 0.7071 0.7071 -24.363 693.9327)" class="st0" width="6.8" height="0.5"/>
<rect x="825.3" y="372.9" transform="matrix(0.7071 -0.7071 0.7071 0.7071 -24.2837 693.9413)" class="st0" width="0.5" height="6.8"/>
<path class="st0" d="M825.8,390.3h-0.5v-4.5v-0.1l3.3-6.4l0.4,0.2l-3.3,6.3L825.8,390.3L825.8,390.3z"/>
<path class="st0" d="M825.2,391.4c-0.1,0-0.1,0-0.2-0.1l-2.8-2.5l0.3-0.4l2.6,2.4l2.6-2.4l0.3,0.4l-2.8,2.5
	C825.3,391.4,825.2,391.4,825.2,391.4z"/>
<path class="st0" d="M825.5,394.3c-0.1,0-0.1,0-0.2-0.1l-3.1-2.9l0.3-0.4l2.9,2.7l2.2-2.3l0.4,0.3l-2.4,2.5
	C825.7,394.3,825.6,394.3,825.5,394.3z"/>
<rect x="824.9" y="393.7" class="st0" width="0.5" height="41.1"/>
<path class="st0" d="M829.5,405.4l-9-2.1c-0.1,0-0.2-0.1-0.2-0.2s0.1-0.2,0.2-0.2l7.2-1.7l-7.2-1.5c-0.1,0-0.2-0.1-0.2-0.2
	s0.1-0.2,0.2-0.2l9-2.1l0.1,0.5l-7.9,1.8l7.1,1.5c0.1,0,0.2,0.1,0.2,0.2s-0.1,0.2-0.2,0.2l-7.2,1.8l8,1.9L829.5,405.4z"/>
<rect x="826" y="566.6" class="st0" width="0.5" height="28"/>
<path class="st0" d="M830.7,577l-9-2.1c-0.1,0-0.2-0.1-0.2-0.2c0-0.1,0.1-0.2,0.2-0.2l7.2-1.7l-7.2-1.5c-0.1,0-0.2-0.1-0.2-0.2
	c0-0.1,0.1-0.2,0.2-0.2l9-2.1l0.1,0.5l-7.9,1.8l7.1,1.5c0.1,0,0.2,0.1,0.2,0.2c0,0.1-0.1,0.2-0.2,0.2l-7.2,1.8l8,1.9L830.7,577z"/>
<path class="st0" d="M962.6,406.3l-9-2.1c-0.1,0-0.2-0.1-0.2-0.2s0.1-0.2,0.2-0.2l7.2-1.7l-7.2-1.5c-0.1,0-0.2-0.1-0.2-0.2
	s0.1-0.2,0.2-0.2l9-2.1l0.1,0.5l-7.9,1.8l7.1,1.5c0.1,0,0.2,0.1,0.2,0.2s-0.1,0.2-0.2,0.2l-7.2,1.8l8,1.9L962.6,406.3z"/>
<path class="st0" d="M820.8,413.4h-0.5v-1.8c0-0.1,0.1-0.3,0.3-0.3h3.8v0.5h-3.5v1.6L820.8,413.4L820.8,413.4z"/>
<circle id="XMLID_364_" class="st0" cx="825.5" cy="411.6" r="1.7"/>
<circle id="XMLID_363_" class="st0" cx="904.8" cy="358.8" r="1.7"/>
<circle id="XMLID_362_" class="st0" cx="825.5" cy="358.8" r="1.7"/>
<circle id="XMLID_361_" class="st0" cx="958.2" cy="358.8" r="1.7"/>
<circle id="XMLID_360_" class="st0" cx="904.8" cy="380.3" r="1.7"/>
<circle id="XMLID_359_" class="st0" cx="958.2" cy="443.7" r="1.7"/>
<g id="XMLID_358_">
	<path class="st0" d="M819.8,416l-3.5-3.7h-2.7v-0.5h2.8c0.1,0,0.1,0,0.2,0.1l3.6,3.8L819.8,416z"/>
	<rect x="813" y="409.8" class="st0" width="0.8" height="4.7"/>
	<rect x="811.5" y="410.4" class="st0" width="0.8" height="3.4"/>
	<rect x="810.2" y="411.1" class="st0" width="0.8" height="2.1"/>
</g>
<g id="XMLID_357_">
	<path class="st0" d="M831,544h-0.5v-1.7c0-0.1,0.1-0.3,0.3-0.3h4.8v0.5h-4.5v1.5H831z"/>
	<rect x="835.3" y="540" class="st0" width="0.8" height="4.7"/>
	<rect x="836.7" y="540.6" class="st0" width="0.8" height="3.4"/>
	<rect x="838.1" y="541.2" class="st0" width="0.8" height="2.1"/>
</g>
<g id="XMLID_356_">
	<path class="st0" d="M937,538.8h-0.5v-1.5H932v-0.5h4.8c0.1,0,0.3,0.1,0.3,0.3v1.7H937z"/>
	<rect x="931.5" y="534.7" class="st0" width="0.8" height="4.7"/>
	<rect x="930" y="535.4" class="st0" width="0.8" height="3.4"/>
	<rect x="928.7" y="536" class="st0" width="0.8" height="2.1"/>
</g>
<g id="XMLID_355_">
	<rect x="921.4" y="549.5" class="st0" width="2.4" height="0.5"/>
	<rect x="920.8" y="547.5" class="st0" width="0.8" height="4.7"/>
	<rect x="919.4" y="548.1" class="st0" width="0.8" height="3.4"/>
	<rect x="918.1" y="548.7" class="st0" width="0.8" height="2.1"/>
</g>
<g id="XMLID_354_">
	<path class="st0" d="M905.7,392h-0.5v-2.7l-3.7-3.5l0.3-0.4l3.8,3.6c0,0,0.1,0.1,0.1,0.2L905.7,392L905.7,392z"/>
	<rect x="903.1" y="391.8" class="st0" width="4.7" height="0.8"/>
	<rect x="903.7" y="393.3" class="st0" width="3.4" height="0.8"/>
	<rect x="904.4" y="394.6" class="st0" width="2.1" height="0.8"/>
</g>
<path class="st0" d="M825.3,422.5c-0.1,0-0.1,0-0.2-0.1l-2.4-2.6c-0.1-0.1-0.1-0.2,0-0.3c0-0.1,0.1-0.2,0.2-0.2h4.6
	c0.1,0,0.2,0.1,0.2,0.1c0,0.1,0,0.2,0,0.3l-2.2,2.6C825.4,422.4,825.4,422.5,825.3,422.5L825.3,422.5z M823.5,419.9l1.8,2l1.6-2
	H823.5z"/>
<path class="st0" d="M827.5,431.2h-4.6c-0.1,0-0.2-0.1-0.2-0.2s0-0.2,0-0.3l2.4-2.6c0-0.1,0.1-0.1,0.2-0.1s0.1,0,0.2,0.1l2.2,2.6
	c0.1,0.1,0.1,0.2,0,0.3C827.7,431.1,827.6,431.2,827.5,431.2z M823.5,430.7h3.5l-1.6-2L823.5,430.7z"/>
<path class="st0" d="M958.3,423.8c-0.1,0-0.1,0-0.2-0.1l-2.4-2.6c-0.1-0.1-0.1-0.2,0-0.3c0-0.1,0.1-0.2,0.2-0.2h4.6
	c0.1,0,0.2,0.1,0.2,0.1c0,0.1,0,0.2,0,0.3l-2.2,2.6C958.4,423.7,958.4,423.8,958.3,423.8L958.3,423.8z M956.5,421.2l1.8,2l1.6-2
	H956.5z"/>
<path class="st0" d="M974.4,446.3C974.4,446.3,974.3,446.3,974.4,446.3c-0.2-0.1-0.3-0.2-0.3-0.3v-4.6c0-0.1,0.1-0.2,0.1-0.2
	c0.1,0,0.2,0,0.3,0l2.6,2.2c0.1,0,0.1,0.1,0.1,0.2s0,0.1-0.1,0.2l-2.6,2.4C974.5,446.3,974.5,446.3,974.4,446.3z M974.6,442v3.5
	l2-1.8L974.6,442z"/>
<path class="st0" d="M989.2,446.3c-0.1,0-0.1,0-0.2-0.1l-2.6-2.4c-0.1,0-0.1-0.1-0.1-0.2s0-0.1,0.1-0.2l2.6-2.2
	c0.1-0.1,0.2-0.1,0.3,0c0.1,0,0.1,0.1,0.1,0.2v4.6C989.5,446.1,989.4,446.2,989.2,446.3C989.3,446.3,989.3,446.3,989.2,446.3z
	 M987,443.6l2,1.8v-3.5L987,443.6z"/>
<path class="st0" d="M958.3,453.2c-0.1,0-0.1,0-0.2-0.1l-2.4-2.6c-0.1-0.1-0.1-0.2,0-0.3c0-0.1,0.1-0.2,0.2-0.2h4.6
	c0.1,0,0.2,0.1,0.2,0.1c0,0.1,0,0.2,0,0.3l-2.2,2.6C958.4,453.1,958.4,453.2,958.3,453.2L958.3,453.2z M956.5,450.6l1.8,2l1.6-2
	H956.5z"/>
<path class="st0" d="M960.5,435.7h-4.6c-0.1,0-0.2-0.1-0.2-0.2s0-0.2,0-0.3l2.4-2.6c0-0.1,0.1-0.1,0.2-0.1c0.1,0,0.1,0,0.2,0.1
	l2.2,2.6c0.1,0.1,0.1,0.2,0,0.3C960.7,435.7,960.6,435.7,960.5,435.7z M956.5,435.2h3.5l-1.6-2L956.5,435.2z"/>
<path class="st0" d="M960.5,464.9h-4.6c-0.1,0-0.2-0.1-0.2-0.2c0-0.1,0-0.2,0-0.3l2.4-2.6c0-0.1,0.1-0.1,0.2-0.1
	c0.1,0,0.1,0,0.2,0.1l2.2,2.6c0.1,0.1,0.1,0.2,0,0.3C960.7,464.8,960.6,464.9,960.5,464.9z M956.5,464.4h3.5l-1.6-2L956.5,464.4z"/>
<path class="st0" d="M958.3,561.3c-0.1,0-0.1,0-0.2-0.1l-2.4-2.6c-0.1-0.1-0.1-0.2,0-0.3c0-0.1,0.1-0.2,0.2-0.2h4.6
	c0.1,0,0.2,0.1,0.2,0.1c0,0.1,0,0.2,0,0.3l-2.2,2.6C958.4,561.2,958.4,561.3,958.3,561.3L958.3,561.3z M956.5,558.7l1.8,2l1.6-2
	H956.5z"/>
<path class="st0" d="M960.5,573.1h-4.6c-0.1,0-0.2-0.1-0.2-0.2c0-0.1,0-0.2,0-0.3l2.4-2.6c0-0.1,0.1-0.1,0.2-0.1
	c0.1,0,0.1,0,0.2,0.1l2.2,2.6c0.1,0.1,0.1,0.2,0,0.3C960.7,573,960.6,573.1,960.5,573.1z M956.5,572.6h3.5l-1.6-2L956.5,572.6z"/>
<path class="st0" d="M941.6,561.3c-0.1,0-0.1,0-0.2-0.1l-2.4-2.6c-0.1-0.1-0.1-0.2,0-0.3c0-0.1,0.1-0.2,0.2-0.2h4.6
	c0.1,0,0.2,0.1,0.2,0.1c0,0.1,0,0.2,0,0.3l-2.2,2.6C941.7,561.2,941.7,561.3,941.6,561.3L941.6,561.3z M939.8,558.7l1.8,2l1.6-2
	H939.8z"/>
<path class="st0" d="M826.2,583c-0.1,0-0.1,0-0.2-0.1l-2.4-2.6c-0.1-0.1-0.1-0.2,0-0.3c0-0.1,0.1-0.2,0.2-0.2h4.6
	c0.1,0,0.2,0.1,0.2,0.1c0,0.1,0,0.2,0,0.3l-2.2,2.6C826.4,583,826.3,583,826.2,583L826.2,583z M824.4,580.4l1.8,2l1.6-2H824.4z"/>
<path class="st0" d="M943.8,573.1h-4.6c-0.1,0-0.2-0.1-0.2-0.2c0-0.1,0-0.2,0-0.3l2.4-2.6c0-0.1,0.1-0.1,0.2-0.1
	c0.1,0,0.1,0,0.2,0.1l2.2,2.6c0.1,0.1,0.1,0.2,0,0.3C943.9,573,943.9,573.1,943.8,573.1z M939.8,572.6h3.5l-1.6-2L939.8,572.6z"/>
<path class="st0" d="M828.5,591.7h-4.6c-0.1,0-0.2-0.1-0.2-0.2s0-0.2,0-0.3l2.4-2.6c0-0.1,0.1-0.1,0.2-0.1s0.1,0,0.2,0.1l2.2,2.6
	c0.1,0.1,0.1,0.2,0,0.3C828.7,591.7,828.6,591.7,828.5,591.7z M824.5,591.2h3.5l-1.6-2L824.5,591.2z"/>
<rect x="825.2" y="467.4" class="st0" width="0.5" height="26.2"/>
<path class="st0" d="M825.5,476.5c-0.1,0-0.1,0-0.2-0.1l-2.4-2.6c-0.1-0.1-0.1-0.2,0-0.3c0-0.1,0.1-0.2,0.2-0.2h4.6
	c0.1,0,0.2,0.1,0.2,0.1c0,0.1,0,0.2,0,0.3l-2.2,2.6C825.7,476.4,825.6,476.5,825.5,476.5L825.5,476.5z M823.7,473.9l1.8,2l1.6-2
	H823.7z"/>
<path class="st0" d="M827.7,487.8h-4.6c-0.1,0-0.2-0.1-0.2-0.2s0-0.2,0-0.3l2.4-2.6c0-0.1,0.1-0.1,0.2-0.1s0.1,0,0.2,0.1l2.2,2.6
	c0.1,0.1,0.1,0.2,0,0.3C827.9,487.7,827.8,487.8,827.7,487.8z M823.7,487.3h3.5l-1.6-2L823.7,487.3z"/>
<g id="XMLID_353_">
	<rect x="812.6" y="618.1" class="st0" width="19.6" height="0.5"/>
	<rect x="812" y="616.1" class="st0" width="0.8" height="4.7"/>
	<rect x="810.6" y="616.7" class="st0" width="0.8" height="3.4"/>
	<rect x="809.3" y="617.3" class="st0" width="0.8" height="2.1"/>
</g>
<path class="st0" d="M826.2,628.1c-5.4,0-9.7-4.4-9.7-9.7c0-5.3,4.4-9.7,9.7-9.7c5.4,0,9.7,4.4,9.7,9.7
	C835.9,623.7,831.6,628.1,826.2,628.1z M826.2,609.4c-4.9,0-9,4-9,9s4,9,9,9s9-4,9-9S831.1,609.4,826.2,609.4z"/>
<path class="st0" d="M826.7,614.8c-5.7,0-10.3-4.6-10.3-10.3s4.6-10.3,10.3-10.3s10.3,4.6,10.3,10.3S832.4,614.8,826.7,614.8z
	 M826.7,595c-5.2,0-9.5,4.3-9.5,9.5s4.3,9.5,9.5,9.5s9.5-4.3,9.5-9.5S832,595,826.7,595z"/>
<polygon class="st0" points="822,624.5 821.4,624 826.2,618.3 822.9,611.6 823.6,611.3 827.1,618.4 "/>
<path class="st0" d="M833.2,607.8h-14.3l7.9-11.3L833.2,607.8z M820.3,607h11.6l-5.2-9.1L820.3,607z"/>
<rect x="825.8" y="627.9" class="st0" width="0.5" height="26.2"/>
<path class="st0" d="M826.2,636.9c-0.1,0-0.1,0-0.2-0.1l-2.4-2.6c-0.1-0.1-0.1-0.2,0-0.3c0-0.1,0.1-0.2,0.2-0.2h4.6
	c0.1,0,0.2,0.1,0.2,0.1c0,0.1,0,0.2,0,0.3l-2.2,2.6C826.4,636.9,826.3,636.9,826.2,636.9L826.2,636.9z M824.4,634.4l1.8,2l1.6-2
	H824.4z"/>
<path class="st0" d="M828.4,648.2h-4.6c-0.1,0-0.2-0.1-0.2-0.2s0-0.2,0-0.3l2.4-2.6c0-0.1,0.1-0.1,0.2-0.1s0.1,0,0.2,0.1l2.2,2.6
	c0.1,0.1,0.1,0.2,0,0.3C828.6,648.2,828.5,648.2,828.4,648.2z M824.4,647.7h3.5l-1.6-2L824.4,647.7z"/>
<text id="XMLID_351_" transform="matrix(1 0 0 1 830.9938 385.3748)" class="st0 st1 st2">102</text>
<text id="XMLID_349_" transform="matrix(1 0 0 1 828.5522 415.1145)" class="st0 st1 st3">10217</text>
<text id="XMLID_347_" transform="matrix(1 0 0 1 805.0243 543.4653)" class="st0 st1 st3">1011</text>
<text id="XMLID_345_" transform="matrix(1 0 0 1 932.9189 530.4829)" class="st0 st1 st3">1012</text>
<text id="XMLID_343_" transform="matrix(1 0 0 1 803.6494 562.3492)" class="st0 st1 st3">101</text>
<text id="XMLID_341_" transform="matrix(1 0 0 1 839.0243 544.7657)" class="st0 st1 st3">10117</text>
<text id="XMLID_339_" transform="matrix(1 0 0 1 903.3926 544.0822)" class="st0 st1 st3">10127</text>
<text id="XMLID_337_" transform="matrix(1 0 0 1 893.4702 402.4058)" class="st0 st1 st3">10227</text>
<text id="XMLID_335_" transform="matrix(1 0 0 1 762.8612 451.6312)" class="st0 st1 st4">5号站用变</text>
<text id="XMLID_333_" transform="matrix(1 0 0 1 764.7073 611.4369)" class="st0 st1 st4">0号站用变</text>
<text transform="matrix(1 0 0 1 808.9419 502.9451)" class="st0 st1 st3">至380伏</text>
<text transform="matrix(1 0 0 1 808.9419 511.3451)" class="st0 st1 st3">三/四段</text>
<text transform="matrix(1 0 0 1 964.5356 363.5591)" class="st0 st1 st3">31438练塘站5号站用变</text>
<text transform="matrix(1 0 0 1 971.1357 372.5413)" class="st0 st1 st3">（石8练塘特高压）</text>
<text transform="matrix(1 0 0 1 1014.8105 442.6941)" class="st0 st1 st3">石8练塘特高压</text>
<text transform="matrix(1 0 0 1 1008.9106 451.0941)" class="st0 st1 st3">（石湖荡开关站）</text>
<text transform="matrix(1 0 0 1 964.0356 571.9736)" class="st0 st1 st3">31453练塘站0号站用变</text>
<text transform="matrix(1 0 0 1 970.6357 580.9558)" class="st0 st1 st3">（石8练塘特高压）</text>
<text transform="matrix(1 0 0 1 811.682 663.6117)" class="st0 st1 st3">至380伏</text>
<text transform="matrix(1 0 0 1 811.682 672.0117)" class="st0 st1 st3">一/二段</text>
<path class="st0" d="M882.4,444.4c-2.6,0-4.7-2.1-4.7-4.7s2.1-4.7,4.7-4.7s4.7,2.1,4.7,4.7S885,444.4,882.4,444.4z M882.4,435.5
	c-2.3,0-4.2,1.9-4.2,4.2s1.9,4.2,4.2,4.2s4.2-1.9,4.2-4.2S884.7,435.5,882.4,435.5z"/>
<path class="st0" d="M882.4,454.4c-2.6,0-4.7-2.1-4.7-4.7s2.1-4.7,4.7-4.7s4.7,2.1,4.7,4.7C887.1,452.3,885,454.4,882.4,454.4z
	 M882.4,445.5c-2.3,0-4.2,1.9-4.2,4.2s1.9,4.2,4.2,4.2s4.2-1.9,4.2-4.2S884.7,445.5,882.4,445.5z"/>
<path class="st0" d="M886.9,448.6c-2.6,0-4.7-2.1-4.7-4.7s2.1-4.7,4.7-4.7s4.7,2.1,4.7,4.7S889.5,448.6,886.9,448.6z M886.9,439.7
	c-2.3,0-4.2,1.9-4.2,4.2s1.9,4.2,4.2,4.2s4.2-1.9,4.2-4.2S889.2,439.7,886.9,439.7z"/>
<path class="st0" d="M878,448.8c-2.6,0-4.7-2.1-4.7-4.7s2.1-4.7,4.7-4.7s4.7,2.1,4.7,4.7S880.6,448.8,878,448.8z M878,439.9
	c-2.3,0-4.2,1.9-4.2,4.2s1.9,4.2,4.2,4.2s4.2-1.9,4.2-4.2S880.3,439.9,878,439.9z"/>
<polygon class="st0" points="881.5,441 881.1,440.6 882.5,439.1 880.9,437.3 881.3,437 883.2,439.1 "/>
<rect x="882.8" y="438.8" class="st0" width="1.5" height="0.5"/>
<polygon class="st0" points="875.9,445.9 875.5,445.5 876.9,444 875.3,442.3 875.7,441.9 877.5,444 "/>
<rect x="877.2" y="443.7" class="st0" width="1.5" height="0.5"/>
<polygon class="st0" points="886.7,446 886.3,445.6 887.7,444.1 886.1,442.3 886.5,442 888.4,444.1 "/>
<rect x="888" y="443.8" class="st0" width="1.5" height="0.5"/>
<path class="st0" d="M881.8,451.8l-1.8-1.9c-0.1-0.1-0.1-0.2,0-0.3c0-0.1,0.1-0.2,0.2-0.2h4.1c0.1,0,0.2,0.1,0.2,0.1
	c0,0.1,0,0.2,0,0.3l-1.5,1.9l-0.4-0.3l1.1-1.5h-3l1.4,1.5L881.8,451.8z"/>
<path class="st0" d="M888,457.3h-11.4c-0.1,0-0.3-0.1-0.3-0.3v-12.4h0.5v12.1h10.9v-12.8h0.5v13C888.3,457.2,888.2,457.3,888,457.3z
	"/>
<rect x="874.4" y="459.1" class="st0" width="4.4" height="0.8"/>
<rect x="874.9" y="460.4" class="st0" width="3.4" height="0.8"/>
<rect x="875.3" y="461.7" class="st0" width="2.5" height="0.8"/>
<rect x="876.3" y="457.1" class="st0" width="0.5" height="2"/>
<rect x="882.2" y="385.8" class="st0" width="0.5" height="22"/>
<path class="st0" d="M882.8,408.5c-0.1,0-0.1,0-0.2-0.1l-3.2-2.4l0.3-0.4l3,2.3l2.3-2.2l0.4,0.4l-2.4,2.4
	C883,408.4,882.9,408.5,882.8,408.5z"/>
<path class="st0" d="M882.8,411.4c-0.1,0-0.1,0-0.2-0.1l-3.2-2.4l0.3-0.4l3,2.3l2.3-2.2l0.4,0.4l-2.4,2.4
	C882.9,411.4,882.9,411.4,882.8,411.4z"/>
<path class="st0" d="M927.8,408.8c-0.1,0-0.1,0-0.2-0.1l-3.2-2.4l0.3-0.4l3,2.3l2.3-2.2l0.4,0.4l-2.4,2.4
	C927.9,408.7,927.9,408.8,927.8,408.8z"/>
<path class="st0" d="M958.5,390.9c-0.1,0-0.1,0-0.2-0.1l-3.2-2.4l0.3-0.4l3,2.3l2.3-2.2l0.4,0.4l-2.4,2.4
	C958.7,390.9,958.6,390.9,958.5,390.9z"/>
<path class="st0" d="M958.5,393.7c-0.1,0-0.1,0-0.2-0.1l-3.2-2.4l0.3-0.4l3,2.3l2.3-2.2l0.4,0.4l-2.4,2.4
	C958.7,393.6,958.6,393.7,958.5,393.7z"/>
<path class="st0" d="M927.7,411.7c-0.1,0-0.1,0-0.2-0.1l-3.2-2.4l0.3-0.4l3,2.3l2.3-2.2l0.4,0.4l-2.4,2.4
	C927.9,411.7,927.8,411.7,927.7,411.7z"/>
<rect x="882.2" y="411.2" class="st0" width="0.5" height="24"/>
<path class="st0" d="M886.3,428.6h-7.5c-0.1,0-0.3-0.1-0.3-0.3v-13.2c0-0.1,0.1-0.3,0.3-0.3h7.5c0.1,0,0.3,0.1,0.3,0.3v13.2
	C886.5,428.5,886.4,428.6,886.3,428.6z M879,428.1h7v-12.7h-7V428.1z"/>
<rect x="927.2" y="386.2" class="st0" width="0.5" height="22"/>
<path class="st0" d="M904.8,384.7h-1.6v-0.5h1.4V382h0.5v2.5C905,384.6,904.9,384.7,904.8,384.7z"/>
<path class="st0" d="M1010.4,444h-50.6v-0.5h50l-2.3-2.5l0.4-0.3l2.7,2.9c0.1,0.1,0.1,0.2,0,0.3S1010.5,444,1010.4,444z"/>
<rect x="1007.3" y="444.6" transform="matrix(0.7367 -0.6762 0.6762 0.7367 -35.1365 799.3898)" class="st0" width="3.4" height="0.5"/>
<path class="st0" d="M958.2,581.7h-16.6c-0.1,0-0.3-0.1-0.3-0.3v-38.1l-3.6-6.6l0.4-0.2l3.7,6.7v0.1v37.9h16.1V393.1h0.5v188.3
	C958.4,581.6,958.3,581.7,958.2,581.7z"/>
<path class="st0" d="M827.6,542.6h-2.2c-0.1,0-0.3-0.1-0.3-0.3v-10.5c0-0.1,0.1-0.3,0.3-0.3h116.1c0.1,0,0.3,0.1,0.3,0.3v5.3
	c0,0.1-0.1,0.3-0.3,0.3H940v-0.5h1.3v-4.8H825.7v10h1.9L827.6,542.6L827.6,542.6z"/>
<path class="st0" d="M826.3,552.6h-0.5v-4.2v-0.1l3.2-6.2l0.4,0.2l-3.1,6.1V552.6z"/>
<path class="st0" d="M828.4,566.9h-4.9l-1.9-1.9v-10.4l1.9-2h4.9l2.2,2V565L828.4,566.9z M823.7,566.4h4.5l1.9-1.6v-9.9l-1.9-1.7
	h-4.5l-1.6,1.7v10L823.7,566.4z"/>
<rect x="867.5" y="528.3" class="st0" width="0.5" height="6.7"/>
<path class="st0" d="M894.1,537.3c-0.1,0-0.2-0.1-0.2-0.2l-2.7-9.4l0.5-0.1l2.4,8.4l1.6-7.8c0-0.2,0.4-0.2,0.5,0l1.6,7.7l2.1-7.7
	l0.5,0.1l-2.3,8.8c0,0.1-0.1,0.2-0.2,0.2c-0.1,0-0.2-0.1-0.2-0.2l-1.6-7.6l-1.6,7.6C894.3,537.2,894.2,537.3,894.1,537.3
	L894.1,537.3z"/>
<rect x="914.7" y="528.3" class="st0" width="0.5" height="6.7"/>
<path class="st0" d="M884.8,543.4H880c-0.1,0-0.3-0.1-0.3-0.3v-8.4c0-0.1,0.1-0.3,0.3-0.3h4.8c0.1,0,0.3,0.1,0.3,0.3v8.4
	C885,543.3,884.9,543.4,884.8,543.4z M880.2,542.9h4.3V535h-4.3V542.9z"/>
<rect x="882.1" y="532.4" class="st0" width="0.5" height="14"/>
<path class="st0" d="M882.5,556.1c-2.8,0-5-2.2-5-5c0-2.8,2.2-5,5-5s5,2.2,5,5C887.5,553.9,885.3,556.1,882.5,556.1z M882.5,546.6
	c-2.5,0-4.5,2-4.5,4.5s2,4.5,4.5,4.5s4.5-2,4.5-4.5S885,546.6,882.5,546.6z"/>
<path class="st0" d="M882.3,562.4c-2.8,0-5-2.2-5-5c0-2.8,2.2-5,5-5s5,2.2,5,5C887.3,560.2,885.1,562.4,882.3,562.4z M882.3,552.9
	c-2.5,0-4.5,2-4.5,4.5s2,4.5,4.5,4.5s4.5-2,4.5-4.5S884.8,552.9,882.3,552.9z"/>
<path class="st0" d="M937.3,551.8h-13.5c-0.1,0-0.3-0.1-0.3-0.3v-4c0-0.1,0.1-0.3,0.3-0.3h13.5c0.1,0,0.3,0.1,0.3,0.3v4
	C937.5,551.7,937.4,551.8,937.3,551.8z M924,551.3h13v-3.5h-13V551.3z"/>
<rect x="926.2" y="546.3" class="st0" width="0.5" height="5.8"/>
<rect x="928.8" y="546.3" class="st0" width="0.5" height="5.8"/>
<rect x="930.1" y="546.3" class="st0" width="0.5" height="5.8"/>
<path class="st0" d="M937.3,551.8H933c-0.1,0-0.3-0.1-0.3-0.3v-4c0-0.1,0.1-0.3,0.3-0.3h4.3c0.1,0,0.3,0.1,0.3,0.3v4
	C937.5,551.7,937.4,551.8,937.3,551.8z M933.2,551.3h3.8v-3.5h-3.8V551.3z"/>
<rect x="932.5" y="549.2" transform="matrix(0.6873 -0.7264 0.7264 0.6873 -106.7326 851.043)" class="st0" width="5.1" height="0.5"/>
<polygon class="st0" points="937.1,551.7 932.7,547.7 933.1,547.3 937.4,551.3 "/>
<rect x="937.3" y="549" class="st0" width="4.3" height="0.5"/>
</svg>
