<?xml version="1.0" encoding="utf-8"?>
<!-- Generator: Adobe Illustrator 22.1.0, SVG Export Plug-In . SVG Version: 6.00 Build 0)  -->
<svg version="1.1" id="_x31_000_x5F_复制" xmlns="http://www.w3.org/2000/svg" xmlns:xlink="http://www.w3.org/1999/xlink"
	 x="0px" y="0px" viewBox="0 0 1920 1080" style="enable-background:new 0 0 1920 1080;" xml:space="preserve">
<style type="text/css">
	.st0{fill:#59F1FF;}
	.st1{fill:#59F1FF;stroke:#000000;stroke-width:0.5;stroke-miterlimit:10;}
</style>
<g>
	<rect id="XMLID_7649_" x="2128.8" y="-4.4" style="fill:none;" width="18.9" height="5.5"/>
	
		<text id="XMLID_7648_" transform="matrix(1 0 0 1 2128.7993 0.3772)" class="st0" style="font-family:'STHeitiSC-Light'; font-size:5.9138px;">T04127</text>
	<rect id="XMLID_7647_" x="2205.2" y="-42.9" style="fill:none;" width="18.9" height="5.5"/>
	
		<text id="XMLID_7646_" transform="matrix(1 0 0 1 2205.1743 -38.1345)" class="st0" style="font-family:'STHeitiSC-Light'; font-size:5.9138px;">T04117</text>
	<rect id="XMLID_7645_" x="2196.6" y="-11.2" style="fill:none;" width="22.4" height="10.7"/>
	
		<text id="XMLID_7644_" transform="matrix(1 0 0 1 2196.6016 -4.1345)" class="st0" style="font-family:'SourceHanSansCN-Normal-GBpc-EUC-H'; font-size:8px;">一母</text>
	<rect id="XMLID_7643_" x="2200" y="-24.5" style="fill:none;" width="18.9" height="5.5"/>
	
		<text id="XMLID_7642_" transform="matrix(1 0 0 1 2200.0176 -19.7559)" class="st0" style="font-family:'STHeitiSC-Light'; font-size:5.9138px;">T0411</text>
	<rect id="XMLID_7641_" x="2168" y="3.5" style="fill:none;" width="18.9" height="5.5"/>
	
		<text id="XMLID_7640_" transform="matrix(1 0 0 1 2168.0342 8.1932)" class="st0" style="font-family:'STHeitiSC-Light'; font-size:5.9138px;">T0412</text>
	<rect id="XMLID_7639_" x="2168" y="23.6" style="fill:none;" width="18.9" height="5.5"/>
	
		<text id="XMLID_7638_" transform="matrix(1 0 0 1 2168.0342 28.3097)" class="st0" style="font-family:'STHeitiSC-Light'; font-size:5.9138px;">T0421</text>
	<rect id="XMLID_7637_" x="2168" y="69.6" style="fill:none;" width="18.9" height="5.5"/>
	
		<text id="XMLID_7636_" transform="matrix(1 0 0 1 2168.0342 74.3097)" class="st0" style="font-family:'STHeitiSC-Light'; font-size:5.9138px;">T0422</text>
	<rect id="XMLID_7635_" x="2168" y="89.1" style="fill:none;" width="18.9" height="5.5"/>
	
		<text id="XMLID_7634_" transform="matrix(1 0 0 1 2168.0342 93.7868)" class="st0" style="font-family:'STHeitiSC-Light'; font-size:5.9138px;">T0431</text>
	<rect id="XMLID_7633_" x="2168" y="134.7" style="fill:none;" width="18.9" height="5.5"/>
	
		<text id="XMLID_7632_" transform="matrix(1 0 0 1 2168.0342 139.3901)" class="st0" style="font-family:'STHeitiSC-Light'; font-size:5.9138px;">T0432</text>
	<rect id="XMLID_7631_" x="2168" y="153.1" style="fill:none;" width="18.9" height="5.5"/>
	
		<text id="XMLID_7630_" transform="matrix(1 0 0 1 2168.0342 157.8668)" class="st0" style="font-family:'STHeitiSC-Light'; font-size:5.9138px;">T0332</text>
	<rect id="XMLID_7629_" x="2168" y="201.8" style="fill:none;" width="18.9" height="5.5"/>
	
		<text id="XMLID_7628_" transform="matrix(1 0 0 1 2168.0342 206.5085)" class="st0" style="font-family:'STHeitiSC-Light'; font-size:5.9138px;">T0331</text>
	<rect id="XMLID_7627_" x="2168" y="219.9" style="fill:none;" width="18.9" height="5.5"/>
	
		<text id="XMLID_7626_" transform="matrix(1 0 0 1 2168.0342 224.6224)" class="st0" style="font-family:'STHeitiSC-Light'; font-size:5.9138px;">T0322</text>
	<rect id="XMLID_7625_" x="2168" y="271.6" style="fill:none;" width="18.9" height="5.5"/>
	
		<text id="XMLID_7624_" transform="matrix(1 0 0 1 2168.0342 276.3017)" class="st0" style="font-family:'STHeitiSC-Light'; font-size:5.9138px;">T0321</text>
	<rect id="XMLID_7623_" x="2168" y="351.5" style="fill:none;" width="18.9" height="5.5"/>
	
		<text id="XMLID_7622_" transform="matrix(1 0 0 1 2168.0342 356.217)" class="st0" style="font-family:'STHeitiSC-Light'; font-size:5.9138px;">T0211</text>
	<rect id="XMLID_7621_" x="2168" y="400.8" style="fill:none;" width="18.9" height="5.5"/>
	
		<text id="XMLID_7620_" transform="matrix(1 0 0 1 2168.0342 405.574)" class="st0" style="font-family:'STHeitiSC-Light'; font-size:5.9138px;">T0212</text>
	<rect id="XMLID_7619_" x="2168" y="416.8" style="fill:none;" width="18.9" height="5.5"/>
	
		<text id="XMLID_7618_" transform="matrix(1 0 0 1 2168.0342 421.4879)" class="st0" style="font-family:'STHeitiSC-Light'; font-size:5.9138px;">T0221</text>
	<rect id="XMLID_7617_" x="2168" y="465.3" style="fill:none;" width="18.9" height="5.5"/>
	
		<text id="XMLID_7616_" transform="matrix(1 0 0 1 2168.0342 470.004)" class="st0" style="font-family:'STHeitiSC-Light'; font-size:5.9138px;">T0222</text>
	<rect id="XMLID_7615_" x="2192.1" y="78" style="fill:none;" width="24.8" height="5.5"/>
	
		<text id="XMLID_7614_" transform="matrix(1 0 0 1 2192.0786 82.7189)" class="st0" style="font-family:'STHeitiSC-Light'; font-size:5.9138px;">T04367</text>
	<rect id="XMLID_7613_" x="2134.8" y="-22.4" style="fill:none;" width="21.7" height="7.7"/>
	
		<text id="XMLID_7612_" transform="matrix(1 0 0 1 2134.7988 -16.0132)" class="st0" style="font-family:'STHeitiSC-Light'; font-size:8px;">T0041</text>
	<rect id="XMLID_7611_" x="2134.8" y="44.4" style="fill:none;" width="21.7" height="7.7"/>
	
		<text id="XMLID_7610_" transform="matrix(1 0 0 1 2134.7988 50.7817)" class="st0" style="font-family:'STHeitiSC-Light'; font-size:8px;">T042</text>
	<rect id="XMLID_7609_" x="2134.8" y="111.5" style="fill:none;" width="21.7" height="7.7"/>
	
		<text id="XMLID_7608_" transform="matrix(1 0 0 1 2134.7988 117.9378)" class="st0" style="font-family:'STHeitiSC-Light'; font-size:8px;">T043</text>
	<rect id="XMLID_7607_" x="2134.8" y="176.7" style="fill:none;" width="21.7" height="7.7"/>
	
		<text id="XMLID_7606_" transform="matrix(1 0 0 1 2134.7988 183.0624)" class="st0" style="font-family:'STHeitiSC-Light'; font-size:8px;">T033</text>
	<rect id="XMLID_7605_" x="2134.8" y="244.4" style="fill:none;" width="21.7" height="7.7"/>
	
		<text id="XMLID_7604_" transform="matrix(1 0 0 1 2134.7991 250.8121)" class="st0" style="font-family:'STHeitiSC-Light'; font-size:8px;">T032</text>
	<rect id="XMLID_7603_" x="2134.8" y="376.4" style="fill:none;" width="21.7" height="7.7"/>
	
		<text id="XMLID_7602_" transform="matrix(1 0 0 1 2134.7991 382.8109)" class="st0" style="font-family:'STHeitiSC-Light'; font-size:8px;">T021</text>
	<rect id="XMLID_7601_" x="2134.8" y="442.4" style="fill:none;" width="21.7" height="7.7"/>
	
		<text id="XMLID_7600_" transform="matrix(1 0 0 1 2134.7991 448.8466)" class="st0" style="font-family:'STHeitiSC-Light'; font-size:8px;">T022</text>
	<rect id="XMLID_7599_" x="2165.8" y="503.1" style="fill:none;" width="7.7" height="21.7"/>
	
		<text id="XMLID_7598_" transform="matrix(0 1 -1 0 2167.0234 503.1235)" class="st0" style="font-family:'STHeitiSC-Light'; font-size:8px;">T023</text>
	<rect id="XMLID_7597_" x="2165.8" y="569.5" style="fill:none;" width="7.7" height="21.7"/>
	
		<text id="XMLID_7596_" transform="matrix(0 1 -1 0 2167.0234 569.5382)" class="st0" style="font-family:'STHeitiSC-Light'; font-size:8px;">T013</text>
	<rect id="XMLID_7595_" x="2165.8" y="636.2" style="fill:none;" width="7.7" height="21.7"/>
	
		<text id="XMLID_7594_" transform="matrix(0 1 -1 0 2167.0234 636.1837)" class="st0" style="font-family:'STHeitiSC-Light'; font-size:8px;">T012</text>
	<rect id="XMLID_7593_" x="2195.9" y="694.3" style="fill:none;" width="21.7" height="7.7"/>
	
		<text id="XMLID_7592_" transform="matrix(1 0 0 1 2195.9399 701.2933)" class="st0" style="font-family:'SourceHanSansCN-Normal-GBpc-EUC-H'; font-size:8px;">一母</text>
	<rect id="XMLID_7591_" x="2128.8" y="26.1" style="fill:none;" width="18.9" height="5.5"/>
	
		<text id="XMLID_7590_" transform="matrix(1 0 0 1 2128.7996 30.8536)" class="st0" style="font-family:'STHeitiSC-Light'; font-size:5.9138px;">T04217</text>
	<rect id="XMLID_7589_" x="2129" y="62.7" style="fill:none;" width="21.7" height="5.5"/>
	
		<text id="XMLID_7588_" transform="matrix(1 0 0 1 2129.012 67.4286)" class="st0" style="font-family:'STHeitiSC-Light'; font-size:5.9138px;">T04227</text>
	<rect id="XMLID_7587_" x="2133.8" y="86.3" style="fill:none;" width="18.9" height="5.5"/>
	
		<text id="XMLID_7586_" transform="matrix(1 0 0 1 2133.7993 91.0133)" class="st0" style="font-family:'STHeitiSC-Light'; font-size:5.9138px;">T04317</text>
	<rect id="XMLID_7585_" x="2129" y="129.4" style="fill:none;" width="19.9" height="5.5"/>
	
		<text id="XMLID_7584_" transform="matrix(1 0 0 1 2129.0117 134.1383)" class="st0" style="font-family:'STHeitiSC-Light'; font-size:5.9138px;">T04327</text>
	<rect id="XMLID_7583_" x="2129" y="157.8" style="fill:none;" width="25.9" height="5.5"/>
	
		<text id="XMLID_7582_" transform="matrix(1 0 0 1 2129.0117 162.5645)" class="st0" style="font-family:'STHeitiSC-Light'; font-size:5.9138px;">T03327</text>
	<rect id="XMLID_7581_" x="2129" y="195.6" style="fill:none;" width="18.9" height="5.5"/>
	
		<text id="XMLID_7580_" transform="matrix(1 0 0 1 2129.0122 200.3398)" class="st0" style="font-family:'STHeitiSC-Light'; font-size:5.9138px;">T03317</text>
	<rect id="XMLID_7579_" x="2129" y="210.3" style="fill:none;" width="25.9" height="5.5"/>
	
		<text id="XMLID_7578_" transform="matrix(1 0 0 1 2129.0117 214.9905)" class="st0" style="font-family:'STHeitiSC-Light'; font-size:5.9138px;">T03367</text>
	<rect id="XMLID_7577_" x="2129" y="225.2" style="fill:none;" width="25.9" height="5.5"/>
	
		<text id="XMLID_7576_" transform="matrix(1 0 0 1 2129.0117 229.9395)" class="st0" style="font-family:'STHeitiSC-Light'; font-size:5.9138px;">T03227</text>
	<rect id="XMLID_7575_" x="2129" y="262.1" style="fill:none;" width="18.9" height="5.5"/>
	
		<text id="XMLID_7574_" transform="matrix(1 0 0 1 2129.0122 266.8668)" class="st0" style="font-family:'STHeitiSC-Light'; font-size:5.9138px;">T03217</text>
	<rect id="XMLID_7573_" x="2129" y="144.4" style="fill:none;" width="18.9" height="5.5"/>
	
		<text id="XMLID_7572_" transform="matrix(1 0 0 1 2129.0122 149.1383)" class="st0" style="font-family:'STHeitiSC-Light'; font-size:5.9138px;">T217</text>
	<g id="XMLID_7567_">
		<path class="st0" d="M2157.6,2.6l-3-3.1h-2.3v-0.5h2.4c0.1,0,0.1,0,0.2,0.1l3,3.2L2157.6,2.6z"/>
		<rect x="2151.8" y="-2.7" class="st0" width="0.8" height="3.9"/>
		<rect x="2150.6" y="-2.1" class="st0" width="0.8" height="2.9"/>
		<rect x="2149.4" y="-1.6" class="st0" width="0.8" height="1.8"/>
	</g>
	<g id="XMLID_7562_">
		<path class="st0" d="M2199.6-39.8h-2.4c-0.1,0-0.1,0-0.2-0.1l-3-3.2l0.4-0.3l3,3.1h2.3V-39.8z"/>
		<rect x="2199.4" y="-42.1" class="st0" width="0.8" height="3.9"/>
		<rect x="2200.6" y="-41.5" class="st0" width="0.8" height="2.9"/>
		<rect x="2201.7" y="-41" class="st0" width="0.8" height="1.8"/>
	</g>
	<g id="XMLID_7557_">
		<path class="st0" d="M2174,83.6l-0.4-0.3l3-3.2c0,0,0.1-0.1,0.2-0.1h2.4v0.5h-2.3L2174,83.6z"/>
		<rect x="2179" y="78.3" class="st0" width="0.8" height="3.9"/>
		<rect x="2180.2" y="78.8" class="st0" width="0.8" height="2.9"/>
		<rect x="2181.3" y="79.3" class="st0" width="0.8" height="1.8"/>
	</g>
	<g id="XMLID_7552_">
		<path class="st0" d="M2157.6,31.6l-3-3.1h-2.3v-0.5h2.4c0.1,0,0.1,0,0.2,0.1l3,3.2L2157.6,31.6z"/>
		<rect x="2151.8" y="26.3" class="st0" width="0.8" height="3.9"/>
		<rect x="2150.6" y="26.9" class="st0" width="0.8" height="2.9"/>
		<rect x="2149.4" y="27.4" class="st0" width="0.8" height="1.8"/>
	</g>
	<g id="XMLID_7547_">
		<path class="st0" d="M2157.6,68.9l-3-3.1h-2.3v-0.5h2.4c0.1,0,0.1,0,0.2,0.1l3,3.2L2157.6,68.9z"/>
		<rect x="2151.8" y="63.6" class="st0" width="0.8" height="3.9"/>
		<rect x="2150.6" y="64.1" class="st0" width="0.8" height="2.9"/>
		<rect x="2149.4" y="64.7" class="st0" width="0.8" height="1.8"/>
	</g>
	<g id="XMLID_7542_">
		<path class="st0" d="M2157.6,98.4l-3-3.1h-2.3v-0.5h2.4c0.1,0,0.1,0,0.2,0.1l3,3.2L2157.6,98.4z"/>
		<rect x="2151.8" y="93.1" class="st0" width="0.8" height="3.9"/>
		<rect x="2150.6" y="93.6" class="st0" width="0.8" height="2.9"/>
		<rect x="2149.4" y="94.2" class="st0" width="0.8" height="1.8"/>
	</g>
	<g id="XMLID_7537_">
		<path class="st0" d="M2157.6,135.2l-3-3.1h-2.3v-0.5h2.4c0.1,0,0.1,0,0.2,0.1l3,3.2L2157.6,135.2z"/>
		<rect x="2151.8" y="129.9" class="st0" width="0.8" height="3.9"/>
		<rect x="2150.6" y="130.5" class="st0" width="0.8" height="2.9"/>
		<rect x="2149.4" y="131" class="st0" width="0.8" height="1.8"/>
	</g>
	<g id="XMLID_7532_">
		<path class="st0" d="M2157.6,149.9l-3-3.1h-2.3v-0.5h2.4c0.1,0,0.1,0,0.2,0.1l3,3.2L2157.6,149.9z"/>
		<rect x="2151.8" y="144.6" class="st0" width="0.8" height="3.9"/>
		<rect x="2150.6" y="145.1" class="st0" width="0.8" height="2.9"/>
		<rect x="2149.4" y="145.6" class="st0" width="0.8" height="1.8"/>
	</g>
	<g id="XMLID_7527_">
		<path class="st0" d="M2157.6,164.4l-3-3.1h-2.3v-0.5h2.4c0.1,0,0.1,0,0.2,0.1l3,3.2L2157.6,164.4z"/>
		<rect x="2151.8" y="159.1" class="st0" width="0.8" height="3.9"/>
		<rect x="2150.6" y="159.6" class="st0" width="0.8" height="2.9"/>
		<rect x="2149.4" y="160.1" class="st0" width="0.8" height="1.8"/>
	</g>
	<g id="XMLID_7522_">
		<path class="st0" d="M2157.6,201.7l-3-3.1h-2.3v-0.5h2.4c0.1,0,0.1,0,0.2,0.1l3,3.2L2157.6,201.7z"/>
		<rect x="2151.8" y="196.4" class="st0" width="0.8" height="3.9"/>
		<rect x="2150.6" y="197" class="st0" width="0.8" height="2.9"/>
		<rect x="2149.4" y="197.5" class="st0" width="0.8" height="1.8"/>
	</g>
	<g id="XMLID_7517_">
		<path class="st0" d="M2157.6,230.7l-3-3.1h-2.3v-0.5h2.4c0.1,0,0.1,0,0.2,0.1l3,3.2L2157.6,230.7z"/>
		<rect x="2151.8" y="225.4" class="st0" width="0.8" height="3.9"/>
		<rect x="2150.6" y="226" class="st0" width="0.8" height="2.9"/>
		<rect x="2149.4" y="226.5" class="st0" width="0.8" height="1.8"/>
	</g>
	<g id="XMLID_7512_">
		<path class="st0" d="M2157.6,268.2l-3-3.1h-2.3v-0.5h2.4c0.1,0,0.1,0,0.2,0.1l3,3.2L2157.6,268.2z"/>
		<rect x="2151.8" y="262.9" class="st0" width="0.8" height="3.9"/>
		<rect x="2150.6" y="263.5" class="st0" width="0.8" height="2.9"/>
		<rect x="2149.4" y="264" class="st0" width="0.8" height="1.8"/>
	</g>
	<rect id="XMLID_7511_" x="2129" y="328.8" style="fill:none;" width="18.9" height="5.5"/>
	
		<text id="XMLID_7510_" transform="matrix(1 0 0 1 2129.0122 333.4915)" class="st0" style="font-family:'STHeitiSC-Light'; font-size:5.9138px;">T03117</text>
	<rect id="XMLID_7509_" x="2168" y="333.1" style="fill:none;" width="15.9" height="5.5"/>
	
		<text id="XMLID_7508_" transform="matrix(1 0 0 1 2168.0337 337.8077)" class="st0" style="font-family:'STHeitiSC-Light'; font-size:5.9138px;">T0311</text>
	<rect id="XMLID_7507_" x="2129" y="343.2" style="fill:none;" width="18.9" height="5.5"/>
	
		<text id="XMLID_7506_" transform="matrix(1 0 0 1 2129.0122 347.8923)" class="st0" style="font-family:'STHeitiSC-Light'; font-size:5.9138px;">T117</text>
	<rect id="XMLID_7505_" x="2129" y="357.6" style="fill:none;" width="18.9" height="5.5"/>
	
		<text id="XMLID_7504_" transform="matrix(1 0 0 1 2129.0122 362.3608)" class="st0" style="font-family:'STHeitiSC-Light'; font-size:5.9138px;">T02117</text>
	<rect id="XMLID_7503_" x="2129" y="394.8" style="fill:none;" width="18.9" height="5.5"/>
	
		<text id="XMLID_7502_" transform="matrix(1 0 0 1 2129.0122 399.5569)" class="st0" style="font-family:'STHeitiSC-Light'; font-size:5.9138px;">T02127</text>
	<rect id="XMLID_7501_" x="2129" y="410.5" style="fill:none;" width="18.9" height="5.5"/>
	
		<text id="XMLID_7500_" transform="matrix(1 0 0 1 2129.0122 415.2071)" class="st0" style="font-family:'STHeitiSC-Light'; font-size:5.9138px;">T02167</text>
	<rect id="XMLID_7499_" x="2129" y="423.8" style="fill:none;" width="18.9" height="5.5"/>
	
		<text id="XMLID_7498_" transform="matrix(1 0 0 1 2129.0122 428.4858)" class="st0" style="font-family:'STHeitiSC-Light'; font-size:5.9138px;">T02217</text>
	<rect id="XMLID_7497_" x="2129" y="461.2" style="fill:none;" width="18.9" height="5.5"/>
	
		<text id="XMLID_7496_" transform="matrix(1 0 0 1 2129.0122 465.9742)" class="st0" style="font-family:'STHeitiSC-Light'; font-size:5.9138px;">T02227</text>
	<rect id="XMLID_7495_" x="2192.1" y="475.7" style="fill:none;" width="28.1" height="5.5"/>
	
		<text id="XMLID_7494_" transform="matrix(1 0 0 1 2192.0781 480.4742)" class="st0" style="font-family:'STHeitiSC-Light'; font-size:5.9138px;">T02367</text>
	<rect id="XMLID_7493_" x="2166.1" y="481.7" style="fill:none;" width="5.5" height="18.9"/>
	
		<text id="XMLID_7492_" transform="matrix(0 1 -1 0 2166.9326 481.714)" class="st0" style="font-family:'STHeitiSC-Light'; font-size:5.9138px;">T0231</text>
	<rect id="XMLID_7491_" x="2166.1" y="526.6" style="fill:none;" width="5.5" height="18.9"/>
	
		<text id="XMLID_7490_" transform="matrix(0 1 -1 0 2166.9326 526.589)" class="st0" style="font-family:'STHeitiSC-Light'; font-size:5.9138px;">T0232</text>
	<rect id="XMLID_7489_" x="2166.1" y="548.1" style="fill:none;" width="5.5" height="18.9"/>
	
		<text id="XMLID_7488_" transform="matrix(0 1 -1 0 2166.9326 548.089)" class="st0" style="font-family:'STHeitiSC-Light'; font-size:5.9138px;">T0132</text>
	<rect id="XMLID_7487_" x="2166.1" y="593" style="fill:none;" width="5.5" height="18.9"/>
	
		<text id="XMLID_7486_" transform="matrix(0 1 -1 0 2166.9326 592.964)" class="st0" style="font-family:'STHeitiSC-Light'; font-size:5.9138px;">T0131</text>
	<rect id="XMLID_7485_" x="2166.1" y="614.5" style="fill:none;" width="5.5" height="18.9"/>
	
		<text id="XMLID_7484_" transform="matrix(0 1 -1 0 2166.9326 614.5181)" class="st0" style="font-family:'STHeitiSC-Light'; font-size:5.9138px;">T0122</text>
	<rect id="XMLID_7483_" x="2166.1" y="659.4" style="fill:none;" width="5.5" height="18.9"/>
	
		<text id="XMLID_7482_" transform="matrix(0 1 -1 0 2166.9326 659.3931)" class="st0" style="font-family:'STHeitiSC-Light'; font-size:5.9138px;">T0121</text>
	<rect id="XMLID_7481_" x="2130" y="487.4" style="fill:none;" width="18.9" height="5.5"/>
	
		<text id="XMLID_7480_" transform="matrix(1 0 0 1 2130.0122 492.1168)" class="st0" style="font-family:'STHeitiSC-Light'; font-size:5.9138px;">T02317</text>
	<rect id="XMLID_7479_" x="2129" y="527.6" style="fill:none;" width="21.9" height="5.5"/>
	
		<text id="XMLID_7478_" transform="matrix(1 0 0 1 2129.012 532.3668)" class="st0" style="font-family:'STHeitiSC-Light'; font-size:5.9138px;">T02327</text>
	<rect id="XMLID_7477_" x="2129" y="556.8" style="fill:none;" width="18.9" height="5.5"/>
	
		<text id="XMLID_7476_" transform="matrix(1 0 0 1 2129.0122 561.4918)" class="st0" style="font-family:'STHeitiSC-Light'; font-size:5.9138px;">T01327</text>
	<rect id="XMLID_7475_" x="2129" y="585.9" style="fill:none;" width="18.9" height="5.5"/>
	
		<text id="XMLID_7474_" transform="matrix(1 0 0 1 2129.0122 590.6168)" class="st0" style="font-family:'STHeitiSC-Light'; font-size:5.9138px;">T01317</text>
	<rect id="XMLID_7473_" x="2129" y="608.6" style="fill:none;" width="18.9" height="5.5"/>
	
		<text id="XMLID_7472_" transform="matrix(1 0 0 1 2129.0122 613.313)" class="st0" style="font-family:'STHeitiSC-Light'; font-size:5.9138px;">T01367</text>
	<rect id="XMLID_7471_" x="2129" y="631.2" style="fill:none;" width="18.9" height="5.5"/>
	
		<text id="XMLID_7470_" transform="matrix(1 0 0 1 2129.0122 635.9479)" class="st0" style="font-family:'STHeitiSC-Light'; font-size:5.9138px;">T01227</text>
	<rect id="XMLID_7469_" x="2129" y="661" style="fill:none;" width="18.9" height="5.5"/>
	
		<text id="XMLID_7468_" transform="matrix(1 0 0 1 2129.0122 665.7645)" class="st0" style="font-family:'STHeitiSC-Light'; font-size:5.9138px;">T01217</text>
	<rect id="XMLID_7467_" x="2207.2" y="728.9" style="fill:none;" width="18.9" height="5.5"/>
	
		<text id="XMLID_7466_" transform="matrix(1 0 0 1 2207.1621 733.6137)" class="st0" style="font-family:'STHeitiSC-Light'; font-size:5.9138px;">T01117</text>
	<rect id="XMLID_7465_" x="2195.9" y="712.4" style="fill:none;" width="18.9" height="5.5"/>
	
		<text id="XMLID_7464_" transform="matrix(1 0 0 1 2195.9404 717.1823)" class="st0" style="font-family:'STHeitiSC-Light'; font-size:5.9138px;">T0111</text>
	<g id="XMLID_7459_">
		<path class="st0" d="M2157.9,334.6l-3-3.1h-2.3V331h2.4c0.1,0,0.1,0,0.2,0.1l3,3.2L2157.9,334.6z"/>
		<rect x="2152.1" y="329.3" class="st0" width="0.8" height="3.9"/>
		<rect x="2150.9" y="329.8" class="st0" width="0.8" height="2.9"/>
		<rect x="2149.8" y="330.4" class="st0" width="0.8" height="1.8"/>
	</g>
	<g id="XMLID_7454_">
		<path class="st0" d="M2157.9,349.1l-3-3.1h-2.3v-0.5h2.4c0.1,0,0.1,0,0.2,0.1l3,3.2L2157.9,349.1z"/>
		<rect x="2152.1" y="343.8" class="st0" width="0.8" height="3.9"/>
		<rect x="2150.9" y="344.3" class="st0" width="0.8" height="2.9"/>
		<rect x="2149.8" y="344.9" class="st0" width="0.8" height="1.8"/>
	</g>
	<g id="XMLID_7449_">
		<path class="st0" d="M2157.9,363.7l-3-3.1h-2.3v-0.5h2.4c0.1,0,0.1,0,0.2,0.1l3,3.2L2157.9,363.7z"/>
		<rect x="2152.1" y="358.4" class="st0" width="0.8" height="3.9"/>
		<rect x="2150.9" y="358.9" class="st0" width="0.8" height="2.9"/>
		<rect x="2149.8" y="359.5" class="st0" width="0.8" height="1.8"/>
	</g>
	<g id="XMLID_7444_">
		<path class="st0" d="M2157.9,400.9l-3-3.1h-2.3v-0.5h2.4c0.1,0,0.1,0,0.2,0.1l3,3.2L2157.9,400.9z"/>
		<rect x="2152.1" y="395.7" class="st0" width="0.8" height="3.9"/>
		<rect x="2150.9" y="396.2" class="st0" width="0.8" height="2.9"/>
		<rect x="2149.8" y="396.7" class="st0" width="0.8" height="1.8"/>
	</g>
	<g id="XMLID_7439_">
		<path class="st0" d="M2157.2,429.8l-3-3.1h-2.3v-0.5h2.4c0.1,0,0.1,0,0.2,0.1l3,3.2L2157.2,429.8z"/>
		<rect x="2151.4" y="424.5" class="st0" width="0.8" height="3.9"/>
		<rect x="2150.2" y="425.1" class="st0" width="0.8" height="2.9"/>
		<rect x="2149.1" y="425.6" class="st0" width="0.8" height="1.8"/>
	</g>
	<g id="XMLID_7434_">
		<path class="st0" d="M2157.9,467.4l-3-3.1h-2.3v-0.5h2.4c0.1,0,0.1,0,0.2,0.1l3,3.2L2157.9,467.4z"/>
		<rect x="2152.1" y="462.1" class="st0" width="0.8" height="3.9"/>
		<rect x="2150.9" y="462.6" class="st0" width="0.8" height="2.9"/>
		<rect x="2149.8" y="463.1" class="st0" width="0.8" height="1.8"/>
	</g>
	<g id="XMLID_7429_">
		<path class="st0" d="M2157.2,496.5l-3-3.1h-2.3v-0.5h2.4c0.1,0,0.1,0,0.2,0.1l3,3.2L2157.2,496.5z"/>
		<rect x="2151.4" y="491.2" class="st0" width="0.8" height="3.9"/>
		<rect x="2150.2" y="491.7" class="st0" width="0.8" height="2.9"/>
		<rect x="2149.1" y="492.3" class="st0" width="0.8" height="1.8"/>
	</g>
	<g id="XMLID_7424_">
		<path class="st0" d="M2173.7,481.7l-0.4-0.3l3-3.2c0,0,0.1-0.1,0.2-0.1h2.4v0.5h-2.3L2173.7,481.7z"/>
		<rect x="2178.7" y="476.4" class="st0" width="0.8" height="3.9"/>
		<rect x="2179.9" y="477" class="st0" width="0.8" height="2.9"/>
		<rect x="2181.1" y="477.5" class="st0" width="0.8" height="1.8"/>
	</g>
	<g id="XMLID_7419_">
		<path class="st0" d="M2157.9,533.7l-3-3.1h-2.3v-0.5h2.4c0.1,0,0.1,0,0.2,0.1l3,3.2L2157.9,533.7z"/>
		<rect x="2152.1" y="528.4" class="st0" width="0.8" height="3.9"/>
		<rect x="2150.9" y="529" class="st0" width="0.8" height="2.9"/>
		<rect x="2149.8" y="529.5" class="st0" width="0.8" height="1.8"/>
	</g>
	<g id="XMLID_7414_">
		<path class="st0" d="M2157.9,562.9l-3-3.1h-2.3v-0.5h2.4c0.1,0,0.1,0,0.2,0.1l3,3.2L2157.9,562.9z"/>
		<rect x="2152.1" y="557.6" class="st0" width="0.8" height="3.9"/>
		<rect x="2150.9" y="558.1" class="st0" width="0.8" height="2.9"/>
		<rect x="2149.8" y="558.6" class="st0" width="0.8" height="1.8"/>
	</g>
	<g id="XMLID_7409_">
		<path class="st0" d="M2157.9,600.2l-3-3.1h-2.3v-0.5h2.4c0.1,0,0.1,0,0.2,0.1l3,3.2L2157.9,600.2z"/>
		<rect x="2152.1" y="594.9" class="st0" width="0.8" height="3.9"/>
		<rect x="2150.9" y="595.5" class="st0" width="0.8" height="2.9"/>
		<rect x="2149.8" y="596" class="st0" width="0.8" height="1.8"/>
	</g>
	<g id="XMLID_7404_">
		<path class="st0" d="M2157.9,629.3l-3-3.1h-2.3v-0.5h2.4c0.1,0,0.1,0,0.2,0.1l3,3.2L2157.9,629.3z"/>
		<rect x="2152.1" y="624" class="st0" width="0.8" height="3.9"/>
		<rect x="2150.9" y="624.5" class="st0" width="0.8" height="2.9"/>
		<rect x="2149.8" y="625.1" class="st0" width="0.8" height="1.8"/>
	</g>
	<g id="XMLID_7399_">
		<path class="st0" d="M2157.2,666.2l-3-3.1h-2.3v-0.5h2.4c0.1,0,0.1,0,0.2,0.1l3,3.2L2157.2,666.2z"/>
		<rect x="2151.4" y="660.9" class="st0" width="0.8" height="3.9"/>
		<rect x="2150.2" y="661.5" class="st0" width="0.8" height="2.9"/>
		<rect x="2149.1" y="662" class="st0" width="0.8" height="1.8"/>
	</g>
	<g id="XMLID_7394_">
		<path class="st0" d="M2194.4,734.8l-0.4-0.3l3-3.2c0,0,0.1-0.1,0.2-0.1h2.4v0.5h-2.3L2194.4,734.8z"/>
		<rect x="2199.4" y="729.5" class="st0" width="0.8" height="3.9"/>
		<rect x="2200.6" y="730.1" class="st0" width="0.8" height="2.9"/>
		<rect x="2201.8" y="730.6" class="st0" width="0.8" height="1.8"/>
	</g>
	<rect id="XMLID_7393_" x="2128.8" y="10.9" style="fill:none;" width="18.9" height="5.5"/>
	
		<text id="XMLID_7392_" transform="matrix(1 0 0 1 2128.7993 15.6155)" class="st0" style="font-family:'STHeitiSC-Light'; font-size:5.9138px;">T04167</text>
	<path id="XMLID_7391_" class="st0" d="M2047.1,79.8l1.1-1.1c0.2-0.2,0.5-0.2,0.6,0l1.1,1.1c0.2,0.2,0.2,0.5,0,0.6l-1.1,1.1
		c-0.2,0.2-0.5,0.2-0.6,0l-1.1-1.1C2046.9,80.3,2046.9,80,2047.1,79.8z"/>
	<g id="XMLID_7381_">
		
			<rect x="2048.3" y="81" transform="matrix(1 -3.780070e-03 3.780070e-03 1 -0.3254 7.7444)" class="st0" width="0.5" height="17.8"/>
		<path class="st0" d="M2046.7,103l-0.1-11.7l4.1,0l0.1,11.7L2046.7,103z M2047.1,91.8l0.1,10.7l3.1,0l-0.1-10.7L2047.1,91.8z"/>
		
			<rect id="XMLID_7388_" x="2049.4" y="94" transform="matrix(1 -5.578222e-03 5.578222e-03 1 -0.4971 11.4365)" class="st0" width="1" height="1.6"/>
		
			<rect id="XMLID_7387_" x="2047.1" y="94" transform="matrix(1 -5.578222e-03 5.578222e-03 1 -0.4972 11.4233)" class="st0" width="1" height="1.6"/>
		
			<rect id="XMLID_7386_" x="2047.9" y="95.6" transform="matrix(1 -5.578222e-03 5.578222e-03 1 -0.5068 11.4293)" class="st0" width="1.6" height="1.8"/>
		
			<rect x="2048.3" y="102.7" transform="matrix(1 -5.797004e-03 5.797004e-03 1 -0.5677 11.8782)" class="st0" width="0.8" height="2.4"/>
		
			<rect x="2046.5" y="105" transform="matrix(1 -5.208263e-03 5.208263e-03 1 -0.5208 10.6717)" class="st0" width="4.4" height="0.8"/>
		
			<rect x="2047.4" y="106" transform="matrix(1 -5.208263e-03 5.208263e-03 1 -0.5264 10.6718)" class="st0" width="2.7" height="0.8"/>
		
			<rect x="2047.8" y="107.1" transform="matrix(1 -5.208263e-03 5.208263e-03 1 -0.532 10.6716)" class="st0" width="1.9" height="0.8"/>
	</g>
	<path id="XMLID_7380_" class="st0" d="M2127.6,79.8l1.1-1.1c0.2-0.2,0.5-0.2,0.6,0l1.1,1.1c0.2,0.2,0.2,0.5,0,0.6l-1.1,1.1
		c-0.2,0.2-0.5,0.2-0.6,0l-1.1-1.1C2127.4,80.3,2127.4,80,2127.6,79.8z"/>
	<path class="st0" d="M2118.6,102.8c-1.5,0-2.8-1.3-2.8-2.8c0-1.5,1.3-2.8,2.8-2.8s2.8,1.3,2.8,2.8
		C2121.4,101.5,2120.1,102.8,2118.6,102.8z M2118.6,97.7c-1.3,0-2.3,1-2.3,2.3s1,2.3,2.3,2.3s2.3-1,2.3-2.3S2119.8,97.7,2118.6,97.7
		z"/>
	<path class="st0" d="M2121.4,99.9c-1.5,0-2.8-1.3-2.8-2.8c0-1.5,1.3-2.8,2.8-2.8s2.8,1.3,2.8,2.8
		C2124.2,98.7,2122.9,99.9,2121.4,99.9z M2121.4,94.9c-1.3,0-2.3,1-2.3,2.3s1,2.3,2.3,2.3s2.3-1,2.3-2.3S2122.6,94.9,2121.4,94.9z"
		/>
	<path class="st0" d="M2121.5,105c-1.5,0-2.8-1.3-2.8-2.8s1.3-2.8,2.8-2.8s2.8,1.3,2.8,2.8S2123.1,105,2121.5,105z M2121.5,99.9
		c-1.3,0-2.3,1-2.3,2.3s1,2.3,2.3,2.3s2.3-1,2.3-2.3S2122.8,99.9,2121.5,99.9z"/>
	<path class="st0" d="M2118.6,97.9c-1.5,0-2.8-1.3-2.8-2.8c0-1.5,1.3-2.8,2.8-2.8s2.8,1.3,2.8,2.8
		C2121.4,96.6,2120.1,97.9,2118.6,97.9z M2118.6,92.8c-1.3,0-2.3,1-2.3,2.3s1,2.3,2.3,2.3s2.3-1,2.3-2.3S2119.8,92.8,2118.6,92.8z"
		/>
	<polygon class="st0" points="2117.7,96.3 2117.3,96 2118,95.1 2117.2,94.2 2117.5,93.9 2118.7,95.1 	"/>
	<rect x="2118.3" y="94.9" class="st0" width="0.8" height="0.5"/>
	<polygon class="st0" points="2121.2,103.3 2120.8,102.9 2121.6,102.2 2120.8,101.2 2121.2,100.9 2122.3,102.2 	"/>
	
		<rect x="2122.1" y="101.8" transform="matrix(7.790586e-02 -0.997 0.997 7.790586e-02 1855.1111 2210.1523)" class="st0" width="0.5" height="0.8"/>
	<polygon class="st0" points="2121.4,98.7 2121.1,98.4 2121.8,97.6 2120.9,96.7 2121.3,96.3 2122.4,97.6 	"/>
	<rect x="2122.1" y="97.3" class="st0" width="0.8" height="0.5"/>
	<path class="st0" d="M2121.5,95.9c-1.5,0-2.8-1.3-2.8-2.8c0-1.5,1.3-2.8,2.8-2.8s2.8,1.3,2.8,2.8
		C2124.3,94.7,2123.1,95.9,2121.5,95.9z M2121.5,90.8c-1.3,0-2.3,1-2.3,2.3s1,2.3,2.3,2.3s2.3-1,2.3-2.3S2122.8,90.8,2121.5,90.8z"
		/>
	<polygon class="st0" points="2120.7,93.6 2120.4,93.3 2121.6,92.1 2122.8,93.1 2122.4,93.5 2121.6,92.8 	"/>
	<rect x="2121.4" y="91.6" class="st0" width="0.5" height="0.8"/>
	<rect x="2128.6" y="81.6" class="st0" width="0.5" height="11.1"/>
	<rect x="2128.6" y="94.3" class="st0" width="0.5" height="6.6"/>
	<rect x="2128.6" y="102.7" class="st0" width="0.5" height="1.7"/>
	<rect x="2126.6" y="92.5" class="st0" width="4.9" height="0.5"/>
	<rect x="2126.6" y="94" class="st0" width="4.9" height="0.5"/>
	<rect x="2126.6" y="100.8" class="st0" width="4.9" height="0.5"/>
	<rect x="2126.6" y="102.2" class="st0" width="4.9" height="0.5"/>
	<rect x="2113.3" y="97.3" class="st0" width="15.4" height="0.5"/>
	<path class="st0" d="M2118.6,101.4c-0.1,0-0.1,0-0.2-0.1l-1.3-1.3l0.3-0.4l0.9,0.9v-1.8l-0.9,0.7l-0.3-0.4l1.3-1
		c0.1-0.1,0.2-0.1,0.3,0c0.1,0,0.1,0.1,0.1,0.2v2.9C2118.8,101.3,2118.8,101.4,2118.6,101.4C2118.6,101.4,2118.6,101.4,2118.6,101.4
		z"/>
	<rect x="2127.2" y="104.2" class="st0" width="3.6" height="0.5"/>
	<rect x="2127.7" y="105.4" class="st0" width="2.5" height="0.5"/>
	<rect x="2128.2" y="106.5" class="st0" width="1.7" height="0.5"/>
	<rect id="XMLID_7354_" x="2031.1" y="33.7" style="fill:none;" width="20.3" height="5.5"/>
	
		<text id="XMLID_7353_" transform="matrix(1 0 0 1 2031.1223 38.4488)" class="st0" style="font-family:'STHeitiSC-Light'; font-size:5.9138px;">T40017</text>
	<rect id="XMLID_7352_" x="2031.1" y="56.4" style="fill:none;" width="20.3" height="5.5"/>
	
		<text id="XMLID_7351_" transform="matrix(1 0 0 1 2031.1223 61.1096)" class="st0" style="font-family:'STHeitiSC-Light'; font-size:5.9138px;">T4007</text>
	<g id="XMLID_7346_">
		<path class="st0" d="M2020.3,39.9l-0.4-0.3l3-3.2c0,0,0.1-0.1,0.2-0.1h2.4v0.5h-2.3L2020.3,39.9z"/>
		<rect x="2025.3" y="34.6" class="st0" width="0.8" height="3.9"/>
		<rect x="2026.5" y="35.1" class="st0" width="0.8" height="2.9"/>
		<rect x="2027.6" y="35.7" class="st0" width="0.8" height="1.8"/>
	</g>
	<g id="XMLID_7341_">
		<path class="st0" d="M2020.3,61.9l-0.4-0.3l3-3.2c0,0,0.1-0.1,0.2-0.1h2.4v0.5h-2.3L2020.3,61.9z"/>
		<rect x="2025.3" y="56.6" class="st0" width="0.8" height="3.9"/>
		<rect x="2026.5" y="57.1" class="st0" width="0.8" height="2.9"/>
		<rect x="2027.6" y="57.7" class="st0" width="0.8" height="1.8"/>
	</g>
	<rect id="XMLID_7340_" x="1991.5" y="122.8" style="fill:none;" width="49.1" height="24.5"/>
	<text id="XMLID_7339_" transform="matrix(1 0 0 1 1994.0148 130.9805)"><tspan x="0" y="0" class="st0" style="font-family:'SourceHanSansCN-Normal-GBpc-EUC-H'; font-size:9.2931px;">至220千伏</tspan><tspan x="6" y="8.8" class="st0" style="font-family:'SourceHanSansCN-Normal-GBpc-EUC-H'; font-size:9.2931px;">一/二母</tspan></text>
	<path id="XMLID_7338_" class="st0" d="M2014.5,101.2l1.1-1.1c0.2-0.2,0.5-0.2,0.6,0l1.1,1.1c0.2,0.2,0.2,0.5,0,0.6l-1.1,1.1
		c-0.2,0.2-0.5,0.2-0.6,0l-1.1-1.1C2014.4,101.7,2014.4,101.4,2014.5,101.2z"/>
	<rect x="2003.4" y="101.3" class="st0" width="12.1" height="0.5"/>
	<path class="st0" d="M2011,103.6h-11.7v-4.1h11.7V103.6z M1999.8,103.1h10.7v-3.1h-10.7V103.1z"/>
	
		<rect id="XMLID_7335_" x="2006.9" y="102.1" transform="matrix(-1.836970e-16 1 -1 -1.836970e-16 2110.2974 -1904.5514)" class="st0" width="1" height="1.6"/>
	
		<rect id="XMLID_7334_" x="2006.9" y="99.7" transform="matrix(-1.836970e-16 1 -1 -1.836970e-16 2107.939 -1906.9099)" class="st0" width="1" height="1.6"/>
	
		<rect id="XMLID_7333_" x="2004.9" y="100.7" transform="matrix(-1.836970e-16 1 -1 -1.836970e-16 2107.27 -1904.129)" class="st0" width="1.6" height="1.8"/>
	<rect x="1997.2" y="101.2" class="st0" width="2.4" height="0.8"/>
	<rect x="1996.6" y="99.4" class="st0" width="0.8" height="4.4"/>
	<rect x="1995.5" y="100.3" class="st0" width="0.8" height="2.7"/>
	<rect x="1994.4" y="100.6" class="st0" width="0.8" height="1.9"/>
	<rect x="1986" y="27.5" class="st0" width="0.8" height="4.4"/>
	<rect x="1984.6" y="28.3" class="st0" width="0.8" height="2.7"/>
	<rect x="1982.7" y="28.7" class="st0" width="0.8" height="1.9"/>
	<path class="st0" d="M2016.1,94.4c-7.7,0-14-6.3-14-14s6.3-14,14-14s14,6.3,14,14S2023.8,94.4,2016.1,94.4z M2016.1,67.2
		c-7.3,0-13.2,5.9-13.2,13.2s5.9,13.2,13.2,13.2c7.3,0,13.2-5.9,13.2-13.2S2023.4,67.2,2016.1,67.2z"/>
	<path class="st0" d="M1994.4,95c-7.7,0-14-6.3-14-14s6.3-14,14-14s14,6.3,14,14S2002.1,95,1994.4,95z M1994.4,67.8
		c-7.3,0-13.2,5.9-13.2,13.2s5.9,13.2,13.2,13.2c7.3,0,13.2-5.9,13.2-13.2S2001.6,67.8,1994.4,67.8z"/>
	<polygon class="st0" points="2011.3,91.5 2010.6,91.2 2015.2,80.7 2026.8,80.7 2026.8,81.4 2015.7,81.4 	"/>
	
		<rect x="2012.9" y="70.8" transform="matrix(0.9085 -0.418 0.418 0.9085 152.4501 848.4141)" class="st0" width="0.8" height="10.8"/>
	<path class="st0" d="M1998.7,89.7l-15.2-8.7l15.2-10.5V89.7z M1984.9,81l13,7.4V72L1984.9,81z"/>
	<path class="st0" d="M1980.7,80.7h-56c-0.2,0-0.4-0.2-0.4-0.4s0.2-0.4,0.4-0.4h56V80.7z"/>
	<path class="st0" d="M2016.1,30.2h-11.2c-0.2,0-0.4-0.2-0.4-0.4v-2.4h-1.8v2.4c0,0.2-0.2,0.4-0.4,0.4h-2.9c-0.2,0-0.4-0.2-0.4-0.4
		v-2.4h-1.9v2.4c0,0.2-0.2,0.4-0.4,0.4h-2.7c-0.2,0-0.4-0.2-0.4-0.4v-2.7h-1.8v2.7c0,0.2-0.2,0.4-0.4,0.4h-4.7v-0.8h4.3v-2.7
		c0-0.2,0.2-0.4,0.4-0.4h2.5c0.2,0,0.4,0.2,0.4,0.4v2.7h2V27c0-0.2,0.2-0.4,0.4-0.4h2.7c0.2,0,0.4,0.2,0.4,0.4v2.4h2.1V27
		c0-0.2,0.2-0.4,0.4-0.4h2.5c0.2,0,0.4,0.2,0.4,0.4v2.4h10.8V30.2z"/>
	<path class="st0" d="M1996,33h-6.7c-0.2,0-0.4-0.2-0.4-0.4v-2.6h0.8v2.2h4.9l-1-0.6l0.4-0.6l2.3,1.3c0.1,0.1,0.2,0.3,0.2,0.4
		S1996.1,33,1996,33z"/>
	
		<rect x="2000.9" y="32.6" transform="matrix(0.8087 -0.5882 0.5882 0.8087 362.9319 1183.6544)" class="st0" width="0.8" height="2.4"/>
	
		<rect x="1994.1" y="33.3" transform="matrix(0.5879 -0.809 0.809 0.5879 795.1207 1627.9592)" class="st0" width="2.4" height="0.8"/>
	<path class="st0" d="M2007,33.3h-6.5c-0.2,0-0.3-0.1-0.4-0.2s0-0.3,0.1-0.4l1.6-1.4l0.5,0.6l-0.9,0.8h5.1v-2.4h0.8v2.8
		C2007.4,33.1,2007.2,33.3,2007,33.3z"/>
	<g id="XMLID_7312_">
		<path id="XMLID_7314_" class="st0" d="M2016.5,35.9h-0.8c-0.5,0-1,0.9-1,0.9v0l0,0c0,0,0.5,0.9,1,0.9h0.8c0.2,0,0.3-0.2,0.3-0.3
			l0-0.5l0-0.5C2016.8,36,2016.7,35.9,2016.5,35.9z"/>
		<polygon class="st0" points="2019.7,37.8 2019.2,37.8 2019.2,36.8 2016.7,36.8 2016.7,36.3 2019.7,36.3 		"/>
	</g>
	<g id="XMLID_7309_">
		<path id="XMLID_7311_" class="st0" d="M2016.5,57.9h-0.8c-0.5,0-1,0.9-1,0.9v0l0,0c0,0,0.5,0.9,1,0.9h0.8c0.2,0,0.3-0.2,0.3-0.3
			l0-0.5l0-0.5C2016.8,58,2016.7,57.9,2016.5,57.9z"/>
		<polygon class="st0" points="2019.7,59.7 2019.2,59.7 2019.2,58.8 2016.7,58.8 2016.7,58.3 2019.7,58.3 		"/>
	</g>
	<path class="st0" d="M2016.1,116.7C2016.1,116.7,2016,116.7,2016.1,116.7c-0.2,0-0.3-0.1-0.3-0.3V94h0.5v21.2l0.7-1.6l0.5,0.2
		l-1.2,2.6C2016.3,116.6,2016.2,116.7,2016.1,116.7z"/>
	<polygon class="st0" points="2015.9,116.6 2014,114.1 2014.4,113.8 2016.3,116.3 	"/>
	<rect x="2015.7" y="29.5" class="st0" width="0.8" height="51"/>
	<rect x="2113" y="95.6" class="st0" width="0.5" height="3.6"/>
	<rect x="2111.9" y="96.2" class="st0" width="0.5" height="2.5"/>
	<rect x="2110.8" y="96.5" class="st0" width="0.5" height="1.7"/>
	<path id="XMLID_7302_" class="st0" d="M2260.7,293.2l1.1-1.1c0.2-0.2,0.5-0.2,0.6,0l1.1,1.1c0.2,0.2,0.2,0.5,0,0.6l-1.1,1.1
		c-0.2,0.2-0.5,0.2-0.6,0l-1.1-1.1C2260.5,293.7,2260.5,293.4,2260.7,293.2z"/>
	<g id="XMLID_7292_">
		
			<rect x="2261.9" y="294.4" transform="matrix(1 -3.779966e-03 3.779966e-03 1 -1.1304 8.5529)" class="st0" width="0.5" height="17.8"/>
		<path class="st0" d="M2260.2,316.3l-0.1-11.7l4.1,0l0.1,11.7L2260.2,316.3z M2260.7,305.1l0.1,10.7l3.1,0l-0.1-10.7L2260.7,305.1z
			"/>
		
			<rect id="XMLID_7299_" x="2263" y="307.4" transform="matrix(1 -5.578222e-03 5.578222e-03 1 -1.6839 12.631)" class="st0" width="1" height="1.6"/>
		
			<rect id="XMLID_7298_" x="2260.6" y="307.4" transform="matrix(1 -5.578222e-03 5.578222e-03 1 -1.6841 12.6178)" class="st0" width="1" height="1.6"/>
		
			<rect id="XMLID_7297_" x="2261.4" y="309" transform="matrix(1 -5.578222e-03 5.578222e-03 1 -1.6936 12.6238)" class="st0" width="1.6" height="1.8"/>
		
			<rect x="2261.9" y="316" transform="matrix(1 -5.797004e-03 5.797004e-03 1 -1.801 13.1197)" class="st0" width="0.8" height="2.4"/>
		
			<rect x="2260.1" y="318.3" transform="matrix(1 -5.208263e-03 5.208263e-03 1 -1.6291 11.7868)" class="st0" width="4.4" height="0.8"/>
		
			<rect x="2260.9" y="319.4" transform="matrix(1 -5.208263e-03 5.208263e-03 1 -1.6347 11.7869)" class="st0" width="2.7" height="0.8"/>
		
			<rect x="2261.3" y="320.5" transform="matrix(1 -5.208263e-03 5.208263e-03 1 -1.6403 11.7867)" class="st0" width="1.9" height="0.8"/>
	</g>
	<path id="XMLID_7291_" class="st0" d="M2279.6,250.2l-1.1-1.1c-0.2-0.2-0.2-0.5,0-0.6l1.1-1.1c0.2-0.2,0.5-0.2,0.6,0l1.1,1.1
		c0.2,0.2,0.2,0.5,0,0.6l-1.1,1.1C2280.1,250.4,2279.8,250.4,2279.6,250.2z"/>
	<path id="XMLID_7290_" class="st0" d="M2279.6,214.4l-1.1-1.1c-0.2-0.2-0.2-0.5,0-0.6l1.1-1.1c0.2-0.2,0.5-0.2,0.6,0l1.1,1.1
		c0.2,0.2,0.2,0.5,0,0.6l-1.1,1.1C2280.1,214.6,2279.8,214.6,2279.6,214.4z"/>
	<path id="XMLID_7289_" class="st0" d="M2254.3,147.9l-1.4-1.4c-0.2-0.2-0.2-0.6,0-0.8l1.4-1.4c0.2-0.2,0.6-0.2,0.8,0l1.4,1.4
		c0.2,0.2,0.2,0.6,0,0.8l-1.4,1.4C2254.9,148.2,2254.5,148.2,2254.3,147.9z"/>
	<path id="XMLID_7288_" class="st0" d="M2190.1-5.6l-1.4-1.4c-0.2-0.2-0.2-0.6,0-0.8l1.4-1.4c0.2-0.2,0.6-0.2,0.8,0l1.4,1.4
		c0.2,0.2,0.2,0.6,0,0.8l-1.4,1.4C2190.7-5.4,2190.3-5.4,2190.1-5.6z"/>
	<path id="XMLID_7287_" class="st0" d="M2190.7-39.3h-0.9c-0.2,0-0.3-0.1-0.3-0.3v-0.9c0-0.2,0.1-0.3,0.3-0.3h0.9
		c0.2,0,0.3,0.1,0.3,0.3v0.9C2191-39.4,2190.9-39.3,2190.7-39.3z"/>
	<path id="XMLID_7286_" class="st0" d="M2191-51.8h-0.9c-0.2,0-0.3-0.1-0.3-0.3V-53c0-0.2,0.1-0.3,0.3-0.3h0.9
		c0.2,0,0.3,0.1,0.3,0.3v0.9C2191.2-52,2191.1-51.8,2191-51.8z"/>
	<path id="XMLID_7285_" class="st0" d="M2162.3-51.8h-0.9c-0.2,0-0.3-0.1-0.3-0.3V-53c0-0.2,0.1-0.3,0.3-0.3h0.9
		c0.2,0,0.3,0.1,0.3,0.3v0.9C2162.5-52,2162.4-51.8,2162.3-51.8z"/>
	<path id="XMLID_7284_" class="st0" d="M2253.8,546.6l-1.4-1.4c-0.2-0.2-0.2-0.6,0-0.8l1.4-1.4c0.2-0.2,0.6-0.2,0.8,0l1.4,1.4
		c0.2,0.2,0.2,0.6,0,0.8l-1.4,1.4C2254.4,546.8,2254,546.8,2253.8,546.6z"/>
	<path class="st0" d="M2306.2,268.6c-1.5,0-2.8-1.3-2.8-2.8s1.3-2.8,2.8-2.8s2.8,1.3,2.8,2.8S2307.8,268.6,2306.2,268.6z
		 M2306.2,263.5c-1.3,0-2.3,1-2.3,2.3s1,2.3,2.3,2.3c1.3,0,2.3-1,2.3-2.3S2307.5,263.5,2306.2,263.5z"/>
	<path class="st0" d="M2303.4,265.8c-1.5,0-2.8-1.3-2.8-2.8c0-1.5,1.3-2.8,2.8-2.8s2.8,1.3,2.8,2.8
		C2306.2,264.5,2305,265.8,2303.4,265.8z M2303.4,260.7c-1.3,0-2.3,1-2.3,2.3s1,2.3,2.3,2.3s2.3-1,2.3-2.3
		S2304.7,260.7,2303.4,260.7z"/>
	<path class="st0" d="M2308.5,265.7c-1.5,0-2.8-1.3-2.8-2.8s1.3-2.8,2.8-2.8s2.8,1.3,2.8,2.8S2310.1,265.7,2308.5,265.7z
		 M2308.5,260.6c-1.3,0-2.3,1-2.3,2.3s1,2.3,2.3,2.3s2.3-1,2.3-2.3S2309.8,260.6,2308.5,260.6z"/>
	<path class="st0" d="M2301.4,268.6c-1.5,0-2.8-1.3-2.8-2.8s1.3-2.8,2.8-2.8s2.8,1.3,2.8,2.8S2302.9,268.6,2301.4,268.6z
		 M2301.4,263.5c-1.3,0-2.3,1-2.3,2.3s1,2.3,2.3,2.3s2.3-1,2.3-2.3S2302.6,263.5,2301.4,263.5z"/>
	<polygon class="st0" points="2300.5,267.2 2300.1,266.9 2301.4,265.7 2302.6,266.7 2302.2,267.1 2301.4,266.4 	"/>
	<rect x="2301.1" y="265.2" class="st0" width="0.5" height="0.8"/>
	<polygon class="st0" points="2309.2,263.6 2308.4,262.8 2307.4,263.5 2307.1,263.2 2308.5,262.1 2309.5,263.2 	"/>
	
		<rect x="2308.1" y="261.8" transform="matrix(7.819124e-02 -0.9969 0.9969 7.819124e-02 1866.7457 2542.9534)" class="st0" width="0.8" height="0.5"/>
	<polygon class="st0" points="2302.9,263.5 2302.6,263.1 2303.9,262 2305,263 2304.7,263.3 2303.9,262.6 	"/>
	<rect x="2303.6" y="261.5" class="st0" width="0.5" height="0.8"/>
	<path class="st0" d="M2299.4,265.7c-1.5,0-2.8-1.3-2.8-2.8s1.3-2.8,2.8-2.8s2.8,1.3,2.8,2.8S2300.9,265.7,2299.4,265.7z
		 M2299.4,260.6c-1.3,0-2.3,1-2.3,2.3s1,2.3,2.3,2.3s2.3-1,2.3-2.3S2300.6,260.6,2299.4,260.6z"/>
	<polygon class="st0" points="2299.5,264 2298.4,262.8 2299.4,261.6 2299.8,262 2299.1,262.8 2299.9,263.7 	"/>
	<rect x="2297.9" y="262.5" class="st0" width="0.8" height="0.5"/>
	<rect x="2280.9" y="248.7" class="st0" width="18" height="0.5"/>
	<rect x="2300.5" y="248.7" class="st0" width="6.6" height="0.5"/>
	<rect x="2309" y="248.7" class="st0" width="1.7" height="0.5"/>
	<rect x="2298.8" y="246.4" class="st0" width="0.5" height="4.9"/>
	<rect x="2300.3" y="246.4" class="st0" width="0.5" height="4.9"/>
	<rect x="2307" y="246.4" class="st0" width="0.5" height="4.9"/>
	<rect x="2308.5" y="246.4" class="st0" width="0.5" height="4.9"/>
	<rect x="2303.6" y="249" class="st0" width="0.5" height="24.3"/>
	<path class="st0" d="M2306.3,267.3l-0.4-0.3l0.9-0.9h-1.8l0.7,0.9l-0.4,0.3l-1-1.3c-0.1-0.1-0.1-0.2,0-0.3c0-0.1,0.1-0.1,0.2-0.1
		h2.9c0.1,0,0.2,0.1,0.2,0.2c0,0.1,0,0.2,0,0.3L2306.3,267.3z"/>
	<rect x="2310.5" y="247" class="st0" width="0.5" height="3.6"/>
	<rect x="2311.7" y="247.5" class="st0" width="0.5" height="2.5"/>
	<rect x="2312.8" y="248" class="st0" width="0.5" height="1.7"/>
	<rect x="2301.9" y="273" class="st0" width="3.6" height="0.5"/>
	<rect x="2302.4" y="274.1" class="st0" width="2.5" height="0.5"/>
	<rect x="2302.8" y="275.3" class="st0" width="1.7" height="0.5"/>
	<path id="XMLID_7255_" class="st0" d="M2277.7,49.2l1.1-1.1c0.2-0.2,0.5-0.2,0.6,0l1.1,1.1c0.2,0.2,0.2,0.5,0,0.6l-1.1,1.1
		c-0.2,0.2-0.5,0.2-0.6,0l-1.1-1.1C2277.5,49.7,2277.5,49.4,2277.7,49.2z"/>
	<path id="XMLID_7254_" class="st0" d="M2277.8,13.5l1.1-1.1c0.2-0.2,0.5-0.2,0.6,0l1.1,1.1c0.2,0.2,0.2,0.5,0,0.6l-1.1,1.1
		c-0.2,0.2-0.5,0.2-0.6,0l-1.1-1.1C2277.6,13.9,2277.6,13.6,2277.8,13.5z"/>
	<g id="XMLID_7244_">
		
			<rect x="2278.9" y="13.8" transform="matrix(1 -1.236869e-03 1.236869e-03 1 -4.900385e-02 2.8191)" class="st0" width="0.5" height="54.5"/>
		<path class="st0" d="M2277.3,72.3l-0.1-11.7l4.1,0l0.1,11.7L2277.3,72.3z M2277.7,61.2l0.1,10.7l3.1,0l-0.1-10.7L2277.7,61.2z"/>
		
			<rect id="XMLID_7251_" x="2280" y="63.4" transform="matrix(1 -5.578222e-03 5.578222e-03 1 -0.3228 12.7223)" class="st0" width="1" height="1.6"/>
		
			<rect id="XMLID_7250_" x="2277.7" y="63.4" transform="matrix(1 -5.578222e-03 5.578222e-03 1 -0.3229 12.7092)" class="st0" width="1" height="1.6"/>
		
			<rect id="XMLID_7249_" x="2278.5" y="65" transform="matrix(1 -5.578222e-03 5.578222e-03 1 -0.3325 12.7152)" class="st0" width="1.6" height="1.8"/>
		
			<rect x="2278.9" y="72.1" transform="matrix(1 -5.382945e-03 5.382945e-03 1 -0.3614 12.2705)" class="st0" width="0.8" height="2.4"/>
		
			<rect x="2277.1" y="74.4" transform="matrix(1 -5.208263e-03 5.208263e-03 1 -0.3583 11.8723)" class="st0" width="4.4" height="0.8"/>
		
			<rect x="2278" y="75.4" transform="matrix(1 -5.208263e-03 5.208263e-03 1 -0.3639 11.8724)" class="st0" width="2.7" height="0.8"/>
		
			<rect x="2278.4" y="76.5" transform="matrix(1 -5.208263e-03 5.208263e-03 1 -0.3695 11.8723)" class="st0" width="1.9" height="0.8"/>
	</g>
	<g id="XMLID_7234_">
		
			<rect x="2279.6" y="212.8" transform="matrix(1 -1.236869e-03 1.236869e-03 1 -0.2951 2.82)" class="st0" width="0.5" height="54.5"/>
		<path class="st0" d="M2277.9,271.3l-0.1-11.7l4.1,0l0.1,11.7L2277.9,271.3z M2278.4,260.2l0.1,10.7l3.1,0l-0.1-10.7L2278.4,260.2z
			"/>
		
			<rect id="XMLID_7241_" x="2280.7" y="262.4" transform="matrix(1 -5.578222e-03 5.578222e-03 1 -1.4327 12.729)" class="st0" width="1" height="1.6"/>
		
			<rect id="XMLID_7240_" x="2278.3" y="262.4" transform="matrix(1 -5.578222e-03 5.578222e-03 1 -1.4328 12.7159)" class="st0" width="1" height="1.6"/>
		
			<rect id="XMLID_7239_" x="2279.1" y="264" transform="matrix(1 -5.578222e-03 5.578222e-03 1 -1.4424 12.7219)" class="st0" width="1.6" height="1.8"/>
		
			<rect x="2279.6" y="271.1" transform="matrix(1 -5.795804e-03 5.795804e-03 1 -1.5396 13.2188)" class="st0" width="0.8" height="2.4"/>
		
			<rect x="2277.8" y="273.3" transform="matrix(1 -5.208263e-03 5.208263e-03 1 -1.3946 11.8784)" class="st0" width="4.4" height="0.8"/>
		
			<rect x="2278.6" y="274.4" transform="matrix(1 -5.208263e-03 5.208263e-03 1 -1.4002 11.8785)" class="st0" width="2.7" height="0.8"/>
		
			<rect x="2279" y="275.5" transform="matrix(1 -5.208263e-03 5.208263e-03 1 -1.4058 11.8783)" class="st0" width="1.9" height="0.8"/>
	</g>
	<path id="XMLID_7233_" class="st0" d="M2302.3,48.9l1.1-1.1c0.2-0.2,0.5-0.2,0.6,0l1.1,1.1c0.2,0.2,0.2,0.5,0,0.6l-1.1,1.1
		c-0.2,0.2-0.5,0.2-0.6,0l-1.1-1.1C2302.1,49.3,2302.1,49,2302.3,48.9z"/>
	<path class="st0" d="M2293.2,71.8c-1.5,0-2.8-1.3-2.8-2.8c0-1.5,1.3-2.8,2.8-2.8s2.8,1.3,2.8,2.8
		C2296,70.5,2294.8,71.8,2293.2,71.8z M2293.2,66.7c-1.3,0-2.3,1-2.3,2.3s1,2.3,2.3,2.3c1.3,0,2.3-1,2.3-2.3
		S2294.5,66.7,2293.2,66.7z"/>
	<path class="st0" d="M2296.1,69c-1.5,0-2.8-1.3-2.8-2.8c0-1.5,1.3-2.8,2.8-2.8s2.8,1.3,2.8,2.8C2298.9,67.7,2297.6,69,2296.1,69z
		 M2296.1,63.9c-1.3,0-2.3,1-2.3,2.3s1,2.3,2.3,2.3s2.3-1,2.3-2.3S2297.3,63.9,2296.1,63.9z"/>
	<path class="st0" d="M2296.2,74c-1.5,0-2.8-1.3-2.8-2.8s1.3-2.8,2.8-2.8s2.8,1.3,2.8,2.8S2297.7,74,2296.2,74z M2296.2,69
		c-1.3,0-2.3,1-2.3,2.3s1,2.3,2.3,2.3c1.3,0,2.3-1,2.3-2.3S2297.5,69,2296.2,69z"/>
	<path class="st0" d="M2293.2,66.9c-1.5,0-2.8-1.3-2.8-2.8s1.3-2.8,2.8-2.8s2.8,1.3,2.8,2.8S2294.8,66.9,2293.2,66.9z M2293.2,61.8
		c-1.3,0-2.3,1-2.3,2.3s1,2.3,2.3,2.3c1.3,0,2.3-1,2.3-2.3S2294.5,61.8,2293.2,61.8z"/>
	<polygon class="st0" points="2292.3,65.3 2292,65 2292.7,64.1 2291.8,63.2 2292.2,62.9 2293.3,64.1 	"/>
	<rect x="2293" y="63.9" class="st0" width="0.8" height="0.5"/>
	<polygon class="st0" points="2295.9,72.3 2295.5,71.9 2296.3,71.2 2295.5,70.2 2295.9,69.9 2296.9,71.2 	"/>
	
		<rect x="2296.8" y="70.8" transform="matrix(7.790586e-02 -0.997 0.997 7.790586e-02 2047.0776 2355.7148)" class="st0" width="0.5" height="0.8"/>
	<polygon class="st0" points="2296.1,67.8 2295.7,67.4 2296.4,66.6 2295.6,65.7 2296,65.3 2297.1,66.6 	"/>
	<rect x="2296.8" y="66.3" class="st0" width="0.8" height="0.5"/>
	<path class="st0" d="M2296.2,64.9c-1.5,0-2.8-1.3-2.8-2.8c0-1.5,1.3-2.8,2.8-2.8s2.8,1.3,2.8,2.8
		C2299,63.7,2297.7,64.9,2296.2,64.9z M2296.2,59.8c-1.3,0-2.3,1-2.3,2.3s1,2.3,2.3,2.3c1.3,0,2.3-1,2.3-2.3
		S2297.5,59.8,2296.2,59.8z"/>
	<polygon class="st0" points="2295.4,62.6 2295,62.3 2296.3,61.1 2297.4,62.1 2297.1,62.5 2296.3,61.8 	"/>
	<rect x="2296" y="60.6" class="st0" width="0.5" height="0.8"/>
	<rect x="2303.3" y="50.6" class="st0" width="0.5" height="11.1"/>
	<rect x="2303.3" y="63.3" class="st0" width="0.5" height="6.6"/>
	<rect x="2303.3" y="71.7" class="st0" width="0.5" height="2.7"/>
	<rect x="2301.2" y="61.5" class="st0" width="4.9" height="0.5"/>
	<rect x="2301.2" y="63" class="st0" width="4.9" height="0.5"/>
	<rect x="2301.2" y="69.8" class="st0" width="4.9" height="0.5"/>
	<rect x="2301.2" y="71.3" class="st0" width="4.9" height="0.5"/>
	<rect x="2287.9" y="66.3" class="st0" width="15.4" height="0.5"/>
	<path class="st0" d="M2293.2,70.4c-0.1,0-0.1,0-0.2-0.1l-1.3-1.3l0.3-0.4l0.9,0.9v-1.8l-0.9,0.7l-0.3-0.4l1.3-1
		c0.1-0.1,0.2-0.1,0.3,0c0.1,0,0.1,0.1,0.1,0.2v2.9C2293.5,70.3,2293.4,70.4,2293.2,70.4C2293.3,70.4,2293.3,70.4,2293.2,70.4z"/>
	<rect x="2301.8" y="74.2" class="st0" width="3.6" height="0.5"/>
	<rect x="2302.4" y="75.1" class="st0" width="2.5" height="0.5"/>
	<rect x="2302.5" y="76.2" class="st0" width="2.2" height="0.5"/>
	<rect x="2287.7" y="64.6" class="st0" width="0.5" height="3.6"/>
	<rect x="2286.6" y="65.2" class="st0" width="0.5" height="2.5"/>
	<rect x="2285.4" y="65.5" class="st0" width="0.5" height="1.7"/>
	<path id="XMLID_7204_" class="st0" d="M2047.1,478.2l1.1-1.1c0.2-0.2,0.5-0.2,0.6,0l1.1,1.1c0.2,0.2,0.2,0.5,0,0.6l-1.1,1.1
		c-0.2,0.2-0.5,0.2-0.6,0l-1.1-1.1C2046.9,478.6,2046.9,478.4,2047.1,478.2z"/>
	<g id="XMLID_7194_">
		
			<rect x="2048.3" y="479.4" transform="matrix(1 -3.779966e-03 3.779966e-03 1 -1.8311 7.747)" class="st0" width="0.5" height="17.8"/>
		<path class="st0" d="M2046.7,501.3l-0.1-11.7l4.1,0l0.1,11.7L2046.7,501.3z M2047.1,490.1l0.1,10.7l3.1,0l-0.1-10.7L2047.1,490.1z
			"/>
		
			<rect id="XMLID_7201_" x="2049.4" y="492.4" transform="matrix(1 -5.578222e-03 5.578222e-03 1 -2.7191 11.4427)" class="st0" width="1" height="1.6"/>
		
			<rect id="XMLID_7200_" x="2047.1" y="492.4" transform="matrix(1 -5.578222e-03 5.578222e-03 1 -2.7192 11.4295)" class="st0" width="1" height="1.6"/>
		
			<rect id="XMLID_7199_" x="2047.9" y="494" transform="matrix(1 -5.578222e-03 5.578222e-03 1 -2.7288 11.4355)" class="st0" width="1.6" height="1.8"/>
		
			<rect x="2048.3" y="501" transform="matrix(1 -5.797004e-03 5.797004e-03 1 -2.8768 11.8849)" class="st0" width="0.8" height="2.4"/>
		
			<rect x="2046.5" y="503.3" transform="matrix(1 -5.208263e-03 5.208263e-03 1 -2.5954 10.6771)" class="st0" width="4.4" height="0.8"/>
		
			<rect x="2047.4" y="504.4" transform="matrix(1 -5.208263e-03 5.208263e-03 1 -2.601 10.6772)" class="st0" width="2.7" height="0.8"/>
		
			<rect x="2047.8" y="505.4" transform="matrix(1 -5.208263e-03 5.208263e-03 1 -2.6066 10.6771)" class="st0" width="1.9" height="0.8"/>
	</g>
	<path id="XMLID_7193_" class="st0" d="M2127.6,478.2l1.1-1.1c0.2-0.2,0.5-0.2,0.6,0l1.1,1.1c0.2,0.2,0.2,0.5,0,0.6l-1.1,1.1
		c-0.2,0.2-0.5,0.2-0.6,0l-1.1-1.1C2127.4,478.6,2127.4,478.4,2127.6,478.2z"/>
	<path class="st0" d="M2118.6,501.1c-1.5,0-2.8-1.3-2.8-2.8c0-1.5,1.3-2.8,2.8-2.8s2.8,1.3,2.8,2.8
		C2121.4,499.8,2120.1,501.1,2118.6,501.1z M2118.6,496c-1.3,0-2.3,1-2.3,2.3s1,2.3,2.3,2.3s2.3-1,2.3-2.3S2119.8,496,2118.6,496z"
		/>
	<path class="st0" d="M2121.4,498.3c-1.5,0-2.8-1.3-2.8-2.8c0-1.5,1.3-2.8,2.8-2.8s2.8,1.3,2.8,2.8
		C2124.2,497,2122.9,498.3,2121.4,498.3z M2121.4,493.2c-1.3,0-2.3,1-2.3,2.3s1,2.3,2.3,2.3s2.3-1,2.3-2.3
		S2122.6,493.2,2121.4,493.2z"/>
	<path class="st0" d="M2121.5,503.4c-1.5,0-2.8-1.3-2.8-2.8s1.3-2.8,2.8-2.8s2.8,1.3,2.8,2.8S2123.1,503.4,2121.5,503.4z
		 M2121.5,498.3c-1.3,0-2.3,1-2.3,2.3s1,2.3,2.3,2.3s2.3-1,2.3-2.3S2122.8,498.3,2121.5,498.3z"/>
	<path class="st0" d="M2118.6,496.2c-1.5,0-2.8-1.3-2.8-2.8c0-1.5,1.3-2.8,2.8-2.8s2.8,1.3,2.8,2.8
		C2121.4,495,2120.1,496.2,2118.6,496.2z M2118.6,491.1c-1.3,0-2.3,1-2.3,2.3s1,2.3,2.3,2.3s2.3-1,2.3-2.3
		S2119.8,491.1,2118.6,491.1z"/>
	<polygon class="st0" points="2117.7,494.6 2117.3,494.3 2118,493.5 2117.2,492.6 2117.5,492.2 2118.7,493.5 	"/>
	<rect x="2118.3" y="493.2" class="st0" width="0.8" height="0.5"/>
	<polygon class="st0" points="2121.2,501.6 2120.8,501.3 2121.6,500.5 2120.8,499.5 2121.2,499.2 2122.3,500.5 	"/>
	
		<rect x="2122.1" y="500.1" transform="matrix(7.790586e-02 -0.997 0.997 7.790586e-02 1457.9896 2577.4521)" class="st0" width="0.5" height="0.8"/>
	<polygon class="st0" points="2121.4,497.1 2121.1,496.8 2121.8,495.9 2120.9,495 2121.3,494.7 2122.4,495.9 	"/>
	<rect x="2122.1" y="495.7" class="st0" width="0.8" height="0.5"/>
	<path class="st0" d="M2121.5,494.2c-1.5,0-2.8-1.3-2.8-2.8c0-1.5,1.3-2.8,2.8-2.8s2.8,1.3,2.8,2.8
		C2124.3,493,2123.1,494.2,2121.5,494.2z M2121.5,489.1c-1.3,0-2.3,1-2.3,2.3s1,2.3,2.3,2.3s2.3-1,2.3-2.3
		S2122.8,489.1,2121.5,489.1z"/>
	<polygon class="st0" points="2120.7,492 2120.4,491.6 2121.6,490.4 2122.8,491.5 2122.4,491.8 2121.6,491.1 	"/>
	<rect x="2121.4" y="490" class="st0" width="0.5" height="0.8"/>
	<rect x="2128.6" y="479.9" class="st0" width="0.5" height="11.1"/>
	<rect x="2128.6" y="492.6" class="st0" width="0.5" height="6.6"/>
	<rect x="2128.6" y="501.1" class="st0" width="0.5" height="1.7"/>
	<rect x="2126.6" y="490.9" class="st0" width="4.9" height="0.5"/>
	<rect x="2126.6" y="492.4" class="st0" width="4.9" height="0.5"/>
	<rect x="2126.6" y="499.1" class="st0" width="4.9" height="0.5"/>
	<rect x="2126.6" y="500.6" class="st0" width="4.9" height="0.5"/>
	<rect x="2113.3" y="495.7" class="st0" width="15.4" height="0.5"/>
	<path class="st0" d="M2118.6,499.7c-0.1,0-0.1,0-0.2-0.1l-1.3-1.3l0.3-0.4l0.9,0.9v-1.8l-0.9,0.7l-0.3-0.4l1.3-1
		c0.1-0.1,0.2-0.1,0.3,0c0.1,0,0.1,0.1,0.1,0.2v2.9C2118.8,499.6,2118.8,499.7,2118.6,499.7C2118.6,499.7,2118.6,499.7,2118.6,499.7
		z"/>
	<rect x="2127.2" y="502.5" class="st0" width="3.6" height="0.5"/>
	<rect x="2127.7" y="503.7" class="st0" width="2.5" height="0.5"/>
	<rect x="2128.2" y="504.9" class="st0" width="1.7" height="0.5"/>
	<rect id="XMLID_7167_" x="2031.1" y="432" style="fill:none;" width="20.3" height="5.5"/>
	
		<text id="XMLID_7166_" transform="matrix(1 0 0 1 2031.1223 436.7808)" class="st0" style="font-family:'STHeitiSC-Light'; font-size:5.9138px;">T40017</text>
	<rect id="XMLID_7165_" x="2031.1" y="454.1" style="fill:none;" width="20.3" height="5.5"/>
	
		<text id="XMLID_7164_" transform="matrix(1 0 0 1 2031.1223 458.8232)" class="st0" style="font-family:'STHeitiSC-Light'; font-size:5.9138px;">T4007</text>
	<g id="XMLID_7159_">
		<path class="st0" d="M2020.3,438.2l-0.4-0.3l3-3.2c0,0,0.1-0.1,0.2-0.1h2.4v0.5h-2.3L2020.3,438.2z"/>
		<rect x="2025.3" y="433" class="st0" width="0.8" height="3.9"/>
		<rect x="2026.5" y="433.5" class="st0" width="0.8" height="2.9"/>
		<rect x="2027.6" y="434" class="st0" width="0.8" height="1.8"/>
	</g>
	<g id="XMLID_7154_">
		<path class="st0" d="M2020.3,460.2l-0.4-0.3l3-3.2c0,0,0.1-0.1,0.2-0.1h2.4v0.5h-2.3L2020.3,460.2z"/>
		<rect x="2025.3" y="454.9" class="st0" width="0.8" height="3.9"/>
		<rect x="2026.5" y="455.4" class="st0" width="0.8" height="2.9"/>
		<rect x="2027.6" y="456" class="st0" width="0.8" height="1.8"/>
	</g>
	<rect id="XMLID_7153_" x="1992.4" y="522.5" style="fill:none;" width="49.1" height="24.5"/>
	
		<text id="XMLID_7152_" transform="matrix(1 0 0 1 1999.6371 530.6978)" class="st0" style="font-family:'SourceHanSansCN-Normal-GBpc-EUC-H'; font-size:9.2931px;">至504串</text>
	<path id="XMLID_7151_" class="st0" d="M2014.5,499.5l1.1-1.1c0.2-0.2,0.5-0.2,0.6,0l1.1,1.1c0.2,0.2,0.2,0.5,0,0.6l-1.1,1.1
		c-0.2,0.2-0.5,0.2-0.6,0l-1.1-1.1C2014.4,500,2014.4,499.7,2014.5,499.5z"/>
	<rect x="2003.4" y="499.6" class="st0" width="12.1" height="0.5"/>
	<path class="st0" d="M2011,502h-11.7v-4.1h11.7V502z M1999.8,501.5h10.7v-3.1h-10.7V501.5z"/>
	
		<rect id="XMLID_7148_" x="2006.9" y="500.4" transform="matrix(-1.836970e-16 1 -1 -1.836970e-16 2508.6294 -1506.2194)" class="st0" width="1" height="1.6"/>
	
		<rect id="XMLID_7147_" x="2006.9" y="498" transform="matrix(-1.836970e-16 1 -1 -1.836970e-16 2506.271 -1508.5779)" class="st0" width="1" height="1.6"/>
	
		<rect id="XMLID_7146_" x="2004.9" y="499" transform="matrix(-1.263186e-11 1 -1 -1.263186e-11 2505.6021 -1505.797)" class="st0" width="1.6" height="1.8"/>
	<rect x="1997.2" y="499.6" class="st0" width="2.4" height="0.8"/>
	<rect x="1996.6" y="497.7" class="st0" width="0.8" height="4.4"/>
	<rect x="1995.5" y="498.6" class="st0" width="0.8" height="2.7"/>
	<rect x="1994.4" y="499" class="st0" width="0.8" height="1.9"/>
	<rect x="1986" y="425.8" class="st0" width="0.8" height="4.4"/>
	<rect x="1984.6" y="426.6" class="st0" width="0.8" height="2.7"/>
	<rect x="1982.7" y="427.1" class="st0" width="0.8" height="1.9"/>
	<path class="st0" d="M2016.1,492.7c-7.7,0-14-6.3-14-14s6.3-14,14-14s14,6.3,14,14S2023.8,492.7,2016.1,492.7z M2016.1,465.5
		c-7.3,0-13.2,5.9-13.2,13.2s5.9,13.2,13.2,13.2c7.3,0,13.2-5.9,13.2-13.2S2023.4,465.5,2016.1,465.5z"/>
	<path class="st0" d="M1994.4,493.4c-7.7,0-14-6.3-14-14s6.3-14,14-14s14,6.3,14,14S2002.1,493.4,1994.4,493.4z M1994.4,466.1
		c-7.3,0-13.2,5.9-13.2,13.2s5.9,13.2,13.2,13.2c7.3,0,13.2-5.9,13.2-13.2S2001.6,466.1,1994.4,466.1z"/>
	<polygon class="st0" points="2011.3,489.8 2010.6,489.5 2015.2,479 2026.8,479 2026.8,479.8 2015.7,479.8 	"/>
	
		<rect x="2012.9" y="469.1" transform="matrix(0.9085 -0.418 0.418 0.9085 -14.0269 884.9127)" class="st0" width="0.8" height="10.8"/>
	<path class="st0" d="M1998.7,488.1l-15.2-8.7l15.2-10.5V488.1z M1984.9,479.3l13,7.4v-16.5L1984.9,479.3z"/>
	<path class="st0" d="M1965.1,748.7h-0.8V479.4c0-0.2,0.2-0.4,0.4-0.4h16v0.8h-15.6V748.7z"/>
	<path class="st0" d="M2016.1,428.5h-11.2c-0.2,0-0.4-0.2-0.4-0.4v-2.4h-1.8v2.4c0,0.2-0.2,0.4-0.4,0.4h-2.9c-0.2,0-0.4-0.2-0.4-0.4
		v-2.4h-1.9v2.4c0,0.2-0.2,0.4-0.4,0.4h-2.7c-0.2,0-0.4-0.2-0.4-0.4v-2.7h-1.8v2.7c0,0.2-0.2,0.4-0.4,0.4h-4.7v-0.8h4.3V425
		c0-0.2,0.2-0.4,0.4-0.4h2.5c0.2,0,0.4,0.2,0.4,0.4v2.7h2v-2.4c0-0.2,0.2-0.4,0.4-0.4h2.7c0.2,0,0.4,0.2,0.4,0.4v2.4h2.1v-2.4
		c0-0.2,0.2-0.4,0.4-0.4h2.5c0.2,0,0.4,0.2,0.4,0.4v2.4h10.8V428.5z"/>
	<path class="st0" d="M1996,431.4h-6.7c-0.2,0-0.4-0.2-0.4-0.4v-2.6h0.8v2.2h4.9l-1-0.6l0.4-0.6l2.3,1.3c0.1,0.1,0.2,0.3,0.2,0.4
		S1996.1,431.4,1996,431.4z"/>
	
		<rect x="2000.9" y="431" transform="matrix(0.8087 -0.5882 0.5882 0.8087 128.6249 1259.855)" class="st0" width="0.8" height="2.4"/>
	
		<rect x="1994.1" y="431.6" transform="matrix(0.5879 -0.809 0.809 0.5879 472.8856 1792.1268)" class="st0" width="2.4" height="0.8"/>
	<path class="st0" d="M2007,431.6h-6.5c-0.2,0-0.3-0.1-0.4-0.2s0-0.3,0.1-0.4l1.6-1.4l0.5,0.6l-0.9,0.8h5.1v-2.4h0.8v2.8
		C2007.4,431.4,2007.2,431.6,2007,431.6z"/>
	<g id="XMLID_7125_">
		<path id="XMLID_7127_" class="st0" d="M2016.5,434.2h-0.8c-0.5,0-1,0.9-1,0.9l0,0l0,0c0,0,0.5,0.9,1,0.9h0.8
			c0.2,0,0.3-0.2,0.3-0.3l0-0.5l0-0.5C2016.8,434.4,2016.7,434.2,2016.5,434.2z"/>
		<polygon class="st0" points="2019.7,436.1 2019.2,436.1 2019.2,435.2 2016.7,435.2 2016.7,434.7 2019.7,434.7 		"/>
	</g>
	<g id="XMLID_7122_">
		<path id="XMLID_7124_" class="st0" d="M2016.5,456.2h-0.8c-0.5,0-1,0.9-1,0.9l0,0l0,0c0,0,0.5,0.9,1,0.9h0.8
			c0.2,0,0.3-0.2,0.3-0.3l0-0.5l0-0.5C2016.8,456.3,2016.7,456.2,2016.5,456.2z"/>
		<polygon class="st0" points="2019.7,458.1 2019.2,458.1 2019.2,457.1 2016.7,457.1 2016.7,456.6 2019.7,456.6 		"/>
	</g>
	<path class="st0" d="M2016.1,515C2016.1,515,2016,515,2016.1,515c-0.2,0-0.3-0.1-0.3-0.3v-22.4h0.5v21.2l0.7-1.6l0.5,0.2l-1.2,2.6
		C2016.3,515,2016.2,515,2016.1,515z"/>
	<polygon class="st0" points="2015.9,514.9 2014,512.4 2014.4,512.1 2016.3,514.6 	"/>
	<rect x="2015.7" y="427.8" class="st0" width="0.8" height="51"/>
	<rect x="2113" y="493.9" class="st0" width="0.5" height="3.6"/>
	<rect x="2111.9" y="494.5" class="st0" width="0.5" height="2.5"/>
	<rect x="2110.8" y="494.9" class="st0" width="0.5" height="1.7"/>
	<g id="XMLID_5659_">
		<g id="XMLID_5703_">
			<path class="st0" d="M2158.1,17.3l-3.2-3.4h-2.5v-0.5h2.6c0.1,0,0.1,0,0.2,0.1l3.3,3.4L2158.1,17.3z"/>
			<rect x="2151.8" y="11.6" class="st0" width="0.8" height="4.3"/>
			<rect x="2150.5" y="12.2" class="st0" width="0.8" height="3.1"/>
			<rect x="2149.3" y="12.8" class="st0" width="0.8" height="2"/>
		</g>
		
			<rect x="2155.7" y="16" transform="matrix(0.7071 -0.7071 0.7071 0.7071 620.0422 1529.4734)" class="st0" width="1.2" height="0.5"/>
		
			<rect x="2155.6" y="15.5" transform="matrix(0.6643 -0.7474 0.7474 0.6643 711.192 1616.9054)" class="st0" width="0.5" height="2.3"/>
	</g>
	<g id="XMLID_4866_">
		<g id="XMLID_5596_">
			<path class="st0" d="M2158.2,216.6l-3.2-3.4h-2.5v-0.5h2.6c0.1,0,0.1,0,0.2,0.1l3.3,3.4L2158.2,216.6z"/>
			<rect x="2152" y="210.9" class="st0" width="0.8" height="4.3"/>
			<rect x="2150.7" y="211.5" class="st0" width="0.8" height="3.1"/>
			<rect x="2149.4" y="212.1" class="st0" width="0.8" height="2"/>
		</g>
		
			<rect x="2155.8" y="215.4" transform="matrix(0.7071 -0.7071 0.7071 0.7071 479.1492 1587.9711)" class="st0" width="1.2" height="0.5"/>
		
			<rect x="2155.7" y="214.8" transform="matrix(0.6643 -0.7474 0.7474 0.6643 562.2684 1683.9351)" class="st0" width="0.5" height="2.3"/>
	</g>
	<g id="XMLID_4671_">
		<g id="XMLID_4730_">
			<path class="st0" d="M2157.9,415.8l-3.2-3.4h-2.5V412h2.6c0.1,0,0.1,0,0.2,0.1l3.3,3.4L2157.9,415.8z"/>
			<rect x="2151.6" y="410.1" class="st0" width="0.8" height="4.3"/>
			<rect x="2150.3" y="410.7" class="st0" width="0.8" height="3.1"/>
			<rect x="2149.1" y="411.3" class="st0" width="0.8" height="2"/>
		</g>
		
			<rect x="2155.5" y="414.5" transform="matrix(0.7071 -0.7071 0.7071 0.7071 338.189 1646.0582)" class="st0" width="1.2" height="0.5"/>
		
			<rect x="2155.4" y="414" transform="matrix(0.6644 -0.7474 0.7474 0.6644 413.0953 1750.3123)" class="st0" width="0.5" height="2.3"/>
	</g>
	<g id="XMLID_1750_">
		<g id="XMLID_1762_">
			<path class="st0" d="M2157.9,615l-3.2-3.4h-2.5v-0.5h2.6c0.1,0,0.1,0,0.2,0.1l3.3,3.4L2157.9,615z"/>
			<rect x="2151.6" y="609.2" class="st0" width="0.8" height="4.3"/>
			<rect x="2150.3" y="609.8" class="st0" width="0.8" height="3.1"/>
			<rect x="2149.1" y="610.4" class="st0" width="0.8" height="2"/>
		</g>
		
			<rect x="2155.5" y="613.7" transform="matrix(0.7071 -0.7071 0.7071 0.7071 197.3864 1704.3805)" class="st0" width="1.2" height="0.5"/>
		
			<rect x="2155.4" y="613.1" transform="matrix(0.6645 -0.7472 0.7472 0.6645 264.0883 1816.833)" class="st0" width="0.5" height="2.3"/>
	</g>
	<path class="st0" d="M2020.1,492.6l0-0.5c0.1,0,11.3-0.5,13.7-13.7l0-0.2h138.9v1.8h-0.5v-1.3h-138
		C2031.7,492.1,2020.2,492.6,2020.1,492.6z"/>
	<polygon class="st0" points="2163.3,482.3 2161.5,482.3 2161.5,474.8 2163.3,474.8 2163.3,475.3 2162,475.3 2162,481.8 
		2163.3,481.8 	"/>
	<path class="st0" d="M2190.5,744.8H2162c-0.1,0-0.3-0.1-0.3-0.3v-70.1c0-0.1,0.1-0.3,0.3-0.3h1.1v0.5h-0.9v69.6h28v-24.5h0.5v24.8
		C2190.8,744.7,2190.6,744.8,2190.5,744.8z"/>
	
		<rect id="XMLID_1746_" x="2188.4" y="696.8" transform="matrix(-0.7071 0.7071 -0.7071 -0.7071 4232.5054 -356.3328)" class="st0" width="3.3" height="3.3"/>
	
		<rect id="XMLID_1745_" x="2189.2" y="730.6" transform="matrix(-8.382149e-03 1 -1 -8.382149e-03 2939.8125 -1452.4146)" class="st0" width="1.6" height="1.6"/>
	<g id="XMLID_1723_">
		<path class="st0" d="M2163.6,651.1h-4.1l-1.6-1.7v-9l1.6-1.7h4.1l1.9,1.7v9L2163.6,651.1z M2159.7,650.6h3.7l1.6-1.4v-8.5
			l-1.6-1.4h-3.7l-1.3,1.4v8.6L2159.7,650.6z"/>
		<polygon class="st0" points="2163.4,636.4 2157.8,634.5 2162.4,632.9 2157.8,631.5 2163.5,628.9 2163.7,629.3 2159.2,631.4 
			2164,632.8 2159.3,634.5 2163.6,635.9 		"/>
		<polygon class="st0" points="2163.4,660.2 2157.8,658.3 2162.4,656.6 2157.8,655.3 2163.5,652.6 2163.7,653.1 2159.2,655.2 
			2164,656.6 2159.3,658.3 2163.6,659.7 		"/>
		<polygon class="st0" points="2162,639 2161.5,639 2161.5,623.3 2165,615.9 2165.5,616.1 2162,623.4 		"/>
		<polygon class="st0" points="2165,673.4 2161.4,664.6 2161.4,651 2161.9,651 2161.9,664.5 2165.5,673.2 		"/>
		<g id="XMLID_1730_">
			<path id="XMLID_1733_" class="st0" d="M2161.6,662.9h0.8c0.5,0,1,0.9,1,0.9l0,0l0,0c0,0-0.5,0.9-1,0.9h-0.8
				c-0.2,0-0.3-0.1-0.3-0.3l0-0.5l0-0.5C2161.3,663,2161.4,662.9,2161.6,662.9z"/>
			<polygon class="st0" points="2159,664.7 2158.5,664.7 2158.5,663.3 2161.4,663.3 2161.4,663.8 2159,663.8 			"/>
		</g>
		<g id="XMLID_1725_">
			<path id="XMLID_1728_" class="st0" d="M2161.6,625h0.8c0.5,0,1,0.9,1,0.9l0,0l0,0c0,0-0.5,0.9-1,0.9h-0.8c-0.2,0-0.3-0.1-0.3-0.3
				l0-0.5l0-0.5C2161.3,625.2,2161.4,625,2161.6,625z"/>
			<polygon class="st0" points="2159,626.9 2158.5,626.9 2158.5,625.5 2161.4,625.5 2161.4,626 2159,626 			"/>
		</g>
	</g>
	<g id="XMLID_1689_">
		<path class="st0" d="M2163.6,584.4h-4.1l-1.6-1.7v-9l1.6-1.7h4.1l1.9,1.7v9L2163.6,584.4z M2159.7,583.9h3.7l1.6-1.4V574l-1.6-1.4
			h-3.7l-1.3,1.4v8.6L2159.7,583.9z"/>
		<polygon class="st0" points="2163.4,569.8 2157.8,567.9 2162.4,566.2 2157.8,564.9 2163.5,562.2 2163.7,562.7 2159.2,564.8 
			2164,566.2 2159.3,567.9 2163.6,569.3 		"/>
		<polygon class="st0" points="2163.4,593.5 2157.8,591.6 2162.4,590 2157.8,588.6 2163.5,586 2163.7,586.4 2159.2,588.5 
			2164,589.9 2159.3,591.6 2163.6,593 		"/>
		<polygon class="st0" points="2162,572.3 2161.5,572.3 2161.5,556.6 2165,549.3 2165.5,549.5 2162,556.8 		"/>
		<polygon class="st0" points="2165,606.7 2161.5,597.9 2161.5,584.3 2162,584.3 2162,597.9 2165.5,606.5 		"/>
		<g id="XMLID_1710_">
			<path id="XMLID_1714_" class="st0" d="M2161.6,596.2h0.8c0.5,0,1,0.9,1,0.9l0,0l0,0c0,0-0.5,0.9-1,0.9h-0.8
				c-0.2,0-0.3-0.1-0.3-0.3l0-0.5l0-0.5C2161.3,596.4,2161.4,596.2,2161.6,596.2z"/>
			<polygon class="st0" points="2159,598.1 2158.5,598.1 2158.5,596.7 2161.4,596.7 2161.4,597.2 2159,597.2 			"/>
		</g>
		<g id="XMLID_1690_">
			<path id="XMLID_1696_" class="st0" d="M2161.6,558.4h0.8c0.5,0,1,0.9,1,0.9l0,0l0,0c0,0-0.5,0.9-1,0.9h-0.8
				c-0.2,0-0.3-0.1-0.3-0.3l0-0.5l0-0.5C2161.3,558.5,2161.4,558.4,2161.6,558.4z"/>
			<polygon class="st0" points="2159,560.2 2158.5,560.2 2158.5,558.8 2161.4,558.8 2161.4,559.3 2159,559.3 			"/>
		</g>
	</g>
	<g id="XMLID_1673_">
		<path class="st0" d="M2163.6,518.2h-4.1l-1.6-1.7v-9l1.6-1.7h4.1l1.9,1.7v9L2163.6,518.2z M2159.7,517.7h3.7l1.6-1.4v-8.5
			l-1.6-1.4h-3.7l-1.3,1.4v8.6L2159.7,517.7z"/>
		<polygon class="st0" points="2163.4,503.5 2157.8,501.6 2162.4,500 2157.9,498.6 2163.5,496 2163.7,496.4 2159.3,498.5 
			2164,499.9 2159.3,501.6 2163.6,503.1 		"/>
		<polygon class="st0" points="2163.4,527.3 2157.8,525.4 2162.4,523.7 2157.9,522.4 2163.5,519.7 2163.7,520.2 2159.3,522.3 
			2164,523.7 2159.3,525.4 2163.6,526.8 		"/>
		<polygon class="st0" points="2162,506.1 2161.5,506.1 2161.5,490.4 2165,483 2165.5,483.2 2162,490.5 		"/>
		<polygon class="st0" points="2165,540.5 2161.5,531.7 2161.5,518.1 2162,518.1 2162,531.6 2165.5,540.3 		"/>
		<g id="XMLID_1678_">
			<path id="XMLID_1681_" class="st0" d="M2161.6,530h0.8c0.5,0,1,0.9,1,0.9l0,0l0,0c0,0-0.5,0.9-1,0.9h-0.8c-0.2,0-0.3-0.1-0.3-0.3
				l0-0.5l0-0.5C2161.3,530.1,2161.5,530,2161.6,530z"/>
			<polygon class="st0" points="2159,531.8 2158.5,531.8 2158.5,530.4 2161.4,530.4 2161.4,530.9 2159,530.9 			"/>
		</g>
		<g id="XMLID_1674_">
			<path id="XMLID_1677_" class="st0" d="M2161.6,492.1h0.8c0.5,0,1,0.9,1,0.9l0,0l0,0c0,0-0.5,0.9-1,0.9h-0.8
				c-0.2,0-0.3-0.1-0.3-0.3l0-0.5l0-0.5C2161.3,492.3,2161.5,492.1,2161.6,492.1z"/>
			<polygon class="st0" points="2159,494 2158.5,494 2158.5,492.6 2161.4,492.6 2161.4,493.1 2159,493.1 			"/>
		</g>
	</g>
	<g id="XMLID_1648_">
		<path class="st0" d="M2163.7,451.8h-4.1l-1.6-1.7v-9l1.6-1.7h4.1l1.9,1.7v9L2163.7,451.8z M2159.8,451.3h3.7l1.6-1.4v-8.5
			l-1.6-1.4h-3.7l-1.3,1.4v8.6L2159.8,451.3z"/>
		<polygon class="st0" points="2163.5,437.1 2157.8,435.3 2162.4,433.6 2157.9,432.3 2163.6,429.6 2163.8,430.1 2159.3,432.2 
			2164,433.6 2159.4,435.2 2163.6,436.7 		"/>
		<polygon class="st0" points="2163.5,460.9 2157.8,459 2162.4,457.4 2157.9,456 2163.6,453.4 2163.8,453.8 2159.3,455.9 
			2164,457.3 2159.4,459 2163.6,460.4 		"/>
		<polygon class="st0" points="2162,439.7 2161.5,439.7 2161.5,424 2165.1,416.6 2165.5,416.8 2162,424.2 		"/>
		<polygon class="st0" points="2165.1,474.1 2161.5,465.3 2161.5,451.7 2162,451.7 2162,465.3 2165.5,473.9 		"/>
		<g id="XMLID_1652_">
			<path id="XMLID_1665_" class="st0" d="M2161.7,463.6h0.8c0.5,0,1,0.9,1,0.9l0,0l0,0c0,0-0.5,0.9-1,0.9h-0.8
				c-0.2,0-0.3-0.1-0.3-0.3l0-0.5l0-0.5C2161.4,463.8,2161.5,463.6,2161.7,463.6z"/>
			<polygon class="st0" points="2159,465.5 2158.5,465.5 2158.5,464 2161.4,464 2161.4,464.5 2159,464.5 			"/>
		</g>
		<g id="XMLID_1649_">
			<path id="XMLID_1651_" class="st0" d="M2161.7,425.8h0.8c0.5,0,1,0.9,1,0.9l0,0l0,0c0,0-0.5,0.9-1,0.9h-0.8
				c-0.2,0-0.3-0.1-0.3-0.3l0-0.5l0-0.5C2161.4,425.9,2161.5,425.8,2161.7,425.8z"/>
			<polygon class="st0" points="2159,427.6 2158.5,427.6 2158.5,426.2 2161.4,426.2 2161.4,426.7 2159,426.7 			"/>
		</g>
	</g>
	<g id="XMLID_1606_">
		<path class="st0" d="M2163.7,385.3h-4.1l-1.6-1.7v-9l1.6-1.7h4.1l1.9,1.7v9L2163.7,385.3z M2159.8,384.8h3.7l1.6-1.4v-8.5
			l-1.6-1.4h-3.7l-1.3,1.4v8.6L2159.8,384.8z"/>
		<polygon class="st0" points="2163.5,370.6 2157.8,368.7 2162.4,367.1 2157.9,365.7 2163.6,363.1 2163.8,363.5 2159.3,365.6 
			2164,367 2159.4,368.7 2163.6,370.2 		"/>
		<polygon class="st0" points="2163.5,394.4 2157.8,392.5 2162.4,390.8 2157.9,389.5 2163.6,386.8 2163.8,387.3 2159.3,389.4 
			2164,390.8 2159.4,392.5 2163.6,393.9 		"/>
		<polygon class="st0" points="2162,373.2 2161.5,373.2 2161.6,357.5 2165.1,350.1 2165.5,350.3 2162,357.7 		"/>
		<polygon class="st0" points="2165.1,407.6 2161.5,398.8 2161.5,385.2 2162,385.2 2162,398.7 2165.5,407.4 		"/>
		<g id="XMLID_1610_">
			<path id="XMLID_1612_" class="st0" d="M2161.7,397.1h0.8c0.5,0,1,0.9,1,0.9l0,0l0,0c0,0-0.5,0.9-1,0.9h-0.8
				c-0.2,0-0.3-0.1-0.3-0.3l0-0.5l0-0.5C2161.4,397.2,2161.5,397.1,2161.7,397.1z"/>
			<polygon class="st0" points="2159,398.9 2158.5,398.9 2158.5,397.5 2161.4,397.5 2161.4,398 2159,398 			"/>
		</g>
		<g id="XMLID_1607_">
			<path id="XMLID_1609_" class="st0" d="M2161.7,359.2h0.8c0.5,0,1,0.9,1,0.9l0,0l0,0c0,0-0.5,0.9-1,0.9h-0.8
				c-0.2,0-0.3-0.1-0.3-0.3l0-0.5l0-0.5C2161.4,359.4,2161.5,359.2,2161.7,359.2z"/>
			<polygon class="st0" points="2159,361.1 2158.5,361.1 2158.5,359.7 2161.4,359.7 2161.4,360.2 2159,360.2 			"/>
		</g>
	</g>
	<path class="st0" d="M2163.7,252.9h-4.1l-1.6-1.7v-9l1.6-1.7h4.1l1.9,1.7v9L2163.7,252.9z M2159.8,252.4h3.7l1.6-1.4v-8.5l-1.6-1.4
		h-3.7l-1.3,1.4v8.6L2159.8,252.4z"/>
	<polygon class="st0" points="2163.5,238.2 2157.9,236.3 2162.5,234.7 2157.9,233.3 2163.6,230.7 2163.8,231.1 2159.3,233.2 
		2164.1,234.6 2159.4,236.3 2163.7,237.8 	"/>
	<polygon class="st0" points="2163.5,262 2157.9,260.1 2162.5,258.4 2157.9,257.1 2163.6,254.4 2163.8,254.9 2159.3,257 
		2164.1,258.4 2159.4,260.1 2163.7,261.5 	"/>
	<polygon class="st0" points="2162,240.8 2161.5,240.8 2161.6,225.1 2165.1,217.7 2165.5,217.9 2162,225.3 	"/>
	<polygon class="st0" points="2165.1,275.2 2161.5,266.4 2161.5,252.8 2162,252.8 2162,266.3 2165.5,275 	"/>
	<g id="XMLID_1595_">
		<path id="XMLID_1598_" class="st0" d="M2161.7,264.7h0.8c0.5,0,1,0.9,1,0.9l0,0l0,0c0,0-0.5,0.9-1,0.9h-0.8
			c-0.2,0-0.3-0.1-0.3-0.3l0-0.5l0-0.5C2161.4,264.8,2161.5,264.7,2161.7,264.7z"/>
		<polygon class="st0" points="2159.1,266.5 2158.6,266.5 2158.6,265.1 2161.4,265.1 2161.4,265.6 2159.1,265.6 		"/>
	</g>
	<g id="XMLID_1591_">
		<path id="XMLID_1594_" class="st0" d="M2161.2,330.4h0.8c0.5,0,1,0.9,1,0.9l0,0l0,0c0,0-0.5,0.9-1,0.9h-0.8
			c-0.2,0-0.3-0.1-0.3-0.3l0-0.5l0-0.5C2160.9,330.5,2161.1,330.4,2161.2,330.4z"/>
		<polygon class="st0" points="2158.6,332.2 2158.1,332.2 2158.1,330.8 2161,330.8 2161,331.3 2158.6,331.3 		"/>
	</g>
	<g id="XMLID_1588_">
		<path id="XMLID_1590_" class="st0" d="M2161.7,226.8h0.8c0.5,0,1,0.9,1,0.9l0,0l0,0c0,0-0.5,0.9-1,0.9h-0.8
			c-0.2,0-0.3-0.1-0.3-0.3l0-0.5l0-0.5C2161.4,227,2161.5,226.8,2161.7,226.8z"/>
		<polygon class="st0" points="2159.1,228.7 2158.6,228.7 2158.6,227.3 2161.4,227.3 2161.4,227.8 2159.1,227.8 		"/>
	</g>
	<g id="XMLID_1576_">
		<path class="st0" d="M2163.7,186.2h-4.1l-1.6-1.7v-9l1.6-1.7h4.1l1.9,1.7v9L2163.7,186.2z M2159.8,185.7h3.7l1.6-1.4v-8.5
			l-1.6-1.4h-3.7l-1.3,1.4v8.6L2159.8,185.7z"/>
		<polygon class="st0" points="2163.5,171.6 2157.9,169.7 2162.5,168 2157.9,166.7 2163.6,164 2163.8,164.5 2159.3,166.6 
			2164.1,168 2159.4,169.7 2163.7,171.1 		"/>
		<polygon class="st0" points="2163.5,195.3 2157.9,193.4 2162.5,191.8 2157.9,190.4 2163.6,187.8 2163.8,188.2 2159.3,190.3 
			2164.1,191.7 2159.4,193.4 2163.7,194.8 		"/>
		<polygon class="st0" points="2162.1,174.1 2161.6,174.1 2161.6,158.4 2165.1,151.1 2165.6,151.3 2162.1,158.6 		"/>
		<polygon class="st0" points="2165.1,208.5 2161.5,199.7 2161.5,186.1 2162,186.1 2162,199.7 2165.6,208.3 		"/>
		<g id="XMLID_1580_">
			<path id="XMLID_1582_" class="st0" d="M2161.7,198h0.8c0.5,0,1,0.9,1,0.9l0,0l0,0c0,0-0.5,0.9-1,0.9h-0.8c-0.2,0-0.3-0.1-0.3-0.3
				l0-0.5l0-0.5C2161.4,198.2,2161.5,198,2161.7,198z"/>
			<polygon class="st0" points="2159.1,199.9 2158.6,199.9 2158.6,198.5 2161.5,198.5 2161.5,199 2159.1,199 			"/>
		</g>
		<g id="XMLID_1577_">
			<path id="XMLID_1579_" class="st0" d="M2161.7,160.2h0.8c0.5,0,1,0.9,1,0.9l0,0l0,0c0,0-0.5,0.9-1,0.9h-0.8
				c-0.2,0-0.3-0.1-0.3-0.3l0-0.5l0-0.5C2161.4,160.3,2161.5,160.2,2161.7,160.2z"/>
			<polygon class="st0" points="2159.1,162 2158.6,162 2158.6,160.6 2161.5,160.6 2161.5,161.1 2159.1,161.1 			"/>
		</g>
	</g>
	<g id="XMLID_1564_">
		<path class="st0" d="M2163.7,119.7h-4.1l-1.6-1.7v-9l1.6-1.7h4.1l1.9,1.7v9L2163.7,119.7z M2159.8,119.2h3.7l1.6-1.4v-8.5
			l-1.6-1.4h-3.7l-1.3,1.4v8.6L2159.8,119.2z"/>
		<polygon class="st0" points="2163.5,105.1 2157.9,103.2 2162.5,101.5 2157.9,100.2 2163.6,97.5 2163.8,98 2159.3,100.1 
			2164.1,101.5 2159.4,103.2 2163.7,104.6 		"/>
		<polygon class="st0" points="2163.5,128.8 2157.9,126.9 2162.5,125.3 2157.9,123.9 2163.6,121.3 2163.8,121.7 2159.3,123.8 
			2164.1,125.2 2159.4,126.9 2163.7,128.3 		"/>
		<polygon class="st0" points="2162.1,107.6 2161.6,107.6 2161.6,91.9 2165.1,84.6 2165.6,84.8 2162.1,92.1 		"/>
		<polygon class="st0" points="2165.1,142 2161.6,133.2 2161.6,119.6 2162.1,119.6 2162.1,133.2 2165.6,141.8 		"/>
		<g id="XMLID_1568_">
			<path id="XMLID_1570_" class="st0" d="M2161.7,131.5h0.8c0.5,0,1,0.9,1,0.9l0,0l0,0c0,0-0.5,0.9-1,0.9h-0.8
				c-0.2,0-0.3-0.1-0.3-0.3l0-0.5l0-0.5C2161.4,131.7,2161.5,131.5,2161.7,131.5z"/>
			<polygon class="st0" points="2159.1,133.4 2158.6,133.4 2158.6,132 2161.5,132 2161.5,132.5 2159.1,132.5 			"/>
		</g>
		<g id="XMLID_1565_">
			<path id="XMLID_1567_" class="st0" d="M2161.7,93.7h0.8c0.5,0,1,0.9,1,0.9l0,0l0,0c0,0-0.5,0.9-1,0.9h-0.8
				c-0.2,0-0.3-0.1-0.3-0.3l0-0.5l0-0.5C2161.4,93.8,2161.5,93.7,2161.7,93.7z"/>
			<polygon class="st0" points="2159.1,95.5 2158.6,95.5 2158.6,94.1 2161.5,94.1 2161.5,94.6 2159.1,94.6 			"/>
		</g>
	</g>
	<g id="XMLID_1552_">
		<path class="st0" d="M2163.7,53.7h-4.1L2158,52v-9l1.6-1.7h4.1l1.9,1.7v9L2163.7,53.7z M2159.8,53.2h3.7l1.6-1.4v-8.5l-1.6-1.4
			h-3.7l-1.3,1.4v8.6L2159.8,53.2z"/>
		<polygon class="st0" points="2163.5,39.1 2157.9,37.2 2162.5,35.5 2157.9,34.2 2163.6,31.5 2163.8,32 2159.3,34.1 2164.1,35.5 
			2159.4,37.2 2163.7,38.6 		"/>
		<polygon class="st0" points="2163.5,62.8 2157.9,60.9 2162.5,59.3 2157.9,57.9 2163.6,55.3 2163.8,55.7 2159.3,57.8 2164.1,59.2 
			2159.4,60.9 2163.7,62.4 		"/>
		<polygon class="st0" points="2162.1,41.6 2161.6,41.6 2161.6,25.9 2165.1,18.6 2165.6,18.8 2162.1,26.1 		"/>
		<polygon class="st0" points="2165.1,76 2161.6,67.2 2161.6,53.6 2162.1,53.6 2162.1,67.2 2165.6,75.8 		"/>
		<g id="XMLID_1556_">
			<path id="XMLID_1558_" class="st0" d="M2161.7,65.5h0.8c0.5,0,1,0.9,1,0.9l0,0l0,0c0,0-0.5,0.9-1,0.9h-0.8
				c-0.2,0-0.3-0.1-0.3-0.3l0-0.5l0-0.5C2161.4,65.7,2161.5,65.5,2161.7,65.5z"/>
			<polygon class="st0" points="2159.1,67.4 2158.6,67.4 2158.6,66 2161.5,66 2161.5,66.5 2159.1,66.5 			"/>
		</g>
		<g id="XMLID_1553_">
			<path id="XMLID_1555_" class="st0" d="M2161.7,27.7h0.8c0.5,0,1,0.9,1,0.9v0l0,0c0,0-0.5,0.9-1,0.9h-0.8c-0.2,0-0.3-0.1-0.3-0.3
				l0-0.5l0-0.5C2161.4,27.8,2161.5,27.7,2161.7,27.7z"/>
			<polygon class="st0" points="2159.1,29.5 2158.6,29.5 2158.6,28.1 2161.5,28.1 2161.5,28.6 2159.1,28.6 			"/>
		</g>
	</g>
	<g id="XMLID_1540_">
		<path class="st0" d="M2163.7-12.8h-4.1l-1.6-1.7v-9l1.6-1.7h4.1l1.9,1.7v9L2163.7-12.8z M2159.8-13.3h3.7l1.6-1.4v-8.5l-1.6-1.4
			h-3.7l-1.3,1.4v8.6L2159.8-13.3z"/>
		<polygon class="st0" points="2163.5,-27.4 2157.9,-29.3 2162.5,-31 2157.9,-32.3 2163.6,-35 2163.8,-34.5 2159.3,-32.4 
			2164.1,-31 2159.4,-29.3 2163.7,-27.9 		"/>
		<polygon class="st0" points="2163.5,-3.7 2157.9,-5.6 2162.5,-7.2 2157.9,-8.6 2163.6,-11.2 2163.8,-10.8 2159.3,-8.7 
			2164.1,-7.3 2159.4,-5.6 2163.7,-4.1 		"/>
		<polygon class="st0" points="2194,-21.1 2190.1,-29.4 2190.1,-52.3 2162.1,-52.3 2162.1,-24.9 2161.6,-24.9 2161.6,-52.8 
			2190.6,-52.8 2190.6,-29.5 2194.4,-21.3 		"/>
		<polygon class="st0" points="2165.1,9.5 2161.6,0.7 2161.6,-12.9 2162.1,-12.9 2162.1,0.7 2165.6,9.3 		"/>
		<g id="XMLID_1544_">
			<path id="XMLID_1546_" class="st0" d="M2161.7-1h0.8c0.5,0,1,0.9,1,0.9v0v0c0,0-0.5,0.9-1,0.9h-0.8c-0.2,0-0.3-0.1-0.3-0.3l0-0.5
				l0-0.5C2161.4-0.8,2161.5-1,2161.7-1z"/>
			<polygon class="st0" points="2159.1,0.9 2158.6,0.9 2158.6,-0.5 2161.5,-0.5 2161.5,0 2159.1,0 			"/>
		</g>
		<g id="XMLID_1541_">
			<path id="XMLID_1543_" class="st0" d="M2161.7-38.8h0.8c0.5,0,1,0.9,1,0.9l0,0v0c0,0-0.5,0.9-1,0.9h-0.8c-0.2,0-0.3-0.1-0.3-0.3
				l0-0.5l0-0.5C2161.4-38.7,2161.5-38.8,2161.7-38.8z"/>
			<polygon class="st0" points="2159.1,-37 2158.6,-37 2158.6,-38.4 2161.5,-38.4 2161.5,-37.9 2159.1,-37.9 			"/>
		</g>
	</g>
	<polygon class="st0" points="2190.4,-5.1 2189.9,-5.1 2189.9,-20.5 2191.8,-20.5 2191.8,-20 2190.4,-20 	"/>
	<rect x="2158.4" y="12.2" class="st0" width="0.5" height="3.1"/>
	<polygon class="st0" points="2163.5,17.4 2161.6,17.4 2161.6,10.2 2163.5,10.2 2163.5,10.7 2162.1,10.7 2162.1,16.9 2163.5,16.9 	
		"/>
	<path class="st0" d="M2406.8,14h-213.5l-0.1-0.1c-0.4-0.9-1.9-3.2-3.1-3.2c-1.2,0-2.5,2.2-2.9,3.1l-0.1,0.1h-28.3v-0.5h28
		c0.3-0.7,1.7-3.2,3.3-3.2c1.6,0,3.1,2.7,3.5,3.4h213.2V14z"/>
	<polygon class="st0" points="2404.9,15.2 2404.8,14.7 2407.1,13.7 2404.7,12.3 2405,11.9 2408.2,13.8 	"/>
	<path class="st0" d="M2323.2,55.6c-0.1,0-0.2,0-0.2,0c-5.4-0.1-6.2-5-6.3-6.1h-36.1V49h36.6l0,0.2c0,0.2,0.3,5.8,5.9,5.9
		c2.1,0,3.7-0.5,4.9-1.6c1.5-1.5,1.7-3.5,1.8-4.1h-6.6v-6.8l0.3,0c4.5,0.1,6.6,4.3,6.8,6.3h21.5v0.5h-21.5c0,1.3-0.6,3.1-1.9,4.5
		C2327,55,2325.3,55.6,2323.2,55.6z M2323.5,48.9h6.1c-0.3-1.7-2.1-5.5-6.1-5.7V48.9z"/>
	<polygon class="st0" points="2343,56.4 2340.6,56.4 2340.6,55.9 2342.5,55.9 2342.5,42.5 2340.6,42.5 2340.6,42 2343,42 	"/>
	<path class="st0" d="M2365.5,62.4l0.1-6.5h5.9c-0.1-1.1-0.8-4.9-5.5-5c-0.1,0-0.2,0-0.2,0c-5.1,0-5.9,5.1-5.9,5.3l0,0.2h-8.5V42
		h27.1v14.4h-6.5c0,1.1-0.4,5.4-6.2,6L2365.5,62.4z M2366.1,56.4l-0.1,5.5c5.2-0.6,5.5-4.5,5.5-5.5H2366.1z M2372,55.9h6V42.5h-26.1
		v13.4h7.5c0.2-1.1,1.4-5.7,6.6-5.5C2371.1,50.5,2371.9,54.8,2372,55.9z"/>
	<path class="st0" d="M2371.8,44.4h-11.2v-3.9h11.2V44.4z M2361.1,43.9h10.2V41h-10.2V43.9z"/>
	
		<rect id="XMLID_1526_" x="2363.6" y="40.5" transform="matrix(-1.026050e-10 -1 1 -1.026050e-10 2322.7839 2405.3257)" class="st0" width="1" height="1.5"/>
	
		<rect id="XMLID_1525_" x="2363.6" y="42.8" transform="matrix(-8.208361e-11 -1 1 -8.208361e-11 2320.5313 2407.5784)" class="st0" width="1" height="1.5"/>
	
		<rect id="XMLID_1524_" x="2364.9" y="41.6" transform="matrix(-8.535921e-11 -1 1 -8.535921e-11 2323.1875 2408.217)" class="st0" width="1.5" height="1.7"/>
	<g id="XMLID_1518_">
		<path id="XMLID_1523_" class="st1" d="M2379.2,49.1"/>
		<rect x="2379" y="48.9" class="st0" width="2.6" height="0.8"/>
		<rect x="2381.4" y="47.5" class="st0" width="0.8" height="3.7"/>
		<rect x="2382.3" y="48.1" class="st0" width="0.8" height="2.5"/>
		<rect x="2383.3" y="48.6" class="st0" width="0.8" height="1.5"/>
	</g>
	<path id="XMLID_1517_" class="st0" d="M2350.6,50.1v-1.3c0-0.2,0.2-0.4,0.4-0.4h1.3c0.2,0,0.4,0.2,0.4,0.4v1.3
		c0,0.2-0.2,0.4-0.4,0.4h-1.3C2350.8,50.5,2350.6,50.3,2350.6,50.1z"/>
	<path id="XMLID_1516_" class="st0" d="M2160.8,14.5v-1.3c0-0.2,0.2-0.4,0.4-0.4h1.3c0.2,0,0.4,0.2,0.4,0.4v1.3
		c0,0.2-0.2,0.4-0.4,0.4h-1.3C2160.9,14.8,2160.8,14.7,2160.8,14.5z"/>
	<path id="XMLID_1515_" class="st0" d="M2160.7,80.8v-1.3c0-0.2,0.2-0.4,0.4-0.4h1.3c0.2,0,0.4,0.2,0.4,0.4v1.3
		c0,0.2-0.2,0.4-0.4,0.4h-1.3C2160.9,81.2,2160.7,81.1,2160.7,80.8z"/>
	<path id="XMLID_1514_" class="st0" d="M2160.7,147.1v-1.3c0-0.2,0.2-0.4,0.4-0.4h1.3c0.2,0,0.4,0.2,0.4,0.4v1.3
		c0,0.2-0.2,0.4-0.4,0.4h-1.3C2160.9,147.5,2160.7,147.3,2160.7,147.1z"/>
	<path id="XMLID_1513_" class="st0" d="M2160.7,213.7v-1.3c0-0.2,0.2-0.4,0.4-0.4h1.3c0.2,0,0.4,0.2,0.4,0.4v1.3
		c0,0.2-0.2,0.4-0.4,0.4h-1.3C2160.9,214.1,2160.7,213.9,2160.7,213.7z"/>
	<path id="XMLID_1512_" class="st0" d="M2160.7,346.4v-1.3c0-0.2,0.2-0.4,0.4-0.4h1.3c0.2,0,0.4,0.2,0.4,0.4v1.3
		c0,0.2-0.2,0.4-0.4,0.4h-1.3C2160.9,346.8,2160.7,346.6,2160.7,346.4z"/>
	<path id="XMLID_1511_" class="st0" d="M2160.7,412.4v-1.3c0-0.2,0.2-0.4,0.4-0.4h1.3c0.2,0,0.4,0.2,0.4,0.4v1.3
		c0,0.2-0.2,0.4-0.4,0.4h-1.3C2160.8,412.8,2160.7,412.6,2160.7,412.4z"/>
	<path id="XMLID_1510_" class="st0" d="M2160.7,479.2v-1.3c0-0.2,0.2-0.4,0.4-0.4h1.3c0.2,0,0.4,0.2,0.4,0.4v1.3
		c0,0.2-0.2,0.4-0.4,0.4h-1.3C2160.8,479.6,2160.7,479.4,2160.7,479.2z"/>
	<path id="XMLID_1509_" class="st0" d="M2161,545.4v-1.3c0-0.2,0.2-0.4,0.4-0.4h1.3c0.2,0,0.4,0.2,0.4,0.4v1.3
		c0,0.2-0.2,0.4-0.4,0.4h-1.3C2161.1,545.8,2161,545.6,2161,545.4z"/>
	<path id="XMLID_1507_" class="st0" d="M2160.6,612v-1.3c0-0.2,0.2-0.4,0.4-0.4h1.3c0.2,0,0.4,0.2,0.4,0.4v1.3
		c0,0.2-0.2,0.4-0.4,0.4h-1.3C2160.8,612.4,2160.6,612.3,2160.6,612z"/>
	<path id="XMLID_1505_" class="st0" d="M2377.2,50.1v-1.3c0-0.2,0.2-0.4,0.4-0.4h1.3c0.2,0,0.4,0.2,0.4,0.4v1.3
		c0,0.2-0.2,0.4-0.4,0.4h-1.3C2377.4,50.5,2377.2,50.3,2377.2,50.1z"/>
	<rect id="XMLID_1504_" x="2413.5" y="7.7" style="fill:none;" width="40.8" height="11.7"/>
	
		<text id="XMLID_1502_" transform="matrix(1 0 0 1 2413.46 16.4875)" class="st0" style="font-family:'SourceHanSansCN-Normal-GBpc-EUC-H'; font-size:10px;">安塘 I 线</text>
	<rect id="XMLID_1501_" x="2413.5" y="206.9" style="fill:none;" width="40.8" height="11.7"/>
	
		<text id="XMLID_1500_" transform="matrix(1 0 0 1 2413.46 215.7197)" class="st0" style="font-family:'SourceHanSansCN-Normal-GBpc-EUC-H'; font-size:10px;">安塘 II线</text>
	<rect id="XMLID_1498_" x="2355.5" y="19.7" style="fill:none;" width="22.1" height="16.4"/>
	<text id="XMLID_1497_" transform="matrix(1 0 0 1 2355.5437 25.8678)"><tspan x="0" y="0" class="st0" style="font-family:'SourceHanSansCN-Normal-GBpc-EUC-H'; font-size:7px;">中性点</tspan><tspan x="0" y="8.4" class="st0" style="font-family:'SourceHanSansCN-Normal-GBpc-EUC-H'; font-size:7px;">避雷器</tspan></text>
	<rect id="XMLID_1496_" x="2355.5" y="67.1" style="fill:none;" width="22.1" height="16.4"/>
	<text id="XMLID_1495_" transform="matrix(1 0 0 1 2355.5439 73.2992)"><tspan x="0" y="0" class="st0" style="font-family:'SourceHanSansCN-Normal-GBpc-EUC-H'; font-size:7px;">中性点</tspan><tspan x="0" y="8.4" class="st0" style="font-family:'SourceHanSansCN-Normal-GBpc-EUC-H'; font-size:7px;">小电抗</tspan></text>
	<rect id="XMLID_1494_" x="2309.9" y="65" style="fill:none;" width="26.3" height="16.4"/>
	<text id="XMLID_1493_" transform="matrix(1 0 0 1 2311.3621 71.1594)"><tspan x="0" y="0" class="st0" style="font-family:'SourceHanSansCN-Normal-GBpc-EUC-H'; font-size:7px;">安塘I线</tspan><tspan x="4.6" y="8.4" class="st0" style="font-family:'SourceHanSansCN-Normal-GBpc-EUC-H'; font-size:7px;">高抗</tspan></text>
	<rect id="XMLID_1492_" x="2275.9" y="137.9" style="fill:none;" width="31.2" height="16.4"/>
	<text id="XMLID_1491_" transform="matrix(1 0 0 1 2277.3169 144.1011)"><tspan x="0" y="0" class="st0" style="font-family:'SourceHanSansCN-Normal-GBpc-EUC-H'; font-size:7px;">二母压变</tspan><tspan x="1.4" y="8.4" class="st0" style="font-family:'SourceHanSansCN-Normal-GBpc-EUC-H'; font-size:7px;">（A相）</tspan></text>
	<rect id="XMLID_1490_" x="2211.8" y="337.3" style="fill:none;" width="31.2" height="16.4"/>
	<text id="XMLID_1489_" transform="matrix(1 0 0 1 2213.2239 343.4381)"><tspan x="0" y="0" class="st0" style="font-family:'SourceHanSansCN-Normal-GBpc-EUC-H'; font-size:7px;">一母压变</tspan><tspan x="1.4" y="8.4" class="st0" style="font-family:'SourceHanSansCN-Normal-GBpc-EUC-H'; font-size:7px;">（A相）</tspan></text>
	<rect id="XMLID_1488_" x="2239.2" y="125.3" style="fill:none;" width="31.2" height="16.4"/>
	
		<text id="XMLID_1487_" transform="matrix(1 0 0 1 2244.6775 134.1263)" class="st0" style="font-family:'SourceHanSansCN-Normal-GBpc-EUC-H'; font-size:10px;">二母</text>
	<path class="st0" d="M2269.4,147.3c-1.5,0-2.7-1.2-2.7-2.7s1.2-2.7,2.7-2.7s2.7,1.2,2.7,2.7S2270.9,147.3,2269.4,147.3z
		 M2269.4,142.4c-1.2,0-2.2,1-2.2,2.2s1,2.2,2.2,2.2s2.2-1,2.2-2.2S2270.7,142.4,2269.4,142.4z"/>
	<path class="st0" d="M2269.4,151.3c-1.5,0-2.7-1.2-2.7-2.7s1.2-2.7,2.7-2.7s2.7,1.2,2.7,2.7S2270.9,151.3,2269.4,151.3z
		 M2269.4,146.4c-1.2,0-2.2,1-2.2,2.2s1,2.2,2.2,2.2s2.2-1,2.2-2.2S2270.7,146.4,2269.4,146.4z"/>
	<path class="st0" d="M2267.7,148.8c-1.5,0-2.7-1.2-2.7-2.7s1.2-2.7,2.7-2.7s2.7,1.2,2.7,2.7S2269.1,148.8,2267.7,148.8z
		 M2267.7,144c-1.2,0-2.2,1-2.2,2.2s1,2.2,2.2,2.2s2.2-1,2.2-2.2S2268.9,144,2267.7,144z"/>
	<path class="st0" d="M2205.1,346.5c-1.5,0-2.7-1.2-2.7-2.7s1.2-2.7,2.7-2.7s2.7,1.2,2.7,2.7S2206.6,346.5,2205.1,346.5z
		 M2205.1,341.6c-1.2,0-2.2,1-2.2,2.2s1,2.2,2.2,2.2s2.2-1,2.2-2.2S2206.3,341.6,2205.1,341.6z"/>
	<path class="st0" d="M2205.1,350.5c-1.5,0-2.7-1.2-2.7-2.7s1.2-2.7,2.7-2.7s2.7,1.2,2.7,2.7S2206.6,350.5,2205.1,350.5z
		 M2205.1,345.6c-1.2,0-2.2,1-2.2,2.2s1,2.2,2.2,2.2s2.2-1,2.2-2.2S2206.3,345.6,2205.1,345.6z"/>
	<path class="st0" d="M2203.3,348c-1.5,0-2.7-1.2-2.7-2.7s1.2-2.7,2.7-2.7s2.7,1.2,2.7,2.7S2204.8,348,2203.3,348z M2203.3,343.2
		c-1.2,0-2.2,1-2.2,2.2s1,2.2,2.2,2.2s2.2-1,2.2-2.2S2204.5,343.2,2203.3,343.2z"/>
	<path class="st0" d="M2158.7,148h-0.5v-2.1l28.7,0.4c0.3-0.6,1.8-2.8,3.6-2.8c0,0,0,0,0.1,0c1.8,0,3,1.9,3.3,2.4h71.3v0.5h-71.6
		l-0.1-0.1c0,0-1.2-2.3-3-2.3c0,0,0,0-0.1,0c-1.8,0-3.3,2.6-3.3,2.7l-0.1,0.1l-28.5-0.4V148z"/>
	<polygon class="st0" points="2163.5,149.9 2161.5,149.9 2161.5,142.9 2163.5,142.9 2163.5,143.4 2162,143.4 2162,149.4 
		2163.5,149.4 	"/>
	<polygon class="st0" points="2163.5,216.3 2161.5,216.3 2161.5,209.5 2163.5,209.5 2163.5,210 2162,210 2162,215.8 2163.5,215.8 	
		"/>
	<rect x="2158.2" y="211.5" class="st0" width="0.5" height="2.5"/>
	<path class="st0" d="M2187.5,213.3h-28.7v-0.5h28.5c0.3-0.7,1.3-3.3,3.4-3.3c0,0,0,0,0.1,0c2.1,0,3.1,2.4,3.4,3h57.4
		c0.2-0.6,1.1-2.5,3.1-3c2.2-0.5,3.2,2.2,3.5,3h148.1l-1.6-0.9l0.3-0.4l2.4,1.4c0.1,0.1,0.1,0.2,0.1,0.3s-0.1,0.2-0.2,0.2H2258
		c-0.1,0-0.2-0.1-0.2-0.2c0,0-1-3.3-3-2.8c-2.1,0.5-2.8,2.8-2.8,2.8c0,0.1-0.1,0.2-0.2,0.2H2194c-0.1,0-0.2-0.1-0.2-0.2
		c0,0-1-2.9-3-2.9c0,0,0,0,0,0c-2,0-3,3.1-3,3.1C2187.7,213.2,2187.6,213.3,2187.5,213.3z"/>
	
		<rect x="2404.7" y="213.2" transform="matrix(0.8658 -0.5003 0.5003 0.8658 216.0307 1232.5004)" class="st0" width="2.7" height="0.5"/>
	<path id="XMLID_1474_" class="st0" d="M2278.8,448.9l-1.1-1.1c-0.2-0.2-0.2-0.5,0-0.6l1.1-1.1c0.2-0.2,0.5-0.2,0.6,0l1.1,1.1
		c0.2,0.2,0.2,0.5,0,0.6l-1.1,1.1C2279.2,449.1,2279,449.1,2278.8,448.9z"/>
	<path id="XMLID_1473_" class="st0" d="M2278.8,412.9l-1.1-1.1c-0.2-0.2-0.2-0.5,0-0.6l1.1-1.1c0.2-0.2,0.5-0.2,0.6,0l1.1,1.1
		c0.2,0.2,0.2,0.5,0,0.6l-1.1,1.1C2279.3,413.1,2279,413.1,2278.8,412.9z"/>
	<path class="st0" d="M2305.4,467.3c-1.5,0-2.8-1.3-2.8-2.8c0-1.5,1.3-2.8,2.8-2.8s2.8,1.3,2.8,2.8
		C2308.2,466.1,2306.9,467.3,2305.4,467.3z M2305.4,462.2c-1.3,0-2.3,1-2.3,2.3s1,2.3,2.3,2.3s2.3-1,2.3-2.3
		S2306.6,462.2,2305.4,462.2z"/>
	<path class="st0" d="M2302.6,464.5c-1.5,0-2.8-1.3-2.8-2.8s1.3-2.8,2.8-2.8s2.8,1.3,2.8,2.8S2304.1,464.5,2302.6,464.5z
		 M2302.6,459.4c-1.3,0-2.3,1-2.3,2.3s1,2.3,2.3,2.3s2.3-1,2.3-2.3S2303.8,459.4,2302.6,459.4z"/>
	<path class="st0" d="M2307.6,464.4c-1.5,0-2.8-1.3-2.8-2.8c0-1.5,1.3-2.8,2.8-2.8s2.8,1.3,2.8,2.8
		C2310.4,463.1,2309.2,464.4,2307.6,464.4z M2307.6,459.3c-1.3,0-2.3,1-2.3,2.3s1,2.3,2.3,2.3s2.3-1,2.3-2.3
		S2308.9,459.3,2307.6,459.3z"/>
	<path class="st0" d="M2300.5,467.3c-1.5,0-2.8-1.3-2.8-2.8c0-1.5,1.3-2.8,2.8-2.8s2.8,1.3,2.8,2.8
		C2303.3,466.1,2302,467.3,2300.5,467.3z M2300.5,462.2c-1.3,0-2.3,1-2.3,2.3s1,2.3,2.3,2.3c1.3,0,2.3-1,2.3-2.3
		S2301.8,462.2,2300.5,462.2z"/>
	<polygon class="st0" points="2299.6,465.9 2299.3,465.6 2300.5,464.4 2301.7,465.4 2301.4,465.8 2300.5,465.1 	"/>
	<rect x="2300.3" y="463.9" class="st0" width="0.5" height="0.8"/>
	<polygon class="st0" points="2308.3,462.3 2307.6,461.5 2306.6,462.3 2306.3,461.9 2307.6,460.8 2308.7,461.9 	"/>
	
		<rect x="2307.2" y="460.5" transform="matrix(7.819124e-02 -0.9969 0.9969 7.819124e-02 1667.8459 2725.2551)" class="st0" width="0.8" height="0.5"/>
	<polygon class="st0" points="2302.1,462.2 2301.7,461.8 2303,460.7 2304.1,461.7 2303.8,462 2303,461.3 	"/>
	<rect x="2302.7" y="460.2" class="st0" width="0.5" height="0.8"/>
	<path class="st0" d="M2298.5,464.4c-1.5,0-2.8-1.3-2.8-2.8c0-1.5,1.3-2.8,2.8-2.8s2.8,1.3,2.8,2.8
		C2301.3,463.1,2300.1,464.4,2298.5,464.4z M2298.5,459.3c-1.3,0-2.3,1-2.3,2.3s1,2.3,2.3,2.3s2.3-1,2.3-2.3
		S2299.8,459.3,2298.5,459.3z"/>
	<polygon class="st0" points="2298.7,462.7 2297.5,461.5 2298.5,460.3 2298.9,460.7 2298.2,461.5 2299,462.4 	"/>
	<rect x="2297" y="461.2" class="st0" width="0.8" height="0.5"/>
	<rect x="2280" y="447.4" class="st0" width="18" height="0.5"/>
	<rect x="2299.7" y="447.4" class="st0" width="6.6" height="0.5"/>
	<rect x="2308.1" y="447.4" class="st0" width="1.7" height="0.5"/>
	<rect x="2297.9" y="445.1" class="st0" width="0.5" height="4.9"/>
	<rect x="2299.4" y="445.1" class="st0" width="0.5" height="4.9"/>
	<rect x="2306.1" y="445.1" class="st0" width="0.5" height="4.9"/>
	<rect x="2307.6" y="445.1" class="st0" width="0.5" height="4.9"/>
	<rect x="2302.7" y="447.7" class="st0" width="0.5" height="24.3"/>
	<path class="st0" d="M2305.5,466l-0.4-0.3l0.9-0.9h-1.8l0.7,0.9l-0.4,0.3l-1-1.3c-0.1-0.1-0.1-0.2,0-0.3c0-0.1,0.1-0.1,0.2-0.1h2.9
		c0.1,0,0.2,0.1,0.2,0.2c0,0.1,0,0.2,0,0.3L2305.5,466z"/>
	<rect x="2309.6" y="445.7" class="st0" width="0.5" height="3.6"/>
	<rect x="2310.8" y="446.2" class="st0" width="0.5" height="2.5"/>
	<rect x="2311.9" y="446.7" class="st0" width="0.5" height="1.7"/>
	<rect x="2301" y="471.7" class="st0" width="3.6" height="0.5"/>
	<rect x="2301.6" y="472.8" class="st0" width="2.5" height="0.5"/>
	<rect x="2301.9" y="474" class="st0" width="1.7" height="0.5"/>
	<g id="XMLID_1435_">
		
			<rect x="2278.7" y="411.5" transform="matrix(1 -1.236869e-03 1.236869e-03 1 -0.5409 2.8191)" class="st0" width="0.5" height="54.5"/>
		<path class="st0" d="M2277.1,470l-0.1-11.7l4.1,0l0.1,11.7L2277.1,470z M2277.5,458.9l0.1,10.7l3.1,0l-0.1-10.7L2277.5,458.9z"/>
		
			<rect id="XMLID_1442_" x="2279.8" y="461.1" transform="matrix(1 -5.578222e-03 5.578222e-03 1 -2.5412 12.7273)" class="st0" width="1" height="1.6"/>
		
			<rect id="XMLID_1441_" x="2277.4" y="461.1" transform="matrix(1 -5.578222e-03 5.578222e-03 1 -2.5413 12.7141)" class="st0" width="1" height="1.6"/>
		
			<rect id="XMLID_1440_" x="2278.2" y="462.7" transform="matrix(1 -5.578222e-03 5.578222e-03 1 -2.5508 12.7201)" class="st0" width="1.6" height="1.8"/>
		
			<rect x="2278.7" y="469.8" transform="matrix(1 -5.797004e-03 5.797004e-03 1 -2.6918 13.2198)" class="st0" width="0.8" height="2.4"/>
		
			<rect x="2276.9" y="472" transform="matrix(1 -5.208263e-03 5.208263e-03 1 -2.4295 11.8766)" class="st0" width="4.4" height="0.8"/>
		
			<rect x="2277.8" y="473.1" transform="matrix(1 -5.208263e-03 5.208263e-03 1 -2.4351 11.8766)" class="st0" width="2.7" height="0.8"/>
		
			<rect x="2278.1" y="474.2" transform="matrix(1 -5.208263e-03 5.208263e-03 1 -2.4407 11.8765)" class="st0" width="1.9" height="0.8"/>
	</g>
	<rect id="XMLID_1434_" x="2413.5" y="405.6" style="fill:none;" width="40.8" height="11.7"/>
	
		<text id="XMLID_1433_" transform="matrix(1 0 0 1 2413.46 414.4358)" class="st0" style="font-family:'SourceHanSansCN-Normal-GBpc-EUC-H'; font-size:10px;">吴塘 I线</text>
	<rect id="XMLID_1432_" x="2413.5" y="605.3" style="fill:none;" width="40.8" height="11.7"/>
	
		<text id="XMLID_1431_" transform="matrix(1 0 0 1 2413.46 614.082)" class="st0" style="font-family:'SourceHanSansCN-Normal-GBpc-EUC-H'; font-size:10px;">吴塘 II线</text>
	<rect id="XMLID_1430_" x="2246.1" y="554.5" style="fill:none;" width="18" height="9.9"/>
	
		<text id="XMLID_1429_" transform="matrix(1 0 0 1 2246.1174 561.496)" class="st0" style="font-family:'SourceHanSansCN-Normal-GBpc-EUC-H'; font-size:8px;">二母</text>
	<path class="st0" d="M2186.6,412h-27.8v-0.5h27.7c0.3-0.7,1.3-3.3,3.4-3.3c0,0,0,0,0.1,0c2.1,0,3.1,2.4,3.4,3h57.4
		c0.2-0.6,1.1-2.5,3.1-3c2.2-0.5,3.2,2.2,3.5,3h148.1l-1.6-0.9l0.3-0.4l2.4,1.4c0.1,0.1,0.1,0.2,0.1,0.3s-0.1,0.2-0.2,0.2h-149.3
		c-0.1,0-0.2-0.1-0.2-0.2c0,0-1-3.3-3-2.8c-2.1,0.5-2.8,2.8-2.8,2.8c0,0.1-0.1,0.2-0.2,0.2h-57.8c-0.1,0-0.2-0.1-0.2-0.2
		c0,0-1-2.9-3-2.9c0,0,0,0,0,0c-2,0-3,3.1-3,3.1C2186.8,411.9,2186.8,412,2186.6,412z"/>
	
		<rect x="2403.8" y="412" transform="matrix(0.8658 -0.5003 0.5003 0.8658 116.455 1258.7361)" class="st0" width="2.7" height="0.5"/>
	<path id="XMLID_1426_" class="st0" d="M2279.6,648.6l-1.1-1.1c-0.2-0.2-0.2-0.5,0-0.6l1.1-1.1c0.2-0.2,0.5-0.2,0.6,0l1.1,1.1
		c0.2,0.2,0.2,0.5,0,0.6l-1.1,1.1C2280.1,648.8,2279.8,648.8,2279.6,648.6z"/>
	<path id="XMLID_1425_" class="st0" d="M2279.7,612.6l-1.1-1.1c-0.2-0.2-0.2-0.5,0-0.6l1.1-1.1c0.2-0.2,0.5-0.2,0.6,0l1.1,1.1
		c0.2,0.2,0.2,0.5,0,0.6l-1.1,1.1C2280.1,612.7,2279.8,612.7,2279.7,612.6z"/>
	<path class="st0" d="M2306.2,667c-1.5,0-2.8-1.3-2.8-2.8s1.3-2.8,2.8-2.8s2.8,1.3,2.8,2.8S2307.8,667,2306.2,667z M2306.2,661.9
		c-1.3,0-2.3,1-2.3,2.3s1,2.3,2.3,2.3c1.3,0,2.3-1,2.3-2.3S2307.5,661.9,2306.2,661.9z"/>
	<path class="st0" d="M2303.4,664.2c-1.5,0-2.8-1.3-2.8-2.8s1.3-2.8,2.8-2.8s2.8,1.3,2.8,2.8S2305,664.2,2303.4,664.2z
		 M2303.4,659.1c-1.3,0-2.3,1-2.3,2.3s1,2.3,2.3,2.3s2.3-1,2.3-2.3S2304.7,659.1,2303.4,659.1z"/>
	<path class="st0" d="M2308.5,664.1c-1.5,0-2.8-1.3-2.8-2.8s1.3-2.8,2.8-2.8s2.8,1.3,2.8,2.8S2310.1,664.1,2308.5,664.1z
		 M2308.5,659c-1.3,0-2.3,1-2.3,2.3s1,2.3,2.3,2.3s2.3-1,2.3-2.3S2309.8,659,2308.5,659z"/>
	<path class="st0" d="M2301.4,667c-1.5,0-2.8-1.3-2.8-2.8s1.3-2.8,2.8-2.8s2.8,1.3,2.8,2.8S2302.9,667,2301.4,667z M2301.4,661.9
		c-1.3,0-2.3,1-2.3,2.3s1,2.3,2.3,2.3s2.3-1,2.3-2.3S2302.6,661.9,2301.4,661.9z"/>
	<polygon class="st0" points="2300.5,665.6 2300.1,665.2 2301.4,664.1 2302.6,665.1 2302.2,665.5 2301.4,664.8 	"/>
	<rect x="2301.1" y="663.6" class="st0" width="0.5" height="0.8"/>
	<polygon class="st0" points="2309.2,661.9 2308.4,661.2 2307.4,661.9 2307.1,661.5 2308.5,660.5 2309.5,661.6 	"/>
	
		<rect x="2308.1" y="660.2" transform="matrix(7.819124e-02 -0.9969 0.9969 7.819124e-02 1469.5865 2910.1826)" class="st0" width="0.8" height="0.5"/>
	<polygon class="st0" points="2302.9,661.8 2302.6,661.5 2303.9,660.3 2305,661.3 2304.7,661.7 2303.9,661 	"/>
	<rect x="2303.6" y="659.8" class="st0" width="0.5" height="0.8"/>
	<path class="st0" d="M2299.4,664.1c-1.5,0-2.8-1.3-2.8-2.8s1.3-2.8,2.8-2.8s2.8,1.3,2.8,2.8S2300.9,664.1,2299.4,664.1z
		 M2299.4,659c-1.3,0-2.3,1-2.3,2.3s1,2.3,2.3,2.3s2.3-1,2.3-2.3S2300.6,659,2299.4,659z"/>
	<polygon class="st0" points="2299.5,662.4 2298.4,661.2 2299.4,660 2299.8,660.3 2299.1,661.2 2299.9,662.1 	"/>
	<rect x="2297.9" y="660.9" class="st0" width="0.8" height="0.5"/>
	<rect x="2280.9" y="647.1" class="st0" width="18" height="0.5"/>
	<rect x="2300.5" y="647.1" class="st0" width="6.6" height="0.5"/>
	<rect x="2309" y="647.1" class="st0" width="1.7" height="0.5"/>
	<rect x="2298.8" y="644.7" class="st0" width="0.5" height="4.9"/>
	<rect x="2300.3" y="644.7" class="st0" width="0.5" height="4.9"/>
	<rect x="2307" y="644.7" class="st0" width="0.5" height="4.9"/>
	<rect x="2308.5" y="644.7" class="st0" width="0.5" height="4.9"/>
	<rect x="2303.6" y="647.3" class="st0" width="0.5" height="24.3"/>
	<path class="st0" d="M2306.3,665.7l-0.4-0.3l0.9-0.9h-1.8l0.7,0.9l-0.4,0.3l-1-1.3c-0.1-0.1-0.1-0.2,0-0.3c0-0.1,0.1-0.1,0.2-0.1
		h2.9c0.1,0,0.2,0.1,0.2,0.2c0,0.1,0,0.2,0,0.3L2306.3,665.7z"/>
	<rect x="2310.5" y="645.4" class="st0" width="0.5" height="3.6"/>
	<rect x="2311.7" y="645.9" class="st0" width="0.5" height="2.5"/>
	<rect x="2312.8" y="646.4" class="st0" width="0.5" height="1.7"/>
	<rect x="2301.9" y="671.4" class="st0" width="3.6" height="0.5"/>
	<rect x="2302.4" y="672.5" class="st0" width="2.5" height="0.5"/>
	<rect x="2302.8" y="673.6" class="st0" width="1.7" height="0.5"/>
	<g id="XMLID_1387_">
		<polygon class="st0" points="2279.6,665.6 2279.5,611.1 2280,611.1 2280.1,665.6 		"/>
		<path class="st0" d="M2277.9,669.7l-0.1-11.7l4.1,0l0.1,11.7L2277.9,669.7z M2278.4,658.5l0.1,10.7l3.1,0l-0.1-10.7L2278.4,658.5z
			"/>
		
			<rect id="XMLID_1394_" x="2280.7" y="660.8" transform="matrix(1 -5.578222e-03 5.578222e-03 1 -3.655 12.7352)" class="st0" width="1" height="1.6"/>
		
			<rect id="XMLID_1393_" x="2278.3" y="660.8" transform="matrix(1 -5.578222e-03 5.578222e-03 1 -3.6551 12.7221)" class="st0" width="1" height="1.6"/>
		
			<rect id="XMLID_1392_" x="2279.1" y="662.4" transform="matrix(1 -5.578222e-03 5.578222e-03 1 -3.6646 12.7281)" class="st0" width="1.6" height="1.8"/>
		
			<rect x="2279.6" y="669.4" transform="matrix(1 -5.797004e-03 5.797004e-03 1 -3.8493 13.2282)" class="st0" width="0.8" height="2.4"/>
		
			<rect x="2277.8" y="671.7" transform="matrix(1 -5.208263e-03 5.208263e-03 1 -3.4694 11.8838)" class="st0" width="4.4" height="0.8"/>
		
			<rect x="2278.6" y="672.8" transform="matrix(1 -5.208263e-03 5.208263e-03 1 -3.475 11.8839)" class="st0" width="2.7" height="0.8"/>
		
			<rect x="2279" y="673.9" transform="matrix(1 -5.208263e-03 5.208263e-03 1 -3.4806 11.8837)" class="st0" width="1.9" height="0.8"/>
	</g>
	<path class="st0" d="M2187.5,611.7h-28.7v-0.5h28.5c0.3-0.7,1.3-3.3,3.4-3.3c0,0,0,0,0.1,0c2.1,0,3.1,2.4,3.4,3h212.2l-1.6-0.9
		l0.3-0.4l2.4,1.4c0.1,0.1,0.1,0.2,0.1,0.3c0,0.1-0.1,0.2-0.2,0.2H2194c-0.1,0-0.2-0.1-0.2-0.2c0,0-1-2.9-3-2.9c0,0,0,0,0,0
		c-2,0-3,3.1-3,3.1C2187.7,611.6,2187.6,611.7,2187.5,611.7z"/>
	<path class="st0" d="M2186.6,545H2162v-0.5h24.5c0.3-0.7,1.3-3.3,3.4-3.3c0,0,0,0,0.1,0c2.1,0,3.1,2.4,3.4,3h60.9v0.5h-61
		c-0.1,0-0.2-0.1-0.2-0.2c0,0-1-2.9-3-2.9c0,0,0,0,0,0c-2,0-3,3.1-3,3.1C2186.8,544.9,2186.8,545,2186.6,545z"/>
	<polygon class="st0" points="2405,612.8 2404.8,612.4 2407.1,611 2407.4,611.4 	"/>
	<rect x="2253.2" y="145.8" class="st0" width="2" height="399.7"/>
	<rect x="2189.5" y="-7.4" class="st0" width="2" height="705.9"/>
	<path class="st0" d="M2193.6-39.8h-3.3v-0.5h3V-41h0.5v0.9C2193.9-39.9,2193.8-39.8,2193.6-39.8z"/>
	<polygon class="st0" points="2162,334.4 2161.5,334.4 2161.5,275.6 2163.5,275.6 2163.5,276.1 2162,276.1 	"/>
	<polygon class="st0" points="2166.5,342.8 2162,342.8 2162,342.3 2165.7,342.3 2161.6,334.5 2162,334.3 	"/>
	<polygon class="st0" points="2163,349.2 2161.5,349.2 2161.5,342.5 2162,342.5 2162,348.7 2163,348.7 	"/>
	<polygon class="st0" points="2158.8,347.2 2158.3,347.2 2158.3,345.5 2200.9,345.5 2200.9,346 2158.8,346 	"/>
	<path class="st0" d="M2020.1,94.3l0-0.5c12.7-1.2,12.7-13.1,12.7-13.6l0-0.3h140.5v1.7h-0.5v-1.2h-139.5
		C2033.2,82.2,2032.2,93.2,2020.1,94.3z"/>
	<polygon class="st0" points="2162.8,83.9 2161.2,83.9 2161.2,76.5 2162.8,76.5 2162.8,77 2161.7,77 2161.7,83.4 2162.8,83.4 	"/>
	<path class="st0" d="M2163.5,416.2h-1.8c-0.1,0-0.3-0.1-0.3-0.3v-7.5c0-0.1,0.1-0.3,0.3-0.3h1.5v0.5h-1.3v7h1.6V416.2z"/>
	<rect x="2158.3" y="410.7" class="st0" width="0.5" height="2.5"/>
	<path class="st0" d="M2163.4,614.5h-1.4c-0.1,0-0.3-0.1-0.3-0.3v-6.2c0-0.1,0.1-0.3,0.3-0.3h1.1v0.5h-0.8v5.7h1.1V614.5z"/>
	<rect x="2158.3" y="609.8" class="st0" width="0.5" height="2.6"/>
	<path class="st0" d="M2163.1,548.3h-1.4c-0.1,0-0.3-0.1-0.3-0.3v-6.6c0-0.1,0.1-0.3,0.3-0.3h1.4v0.5h-1.1v6.1h1.1V548.3z"/>
	<rect x="2189.8" y="700.7" class="st0" width="0.5" height="12"/>
	<path class="st0" d="M2194.1,732.8h-0.5v-1.1h-3.5v-0.5h3.8c0.1,0,0.3,0.1,0.3,0.3V732.8z"/>
	<path class="st0" d="M2190.7,719.9l-0.5-0.2l3.2-6.6h-3.4v-0.5h3.8c0.1,0,0.2,0,0.2,0.1c0,0.1,0.1,0.2,0,0.2L2190.7,719.9z"/>
</g>
</svg>
