<?xml version="1.0" encoding="utf-8"?>
<!-- Generator: Adobe Illustrator 22.1.0, SVG Export Plug-In . SVG Version: 6.00 Build 0)  -->
<svg version="1.1" id="站用电_x5F_复制" xmlns="http://www.w3.org/2000/svg" xmlns:xlink="http://www.w3.org/1999/xlink"
	 x="0px" y="0px" viewBox="0 0 1920 1080" style="enable-background:new 0 0 1920 1080;" xml:space="preserve">
<style type="text/css">
	.st0{fill:#FFA8A8;}
</style>
<g>
	<g>
		<rect x="2119.2" y="-306.8" class="st0" width="0.5" height="13.1"/>
		<path class="st0" d="M2121.9-288.9h-4.7v-13.7h4.7V-288.9z M2117.7-289.4h3.7v-12.7h-3.7V-289.4z"/>
		<rect id="XMLID_368_" x="2120.4" y="-299.4" class="st0" width="1.2" height="1.9"/>
		<rect id="XMLID_367_" x="2117.6" y="-299.4" class="st0" width="1.2" height="1.9"/>
		<rect id="XMLID_366_" x="2118.5" y="-297.5" class="st0" width="1.9" height="2.2"/>
		<rect x="2119.1" y="-289.2" class="st0" width="0.8" height="2.8"/>
		<rect x="2116.9" y="-286.4" class="st0" width="5.2" height="0.8"/>
		<rect x="2117.9" y="-285.2" class="st0" width="3.2" height="0.8"/>
		<rect x="2118.4" y="-283.9" class="st0" width="2.2" height="0.8"/>
		<g id="XMLID_365_">
			<rect x="2003.9" y="-260.3" class="st0" width="19.6" height="0.5"/>
			<rect x="2003.4" y="-262.4" class="st0" width="0.8" height="4.7"/>
			<rect x="2001.9" y="-261.8" class="st0" width="0.8" height="3.4"/>
			<rect x="2000.6" y="-261.1" class="st0" width="0.8" height="2.1"/>
		</g>
		<path class="st0" d="M2017.5-250.4c-5.4,0-9.7-4.4-9.7-9.7s4.4-9.7,9.7-9.7c5.4,0,9.7,4.4,9.7,9.7S2022.9-250.4,2017.5-250.4z
			 M2017.5-269c-4.9,0-9,4-9,9s4,9,9,9s9-4,9-9S2022.5-269,2017.5-269z"/>
		<path class="st0" d="M2018-263.7c-5.7,0-10.3-4.6-10.3-10.3c0-5.7,4.6-10.3,10.3-10.3s10.3,4.6,10.3,10.3
			C2028.3-268.3,2023.7-263.7,2018-263.7z M2018-283.4c-5.2,0-9.5,4.3-9.5,9.5c0,5.2,4.3,9.5,9.5,9.5s9.5-4.3,9.5-9.5
			C2027.5-279.2,2023.3-283.4,2018-283.4z"/>
		<polygon class="st0" points="2013.3,-254 2012.7,-254.4 2017.5,-260.2 2014.2,-266.9 2014.9,-267.2 2018.4,-260 		"/>
		<path class="st0" d="M2024.5-270.7h-14.3l7.9-11.3L2024.5-270.7z M2011.6-271.4h11.6l-5.2-9.1L2011.6-271.4z"/>
		
			<rect x="2018.1" y="-353.3" transform="matrix(0.5692 -0.8222 0.8222 0.5692 1158.3135 1508.0885)" class="st0" width="0.5" height="4"/>
		<path class="st0" d="M2147.3-350l-0.3-0.4l3.1-2.2v-6.9h-133.3v7c0,0.1,0,0.1-0.1,0.2l-2.9,2.3l-0.3-0.4l2.8-2.2v-7.1
			c0-0.1,0.1-0.3,0.3-0.3h133.8c0.1,0,0.3,0.1,0.3,0.3v7.3c0,0.1,0,0.2-0.1,0.2L2147.3-350z"/>
		
			<rect x="2151.3" y="-352.9" transform="matrix(0.7071 -0.7071 0.7071 0.7071 878.5928 1418.4788)" class="st0" width="0.5" height="3.2"/>
		<path class="st0" d="M2147.8-347.2l-0.3-0.4l2.8-2c0.1-0.1,0.2-0.1,0.3,0l2.3,2l-0.3,0.4l-2.1-1.9L2147.8-347.2z"/>
		<path class="st0" d="M2019.8-347.2l-3.1-1.9l-2.1,1.9l-0.3-0.4l2.3-2c0.1-0.1,0.2-0.1,0.3,0l3.3,2L2019.8-347.2z"/>
		<rect x="2061.7" y="-363.4" class="st0" width="0.5" height="8.5"/>
		<rect x="2128.4" y="-363.4" class="st0" width="0.5" height="7.8"/>
		<rect x="2096.5" y="-359.6" class="st0" width="0.5" height="21.9"/>
		<rect x="2149.9" y="-349.4" class="st0" width="0.5" height="21.9"/>
		
			<rect x="2075.6" y="-335.6" transform="matrix(0.6218 -0.7832 0.7832 0.6218 1046.5336 1499.5092)" class="st0" width="0.5" height="3.6"/>
		<path class="st0" d="M2116.8-332l-0.3-0.4l2.9-2.7v-2.4h-44.7v2.5c0,0.1,0,0.1-0.1,0.2l-2.8,2.3l-0.3-0.4l2.7-2.2v-2.6
			c0-0.1,0.1-0.3,0.3-0.3h45.2c0.1,0,0.3,0.1,0.3,0.3v2.8c0,0.1,0,0.1-0.1,0.2L2116.8-332z"/>
		
			<rect x="2120.8" y="-335.5" transform="matrix(0.7125 -0.7016 0.7016 0.7125 843.7858 1392.3193)" class="st0" width="0.5" height="3.9"/>
		<path class="st0" d="M2122.2-328.7l-2.7-2.7l-2.6,2.6l-0.4-0.4l2.8-2.8c0.1-0.1,0.3-0.1,0.4,0l2.9,2.9L2122.2-328.7z"/>
		<path class="st0" d="M2077.1-329.2l-2.7-2.7l-2.6,2.6l-0.4-0.4l2.8-2.8c0.1-0.1,0.3-0.1,0.4,0l2.9,2.9L2077.1-329.2z"/>
		<rect x="2016.9" y="-348.6" class="st0" width="0.5" height="6.1"/>
		
			<rect x="2014.1" y="-341.9" transform="matrix(0.7071 -0.7071 0.7071 0.7071 832.5079 1326.5326)" class="st0" width="6.8" height="0.5"/>
		
			<rect x="2017.3" y="-345.1" transform="matrix(0.7071 -0.7071 0.7071 0.7071 832.5079 1326.5326)" class="st0" width="0.5" height="6.8"/>
		<path class="st0" d="M2017.8-327.7h-0.5v-4.5c0,0,0-0.1,0-0.1l3.3-6.4l0.4,0.2l-3.3,6.3V-327.7z"/>
		<path class="st0" d="M2017.2-326.6c-0.1,0-0.1,0-0.2-0.1l-2.8-2.5l0.3-0.4l2.6,2.4l2.6-2.4l0.3,0.4l-2.8,2.5
			C2017.3-326.6,2017.2-326.6,2017.2-326.6z"/>
		<path class="st0" d="M2017.5-323.7c-0.1,0-0.1,0-0.2-0.1l-3.1-2.9l0.3-0.4l2.9,2.7l2.2-2.3l0.4,0.3l-2.4,2.5
			C2017.7-323.7,2017.6-323.7,2017.5-323.7z"/>
		<rect x="2016.9" y="-324.3" class="st0" width="0.5" height="41.1"/>
		<path class="st0" d="M2021.5-312.6l-9-2.1c-0.1,0-0.2-0.1-0.2-0.2c0-0.1,0.1-0.2,0.2-0.2l7.2-1.7l-7.2-1.5c-0.1,0-0.2-0.1-0.2-0.2
			s0.1-0.2,0.2-0.2l9-2.1l0.1,0.5l-7.9,1.8l7.1,1.5c0.1,0,0.2,0.1,0.2,0.2s-0.1,0.2-0.2,0.2l-7.2,1.8l8,1.9L2021.5-312.6z"/>
		<rect x="2018" y="-151.4" class="st0" width="0.5" height="28"/>
		<path class="st0" d="M2022.7-141l-9-2.1c-0.1,0-0.2-0.1-0.2-0.2c0-0.1,0.1-0.2,0.2-0.2l7.2-1.7l-7.2-1.5c-0.1,0-0.2-0.1-0.2-0.2
			s0.1-0.2,0.2-0.2l9-2.1l0.1,0.5l-7.9,1.8l7.1,1.5c0.1,0,0.2,0.1,0.2,0.2s-0.1,0.2-0.2,0.2l-7.2,1.8l8,1.9L2022.7-141z"/>
		<path class="st0" d="M2154.6-311.7l-9-2.1c-0.1,0-0.2-0.1-0.2-0.2c0-0.1,0.1-0.2,0.2-0.2l7.2-1.7l-7.2-1.5c-0.1,0-0.2-0.1-0.2-0.2
			s0.1-0.2,0.2-0.2l9-2.1l0.1,0.5l-7.9,1.8l7.1,1.5c0.1,0,0.2,0.1,0.2,0.2s-0.1,0.2-0.2,0.2l-7.2,1.8l8,1.9L2154.6-311.7z"/>
		<path class="st0" d="M2012.8-304.6h-0.5v-1.8c0-0.1,0.1-0.3,0.3-0.3h3.8v0.5h-3.5V-304.6z"/>
		<circle id="XMLID_364_" class="st0" cx="2017.5" cy="-306.4" r="1.7"/>
		<circle id="XMLID_363_" class="st0" cx="2096.8" cy="-359.2" r="1.7"/>
		<circle id="XMLID_362_" class="st0" cx="2017.5" cy="-359.2" r="1.7"/>
		<circle id="XMLID_361_" class="st0" cx="2150.2" cy="-359.2" r="1.7"/>
		<circle id="XMLID_360_" class="st0" cx="2096.8" cy="-337.7" r="1.7"/>
		<circle id="XMLID_359_" class="st0" cx="2150.2" cy="-274.3" r="1.7"/>
		<g id="XMLID_358_">
			<path class="st0" d="M2011.8-302l-3.5-3.7h-2.7v-0.5h2.8c0.1,0,0.1,0,0.2,0.1l3.6,3.8L2011.8-302z"/>
			<rect x="2005" y="-308.2" class="st0" width="0.8" height="4.7"/>
			<rect x="2003.5" y="-307.6" class="st0" width="0.8" height="3.4"/>
			<rect x="2002.2" y="-306.9" class="st0" width="0.8" height="2.1"/>
		</g>
		<g id="XMLID_357_">
			<path class="st0" d="M2023-174h-0.5v-1.7c0-0.1,0.1-0.3,0.3-0.3h4.8v0.5h-4.5V-174z"/>
			<rect x="2027.3" y="-178" class="st0" width="0.8" height="4.7"/>
			<rect x="2028.7" y="-177.4" class="st0" width="0.8" height="3.4"/>
			<rect x="2030.1" y="-176.8" class="st0" width="0.8" height="2.1"/>
		</g>
		<g id="XMLID_356_">
			<path class="st0" d="M2129-179.2h-0.5v-1.5h-4.5v-0.5h4.8c0.1,0,0.3,0.1,0.3,0.3V-179.2z"/>
			<rect x="2123.5" y="-183.3" class="st0" width="0.8" height="4.7"/>
			<rect x="2122" y="-182.6" class="st0" width="0.8" height="3.4"/>
			<rect x="2120.7" y="-182" class="st0" width="0.8" height="2.1"/>
		</g>
		<g id="XMLID_355_">
			<rect x="2113.4" y="-168.5" class="st0" width="2.4" height="0.5"/>
			<rect x="2112.8" y="-170.5" class="st0" width="0.8" height="4.7"/>
			<rect x="2111.4" y="-169.9" class="st0" width="0.8" height="3.4"/>
			<rect x="2110.1" y="-169.3" class="st0" width="0.8" height="2.1"/>
		</g>
		<g id="XMLID_354_">
			<path class="st0" d="M2097.7-326h-0.5v-2.7l-3.7-3.5l0.3-0.4l3.8,3.6c0,0,0.1,0.1,0.1,0.2V-326z"/>
			<rect x="2095.1" y="-326.2" class="st0" width="4.7" height="0.8"/>
			<rect x="2095.7" y="-324.7" class="st0" width="3.4" height="0.8"/>
			<rect x="2096.4" y="-323.4" class="st0" width="2.1" height="0.8"/>
		</g>
		<path class="st0" d="M2017.3-295.5c-0.1,0-0.1,0-0.2-0.1l-2.4-2.6c-0.1-0.1-0.1-0.2,0-0.3c0-0.1,0.1-0.2,0.2-0.2h4.6
			c0.1,0,0.2,0.1,0.2,0.1c0,0.1,0,0.2,0,0.3l-2.2,2.6C2017.4-295.6,2017.4-295.5,2017.3-295.5
			C2017.3-295.5,2017.3-295.5,2017.3-295.5z M2015.5-298.1l1.8,2l1.6-2H2015.5z"/>
		<path class="st0" d="M2019.5-286.8h-4.6c-0.1,0-0.2-0.1-0.2-0.2c0-0.1,0-0.2,0-0.3l2.4-2.6c0-0.1,0.1-0.1,0.2-0.1
			c0.1,0,0.1,0,0.2,0.1l2.2,2.6c0.1,0.1,0.1,0.2,0,0.3C2019.7-286.9,2019.6-286.8,2019.5-286.8z M2015.5-287.3h3.5l-1.6-2
			L2015.5-287.3z"/>
		<path class="st0" d="M2150.3-294.2c-0.1,0-0.1,0-0.2-0.1l-2.4-2.6c-0.1-0.1-0.1-0.2,0-0.3c0-0.1,0.1-0.2,0.2-0.2h4.6
			c0.1,0,0.2,0.1,0.2,0.1c0,0.1,0,0.2,0,0.3l-2.2,2.6C2150.4-294.3,2150.4-294.2,2150.3-294.2
			C2150.3-294.2,2150.3-294.2,2150.3-294.2z M2148.5-296.8l1.8,2l1.6-2H2148.5z"/>
		<path class="st0" d="M2166.4-271.7C2166.4-271.7,2166.3-271.7,2166.4-271.7c-0.2-0.1-0.3-0.2-0.3-0.3v-4.6c0-0.1,0.1-0.2,0.1-0.2
			c0.1,0,0.2,0,0.3,0l2.6,2.2c0.1,0,0.1,0.1,0.1,0.2c0,0.1,0,0.1-0.1,0.2l-2.6,2.4C2166.5-271.7,2166.5-271.7,2166.4-271.7z
			 M2166.6-276v3.5l2-1.8L2166.6-276z"/>
		<path class="st0" d="M2181.2-271.7c-0.1,0-0.1,0-0.2-0.1l-2.6-2.4c-0.1,0-0.1-0.1-0.1-0.2c0-0.1,0-0.1,0.1-0.2l2.6-2.2
			c0.1-0.1,0.2-0.1,0.3,0c0.1,0,0.1,0.1,0.1,0.2v4.6C2181.5-271.9,2181.4-271.8,2181.2-271.7
			C2181.3-271.7,2181.3-271.7,2181.2-271.7z M2179-274.4l2,1.8v-3.5L2179-274.4z"/>
		<path class="st0" d="M2150.3-264.8c-0.1,0-0.1,0-0.2-0.1l-2.4-2.6c-0.1-0.1-0.1-0.2,0-0.3c0-0.1,0.1-0.2,0.2-0.2h4.6
			c0.1,0,0.2,0.1,0.2,0.1c0,0.1,0,0.2,0,0.3l-2.2,2.6C2150.4-264.9,2150.4-264.8,2150.3-264.8
			C2150.3-264.8,2150.3-264.8,2150.3-264.8z M2148.5-267.4l1.8,2l1.6-2H2148.5z"/>
		<path class="st0" d="M2152.5-282.3h-4.6c-0.1,0-0.2-0.1-0.2-0.2c0-0.1,0-0.2,0-0.3l2.4-2.6c0-0.1,0.1-0.1,0.2-0.1
			c0.1,0,0.1,0,0.2,0.1l2.2,2.6c0.1,0.1,0.1,0.2,0,0.3C2152.7-282.3,2152.6-282.3,2152.5-282.3z M2148.5-282.8h3.5l-1.6-2
			L2148.5-282.8z"/>
		<path class="st0" d="M2152.5-253.1h-4.6c-0.1,0-0.2-0.1-0.2-0.2c0-0.1,0-0.2,0-0.3l2.4-2.6c0-0.1,0.1-0.1,0.2-0.1
			c0.1,0,0.1,0,0.2,0.1l2.2,2.6c0.1,0.1,0.1,0.2,0,0.3C2152.7-253.2,2152.6-253.1,2152.5-253.1z M2148.5-253.6h3.5l-1.6-2
			L2148.5-253.6z"/>
		<path class="st0" d="M2150.3-156.7c-0.1,0-0.1,0-0.2-0.1l-2.4-2.6c-0.1-0.1-0.1-0.2,0-0.3c0-0.1,0.1-0.2,0.2-0.2h4.6
			c0.1,0,0.2,0.1,0.2,0.1c0,0.1,0,0.2,0,0.3l-2.2,2.6C2150.4-156.8,2150.4-156.7,2150.3-156.7
			C2150.3-156.7,2150.3-156.7,2150.3-156.7z M2148.5-159.3l1.8,2l1.6-2H2148.5z"/>
		<path class="st0" d="M2152.5-144.9h-4.6c-0.1,0-0.2-0.1-0.2-0.2c0-0.1,0-0.2,0-0.3l2.4-2.6c0-0.1,0.1-0.1,0.2-0.1
			c0.1,0,0.1,0,0.2,0.1l2.2,2.6c0.1,0.1,0.1,0.2,0,0.3C2152.7-145,2152.6-144.9,2152.5-144.9z M2148.5-145.4h3.5l-1.6-2
			L2148.5-145.4z"/>
		<path class="st0" d="M2133.6-156.7c-0.1,0-0.1,0-0.2-0.1l-2.4-2.6c-0.1-0.1-0.1-0.2,0-0.3c0-0.1,0.1-0.2,0.2-0.2h4.6
			c0.1,0,0.2,0.1,0.2,0.1c0,0.1,0,0.2,0,0.3l-2.2,2.6C2133.7-156.8,2133.7-156.7,2133.6-156.7
			C2133.6-156.7,2133.6-156.7,2133.6-156.7z M2131.8-159.3l1.8,2l1.6-2H2131.8z"/>
		<path class="st0" d="M2018.2-135c-0.1,0-0.1,0-0.2-0.1l-2.4-2.6c-0.1-0.1-0.1-0.2,0-0.3c0-0.1,0.1-0.2,0.2-0.2h4.6
			c0.1,0,0.2,0.1,0.2,0.1c0,0.1,0,0.2,0,0.3l-2.2,2.6C2018.4-135,2018.3-135,2018.2-135C2018.2-135,2018.2-135,2018.2-135z
			 M2016.4-137.6l1.8,2l1.6-2H2016.4z"/>
		<path class="st0" d="M2135.8-144.9h-4.6c-0.1,0-0.2-0.1-0.2-0.2c0-0.1,0-0.2,0-0.3l2.4-2.6c0-0.1,0.1-0.1,0.2-0.1
			c0.1,0,0.1,0,0.2,0.1l2.2,2.6c0.1,0.1,0.1,0.2,0,0.3C2135.9-145,2135.9-144.9,2135.8-144.9z M2131.8-145.4h3.5l-1.6-2
			L2131.8-145.4z"/>
		<path class="st0" d="M2020.5-126.3h-4.6c-0.1,0-0.2-0.1-0.2-0.2c0-0.1,0-0.2,0-0.3l2.4-2.6c0-0.1,0.1-0.1,0.2-0.1
			c0.1,0,0.1,0,0.2,0.1l2.2,2.6c0.1,0.1,0.1,0.2,0,0.3C2020.7-126.3,2020.6-126.3,2020.5-126.3z M2016.5-126.8h3.5l-1.6-2
			L2016.5-126.8z"/>
		<rect x="2017.2" y="-250.6" class="st0" width="0.5" height="26.2"/>
		<path class="st0" d="M2017.5-241.5c-0.1,0-0.1,0-0.2-0.1l-2.4-2.6c-0.1-0.1-0.1-0.2,0-0.3c0-0.1,0.1-0.2,0.2-0.2h4.6
			c0.1,0,0.2,0.1,0.2,0.1c0,0.1,0,0.2,0,0.3l-2.2,2.6C2017.7-241.6,2017.6-241.5,2017.5-241.5
			C2017.5-241.5,2017.5-241.5,2017.5-241.5z M2015.7-244.1l1.8,2l1.6-2H2015.7z"/>
		<path class="st0" d="M2019.7-230.2h-4.6c-0.1,0-0.2-0.1-0.2-0.2c0-0.1,0-0.2,0-0.3l2.4-2.6c0-0.1,0.1-0.1,0.2-0.1
			c0.1,0,0.1,0,0.2,0.1l2.2,2.6c0.1,0.1,0.1,0.2,0,0.3C2019.9-230.3,2019.8-230.2,2019.7-230.2z M2015.7-230.7h3.5l-1.6-2
			L2015.7-230.7z"/>
		<g id="XMLID_353_">
			<rect x="2004.6" y="-99.9" class="st0" width="19.6" height="0.5"/>
			<rect x="2004" y="-101.9" class="st0" width="0.8" height="4.7"/>
			<rect x="2002.6" y="-101.3" class="st0" width="0.8" height="3.4"/>
			<rect x="2001.3" y="-100.7" class="st0" width="0.8" height="2.1"/>
		</g>
		<path class="st0" d="M2018.2-89.9c-5.4,0-9.7-4.4-9.7-9.7s4.4-9.7,9.7-9.7c5.4,0,9.7,4.4,9.7,9.7S2023.6-89.9,2018.2-89.9z
			 M2018.2-108.6c-4.9,0-9,4-9,9s4,9,9,9s9-4,9-9S2023.1-108.6,2018.2-108.6z"/>
		<path class="st0" d="M2018.7-103.2c-5.7,0-10.3-4.6-10.3-10.3c0-5.7,4.6-10.3,10.3-10.3s10.3,4.6,10.3,10.3
			C2029-107.8,2024.4-103.2,2018.7-103.2z M2018.7-123c-5.2,0-9.5,4.3-9.5,9.5c0,5.2,4.3,9.5,9.5,9.5s9.5-4.3,9.5-9.5
			C2028.2-118.7,2024-123,2018.7-123z"/>
		<polygon class="st0" points="2014,-93.5 2013.4,-94 2018.2,-99.7 2014.9,-106.4 2015.6,-106.7 2019.1,-99.6 		"/>
		<path class="st0" d="M2025.2-110.2h-14.3l7.9-11.3L2025.2-110.2z M2012.3-111h11.6l-5.2-9.1L2012.3-111z"/>
		<rect x="2017.8" y="-90.1" class="st0" width="0.5" height="26.2"/>
		<path class="st0" d="M2018.2-81.1c-0.1,0-0.1,0-0.2-0.1l-2.4-2.6c-0.1-0.1-0.1-0.2,0-0.3c0-0.1,0.1-0.2,0.2-0.2h4.6
			c0.1,0,0.2,0.1,0.2,0.1c0,0.1,0,0.2,0,0.3l-2.2,2.6C2018.4-81.1,2018.3-81.1,2018.2-81.1C2018.2-81.1,2018.2-81.1,2018.2-81.1z
			 M2016.4-83.6l1.8,2l1.6-2H2016.4z"/>
		<path class="st0" d="M2020.4-69.8h-4.6c-0.1,0-0.2-0.1-0.2-0.2c0-0.1,0-0.2,0-0.3l2.4-2.6c0-0.1,0.1-0.1,0.2-0.1
			c0.1,0,0.1,0,0.2,0.1l2.2,2.6c0.1,0.1,0.1,0.2,0,0.3C2020.6-69.8,2020.5-69.8,2020.4-69.8z M2016.4-70.3h3.5l-1.6-2L2016.4-70.3z"
			/>
		<rect id="XMLID_352_" x="2023" y="-339.8" style="fill:none;" width="31.9" height="14.3"/>
		
			<text id="XMLID_351_" transform="matrix(1 0 0 1 2022.9938 -332.6253)" class="st0" style="font-family:'STHeitiSC-Light'; font-size:9px;">102</text>
		<rect id="XMLID_350_" x="2020.6" y="-309.3" style="fill:none;" width="31.9" height="14.3"/>
		
			<text id="XMLID_349_" transform="matrix(1 0 0 1 2020.5522 -302.8855)" class="st0" style="font-family:'STHeitiSC-Light'; font-size:8px;">10217</text>
		<rect id="XMLID_348_" x="1997" y="-180.9" style="fill:none;" width="21.6" height="8.4"/>
		
			<text id="XMLID_347_" transform="matrix(1 0 0 1 1997.0243 -174.5346)" class="st0" style="font-family:'STHeitiSC-Light'; font-size:8px;">1011</text>
		<rect id="XMLID_346_" x="2124.9" y="-193.9" style="fill:none;" width="31.9" height="14.3"/>
		
			<text id="XMLID_345_" transform="matrix(1 0 0 1 2124.9189 -187.5171)" class="st0" style="font-family:'STHeitiSC-Light'; font-size:8px;">1012</text>
		<rect id="XMLID_344_" x="1995.6" y="-162.1" style="fill:none;" width="31.9" height="14.3"/>
		
			<text id="XMLID_343_" transform="matrix(1 0 0 1 1995.6494 -155.6508)" class="st0" style="font-family:'STHeitiSC-Light'; font-size:8px;">101</text>
		<rect id="XMLID_342_" x="2031" y="-179.6" style="fill:none;" width="24.7" height="7.1"/>
		
			<text id="XMLID_341_" transform="matrix(1 0 0 1 2031.0243 -173.2342)" class="st0" style="font-family:'STHeitiSC-Light'; font-size:8px;">10117</text>
		<rect id="XMLID_340_" x="2095.4" y="-180.3" style="fill:none;" width="24.7" height="7.1"/>
		
			<text id="XMLID_339_" transform="matrix(1 0 0 1 2095.3926 -173.9178)" class="st0" style="font-family:'STHeitiSC-Light'; font-size:8px;">10127</text>
		<rect id="XMLID_338_" x="2085.5" y="-322" style="fill:none;" width="31.9" height="14.3"/>
		
			<text id="XMLID_337_" transform="matrix(1 0 0 1 2085.4702 -315.5942)" class="st0" style="font-family:'STHeitiSC-Light'; font-size:8px;">10227</text>
		<rect id="XMLID_336_" x="1954.9" y="-274.4" style="fill:none;" width="47.7" height="21.9"/>
		
			<text id="XMLID_335_" transform="matrix(1 0 0 1 1954.8612 -266.3688)" class="st0" style="font-family:'STHeitiSC-Light'; font-size:10px;">5号站用变</text>
		<rect id="XMLID_334_" x="1956.7" y="-114.6" style="fill:none;" width="47.7" height="21.9"/>
		
			<text id="XMLID_333_" transform="matrix(1 0 0 1 1956.7073 -106.5631)" class="st0" style="font-family:'STHeitiSC-Light'; font-size:10px;">0号站用变</text>
		<rect id="XMLID_332_" x="2000.9" y="-222" style="fill:none;" width="47.7" height="21.9"/>
		<text id="XMLID_331_" transform="matrix(1 0 0 1 2000.9419 -215.6371)"><tspan x="0" y="0" class="st0" style="font-family:'STHeitiSC-Light'; font-size:8px;">至380伏</tspan><tspan x="0" y="8.4" class="st0" style="font-family:'STHeitiSC-Light'; font-size:8px;">三/四段</tspan></text>
		<rect id="XMLID_330_" x="2153" y="-360.8" style="fill:none;" width="88.5" height="31.8"/>
		<text id="XMLID_329_" transform="matrix(1 0 0 1 2156.5356 -354.4409)"><tspan x="0" y="0" class="st0" style="font-family:'STHeitiSC-Light'; font-size:8px;">31438练塘站5号站用变</tspan><tspan x="6.6" y="8.4" class="st0" style="font-family:'STHeitiSC-Light'; font-size:8px;">（石8练塘特高压）</tspan></text>
		<rect id="XMLID_328_" x="2188.7" y="-282.3" style="fill:none;" width="88.5" height="31.8"/>
		<text id="XMLID_327_" transform="matrix(1 0 0 1 2206.8105 -275.8881)"><tspan x="0" y="0" class="st0" style="font-family:'STHeitiSC-Light'; font-size:8px;">石8练塘特高压</tspan><tspan x="-5.9" y="8.4" class="st0" style="font-family:'STHeitiSC-Light'; font-size:8px;">（石湖荡开关站）</tspan></text>
		<rect id="XMLID_326_" x="2152.5" y="-152.4" style="fill:none;" width="88.5" height="31.8"/>
		<text id="XMLID_325_" transform="matrix(1 0 0 1 2156.0356 -146.0264)"><tspan x="0" y="0" class="st0" style="font-family:'STHeitiSC-Light'; font-size:8px;">31453练塘站0号站用变</tspan><tspan x="6.6" y="8.4" class="st0" style="font-family:'STHeitiSC-Light'; font-size:8px;">（石8练塘特高压）</tspan></text>
		<rect id="XMLID_324_" x="2003.7" y="-61.4" style="fill:none;" width="47.7" height="21.9"/>
		<text id="XMLID_323_" transform="matrix(1 0 0 1 2003.682 -54.9704)"><tspan x="0" y="0" class="st0" style="font-family:'STHeitiSC-Light'; font-size:8px;">至380伏</tspan><tspan x="0" y="8.4" class="st0" style="font-family:'STHeitiSC-Light'; font-size:8px;">一/二段</tspan></text>
		<path class="st0" d="M2074.4-273.6c-2.6,0-4.7-2.1-4.7-4.7s2.1-4.7,4.7-4.7s4.7,2.1,4.7,4.7S2077-273.6,2074.4-273.6z
			 M2074.4-282.5c-2.3,0-4.2,1.9-4.2,4.2s1.9,4.2,4.2,4.2c2.3,0,4.2-1.9,4.2-4.2S2076.7-282.5,2074.4-282.5z"/>
		<path class="st0" d="M2074.4-263.6c-2.6,0-4.7-2.1-4.7-4.7c0-2.6,2.1-4.7,4.7-4.7s4.7,2.1,4.7,4.7
			C2079.1-265.7,2077-263.6,2074.4-263.6z M2074.4-272.5c-2.3,0-4.2,1.9-4.2,4.2s1.9,4.2,4.2,4.2c2.3,0,4.2-1.9,4.2-4.2
			S2076.7-272.5,2074.4-272.5z"/>
		<path class="st0" d="M2078.9-269.4c-2.6,0-4.7-2.1-4.7-4.7s2.1-4.7,4.7-4.7s4.7,2.1,4.7,4.7S2081.5-269.4,2078.9-269.4z
			 M2078.9-278.3c-2.3,0-4.2,1.9-4.2,4.2s1.9,4.2,4.2,4.2s4.2-1.9,4.2-4.2S2081.2-278.3,2078.9-278.3z"/>
		<path class="st0" d="M2070-269.2c-2.6,0-4.7-2.1-4.7-4.7s2.1-4.7,4.7-4.7s4.7,2.1,4.7,4.7S2072.6-269.2,2070-269.2z M2070-278.1
			c-2.3,0-4.2,1.9-4.2,4.2s1.9,4.2,4.2,4.2c2.3,0,4.2-1.9,4.2-4.2S2072.3-278.1,2070-278.1z"/>
		<polygon class="st0" points="2073.5,-277 2073.1,-277.4 2074.5,-278.9 2072.9,-280.7 2073.3,-281 2075.2,-278.9 		"/>
		<rect x="2074.8" y="-279.2" class="st0" width="1.5" height="0.5"/>
		<polygon class="st0" points="2067.9,-272.1 2067.5,-272.5 2068.9,-274 2067.3,-275.7 2067.7,-276.1 2069.5,-274 		"/>
		<rect x="2069.2" y="-274.3" class="st0" width="1.5" height="0.5"/>
		<polygon class="st0" points="2078.7,-272 2078.3,-272.4 2079.7,-273.9 2078.1,-275.7 2078.5,-276 2080.4,-273.9 		"/>
		<rect x="2080" y="-274.2" class="st0" width="1.5" height="0.5"/>
		<path class="st0" d="M2073.8-266.2l-1.8-1.9c-0.1-0.1-0.1-0.2,0-0.3c0-0.1,0.1-0.2,0.2-0.2h4.1c0.1,0,0.2,0.1,0.2,0.1
			c0,0.1,0,0.2,0,0.3l-1.5,1.9l-0.4-0.3l1.1-1.5h-3l1.4,1.5L2073.8-266.2z"/>
		<path class="st0" d="M2080-260.7h-11.4c-0.1,0-0.3-0.1-0.3-0.3v-12.4h0.5v12.1h10.9v-12.8h0.5v13
			C2080.3-260.8,2080.2-260.7,2080-260.7z"/>
		<rect x="2066.4" y="-258.9" class="st0" width="4.4" height="0.8"/>
		<rect x="2066.9" y="-257.6" class="st0" width="3.4" height="0.8"/>
		<rect x="2067.3" y="-256.3" class="st0" width="2.5" height="0.8"/>
		<rect x="2068.3" y="-260.9" class="st0" width="0.5" height="2"/>
		<rect x="2074.2" y="-332.2" class="st0" width="0.5" height="22"/>
		<path class="st0" d="M2074.8-309.5c-0.1,0-0.1,0-0.2-0.1l-3.2-2.4l0.3-0.4l3,2.3l2.3-2.2l0.4,0.4l-2.4,2.4
			C2075-309.6,2074.9-309.5,2074.8-309.5z"/>
		<path class="st0" d="M2074.8-306.6c-0.1,0-0.1,0-0.2-0.1l-3.2-2.4l0.3-0.4l3,2.3l2.3-2.2l0.4,0.4l-2.4,2.4
			C2074.9-306.6,2074.9-306.6,2074.8-306.6z"/>
		<path class="st0" d="M2119.8-309.2c-0.1,0-0.1,0-0.2-0.1l-3.2-2.4l0.3-0.4l3,2.3l2.3-2.2l0.4,0.4l-2.4,2.4
			C2119.9-309.3,2119.9-309.2,2119.8-309.2z"/>
		<path class="st0" d="M2150.5-327.1c-0.1,0-0.1,0-0.2-0.1l-3.2-2.4l0.3-0.4l3,2.3l2.3-2.2l0.4,0.4l-2.4,2.4
			C2150.7-327.1,2150.6-327.1,2150.5-327.1z"/>
		<path class="st0" d="M2150.5-324.3c-0.1,0-0.1,0-0.2-0.1l-3.2-2.4l0.3-0.4l3,2.3l2.3-2.2l0.4,0.4l-2.4,2.4
			C2150.7-324.4,2150.6-324.3,2150.5-324.3z"/>
		<path class="st0" d="M2119.7-306.3c-0.1,0-0.1,0-0.2-0.1l-3.2-2.4l0.3-0.4l3,2.3l2.3-2.2l0.4,0.4l-2.4,2.4
			C2119.9-306.3,2119.8-306.3,2119.7-306.3z"/>
		<rect x="2074.2" y="-306.8" class="st0" width="0.5" height="24"/>
		<path class="st0" d="M2078.3-289.4h-7.5c-0.1,0-0.3-0.1-0.3-0.3v-13.2c0-0.1,0.1-0.3,0.3-0.3h7.5c0.1,0,0.3,0.1,0.3,0.3v13.2
			C2078.5-289.5,2078.4-289.4,2078.3-289.4z M2071-289.9h7v-12.7h-7V-289.9z"/>
		<rect x="2119.2" y="-331.8" class="st0" width="0.5" height="22"/>
		<path class="st0" d="M2096.8-333.3h-1.6v-0.5h1.4v-2.2h0.5v2.5C2097-333.4,2096.9-333.3,2096.8-333.3z"/>
		<path class="st0" d="M2202.4-274h-50.6v-0.5h50l-2.3-2.5l0.4-0.3l2.7,2.9c0.1,0.1,0.1,0.2,0,0.3S2202.5-274,2202.4-274z"/>
		
			<rect x="2199.5" y="-273.4" transform="matrix(0.7367 -0.6762 0.6762 0.7367 764.1295 1416.467)" class="st0" width="3.4" height="0.5"/>
		<path class="st0" d="M2150.2-136.3h-16.6c-0.1,0-0.3-0.1-0.3-0.3v-38.1l-3.6-6.6l0.4-0.2l3.7,6.7c0,0,0,0.1,0,0.1v37.9h16.1
			v-188.1h0.5v188.3C2150.4-136.4,2150.3-136.3,2150.2-136.3z"/>
		<path class="st0" d="M2019.6-175.4h-2.2c-0.1,0-0.3-0.1-0.3-0.3v-10.5c0-0.1,0.1-0.3,0.3-0.3h116.1c0.1,0,0.3,0.1,0.3,0.3v5.3
			c0,0.1-0.1,0.3-0.3,0.3h-1.5v-0.5h1.3v-4.8h-115.6v10h1.9V-175.4z"/>
		<path class="st0" d="M2018.3-165.4h-0.5v-4.2c0,0,0-0.1,0-0.1l3.2-6.2l0.4,0.2l-3.1,6.1V-165.4z"/>
		<path class="st0" d="M2020.4-151.1h-4.9l-1.9-1.9v-10.4l1.9-2h4.9l2.2,2v10.4L2020.4-151.1z M2015.7-151.6h4.5l1.9-1.6v-9.9
			l-1.9-1.7h-4.5l-1.6,1.7v10L2015.7-151.6z"/>
		<rect x="2059.5" y="-189.7" class="st0" width="0.5" height="6.7"/>
		<path class="st0" d="M2086.1-180.7c-0.1,0-0.2-0.1-0.2-0.2l-2.7-9.4l0.5-0.1l2.4,8.4l1.6-7.8c0-0.2,0.4-0.2,0.5,0l1.6,7.7l2.1-7.7
			l0.5,0.1l-2.3,8.8c0,0.1-0.1,0.2-0.2,0.2c-0.1,0-0.2-0.1-0.2-0.2l-1.6-7.6l-1.6,7.6C2086.3-180.8,2086.2-180.7,2086.1-180.7
			C2086.1-180.7,2086.1-180.7,2086.1-180.7z"/>
		<rect x="2106.7" y="-189.7" class="st0" width="0.5" height="6.7"/>
		<path class="st0" d="M2076.8-174.6h-4.8c-0.1,0-0.3-0.1-0.3-0.3v-8.4c0-0.1,0.1-0.3,0.3-0.3h4.8c0.1,0,0.3,0.1,0.3,0.3v8.4
			C2077-174.7,2076.9-174.6,2076.8-174.6z M2072.2-175.1h4.3v-7.9h-4.3V-175.1z"/>
		<rect x="2074.1" y="-185.6" class="st0" width="0.5" height="14"/>
		<path class="st0" d="M2074.5-161.9c-2.8,0-5-2.2-5-5s2.2-5,5-5s5,2.2,5,5S2077.3-161.9,2074.5-161.9z M2074.5-171.4
			c-2.5,0-4.5,2-4.5,4.5s2,4.5,4.5,4.5s4.5-2,4.5-4.5S2077-171.4,2074.5-171.4z"/>
		<path class="st0" d="M2074.3-155.6c-2.8,0-5-2.2-5-5s2.2-5,5-5s5,2.2,5,5S2077.1-155.6,2074.3-155.6z M2074.3-165.1
			c-2.5,0-4.5,2-4.5,4.5s2,4.5,4.5,4.5s4.5-2,4.5-4.5S2076.8-165.1,2074.3-165.1z"/>
		<path class="st0" d="M2129.3-166.2h-13.5c-0.1,0-0.3-0.1-0.3-0.3v-4c0-0.1,0.1-0.3,0.3-0.3h13.5c0.1,0,0.3,0.1,0.3,0.3v4
			C2129.5-166.3,2129.4-166.2,2129.3-166.2z M2116-166.7h13v-3.5h-13V-166.7z"/>
		<rect x="2118.2" y="-171.7" class="st0" width="0.5" height="5.8"/>
		<rect x="2120.8" y="-171.7" class="st0" width="0.5" height="5.8"/>
		<rect x="2122.1" y="-171.7" class="st0" width="0.5" height="5.8"/>
		<path class="st0" d="M2129.3-166.2h-4.3c-0.1,0-0.3-0.1-0.3-0.3v-4c0-0.1,0.1-0.3,0.3-0.3h4.3c0.1,0,0.3,0.1,0.3,0.3v4
			C2129.5-166.3,2129.4-166.2,2129.3-166.2z M2125.2-166.7h3.8v-3.5h-3.8V-166.7z"/>
		
			<rect x="2124.5" y="-168.6" transform="matrix(0.6873 -0.7264 0.7264 0.6873 787.3683 1492.3507)" class="st0" width="5.1" height="0.5"/>
		<polygon class="st0" points="2129.1,-166.3 2124.7,-170.3 2125.1,-170.7 2129.4,-166.7 		"/>
		<rect x="2129.3" y="-169" class="st0" width="4.3" height="0.5"/>
	</g>
</g>
</svg>
