<?xml version="1.0" encoding="utf-8"?>
<!-- Generator: Adobe Illustrator 22.1.0, SVG Export Plug-In . SVG Version: 6.00 Build 0)  -->
<svg version="1.1" id="图层_1" xmlns="http://www.w3.org/2000/svg" xmlns:xlink="http://www.w3.org/1999/xlink" x="0px" y="0px"
	 viewBox="0 0 1024 1024" style="enable-background:new 0 0 1024 1024;" xml:space="preserve">
<style type="text/css">
	.st0{fill:#FF5EB9;}
	.st1{fill:#FF6EC0;}
	.st2{fill:#E654A6;}
	.st3{fill:#FF85CA;}
</style>
<path class="st0" d="M271.8,503.2H66c-1.1,0-2-0.9-2-2V321.7c0-1.1,0.9-2,2-2h205.8c1.1,0,2,0.9,2,2v179.6
	C273.8,502.3,272.9,503.2,271.8,503.2z"/>
<path class="st0" d="M836,743.5c-5.7,0-11.3-2.5-15.1-7.3c-6.6-8.3-5.2-20.4,3.1-27c62-49.1,97.5-122.4,97.5-201.1
	c0-74.3-32.4-145-88.8-193.9c-8-7-8.9-19.1-1.9-27.1c6.9-8,19.1-8.9,27.1-1.9C922.8,341.4,960,422.7,960,508.1
	c0,90.5-40.8,174.8-112.1,231.2C844.4,742.1,840.2,743.5,836,743.5z"/>
<path class="st1" d="M731,635c-6.4,0-12.8-3.3-16.4-9.1c-5.5-9-2.8-20.9,6.3-26.4c32.1-19.7,51.2-53.9,51.2-91.3
	c0-35-17.2-67.9-46-88c-8.7-6.1-10.8-18-4.8-26.7s18.1-10.8,26.7-4.8c39.1,27.3,62.5,71.9,62.5,119.5c0,50.9-26,97.2-69.5,124
	C737.9,634,734.5,635,731,635z"/>
<path class="st2" d="M108.2,262.9v498.2c0,29,23.5,52.4,52.4,52.4h419.6c29,0,52.4-23.5,52.4-52.4V262.9c0-29-23.5-52.4-52.4-52.4
	H160.6C131.7,210.4,108.2,233.9,108.2,262.9z"/>
<circle class="st3" cx="368.8" cy="404.9" r="104.9"/>
<circle class="st2" cx="368.8" cy="404.9" r="39.3"/>
<path class="st3" d="M419.2,745.3H318.3c-1.1,0-2-0.9-2-2V576.9c0-1.1,0.9-2,2-2h100.9c1.1,0,2,0.9,2,2v166.4
	C421.2,744.4,420.3,745.3,419.2,745.3z"/>
</svg>
